<svg xmlns="http://www.w3.org/2000/svg" width="2730.667" height="2730.667" version="1.0" viewBox="0 0 2048 2048"><path d="M1638 780.1c-73.9 4.3-122.6 4.8-191.5 1.8-14.3-.6-32.3-1.2-40-1.2-20.3-.3-20.3-.3-64.2 28.8-19.9 13.2-39.7 26.2-44 29-8.9 5.7-13.3 11.4-15.9 20.3-1.5 5.2-1.6 13.4-.5 97.2.7 50.3 1.1 132.2.9 182l-.3 90.5 2.4 5.2c2.7 6.1 8.7 12 16.3 16l5.3 2.8 37-.1c20.4-.1 63.3-.7 95.5-1.4 32.7-.6 117.9-1.1 193.1-1.1 147.4.1 139.3.4 149.1-5.8 9.1-5.8 14.6-16.2 15-28.6.3-8-1.1-82.3-1.7-90.5-.2-3.6-.7-23.8-1-45-.3-21.2-.8-41.4-1-45-.2-3.6-.7-22-1-41-.3-19-.7-38.3-1-43-.3-4.7-.7-23.6-1-42-.7-36.9-1.7-51.4-3.9-57.7-3.6-10.1-10-16.2-26.6-25.1-10.3-5.5-22.1-13.1-49.2-31.4-25.6-17.3-26.1-17.4-71.8-14.7zm45.2 9.1c7.6 3.5 14.2 9.8 17.5 16.7 2.6 5.5 2.7 6 3.4 32.6.4 14.8 1 44.8 1.3 66.5 1.4 91.8 2.9 160.6 3.7 161.4.4.5 2 .5 3.5.2l2.7-.7-.7-39.2c-.3-21.6-.8-48.9-1.1-60.7-.3-11.8-1-50.3-1.6-85.5-.6-35.2-1.5-66-2-68.4-.5-2.4-.8-4.5-.6-4.7.2-.2 8.7 5.3 18.8 12.2 32.6 22.5 37.2 26.4 40.9 34.5 2.5 5.8 2.6 7.9 4.6 109.4 1.7 88.3 2.8 130.8 5 199.7.9 27.9 1.4 52.2 1 54.1-1 5.3-5.8 11.1-11.2 13.8-4.9 2.3-4.9 2.3-62.4 3.1-31.6.4-88.8 1.6-127 2.8-38.2 1.1-77.8 2.2-88 2.5-10.2.3-22.1.7-26.5 1-4.4.2-39.6 1-78.2 1.6-66.6 1.2-70.4 1.1-74.8-.6-6.7-2.5-10.8-6.5-13.9-13.6-2.8-6.1-2.8-6.1-.8-8.2 8.2-9 55.1-101.3 65.8-129.5 1.3-3.5 2.6-6.8 3-7.3.3-.6 1.8 1.6 3.4 4.8 5 10.5 13.3 18 24.6 22.3 11.2 4.1 87.7 9 141.9 9 43.7 0 105.6-3.3 108-5.7 1.3-1.2 1-4.9-.5-5.8-.4-.2-9 .2-19.1 1-64.3 5-133.6 4.3-202.9-2-9.1-.8-18-1.7-19.8-2-13.6-2.4-26.1-15.3-29.6-30.6-1.5-6.5-3.2-101.2-3.8-214.9l-.3-43.5 2.8-5.8c3.3-6.7 10.7-14.7 16.3-17.5 9.8-4.9 9.1-4.9 83.4-2.2 52.8 1.9 120.7.7 172.5-3 6.6-.4 17.2-.7 23.5-.6 10 .2 12.2.5 17.2 2.8zm-320.9 22.9c-1.9 5.7-1.9 29.5.6 203.4l.7 49-3.3 10.5c-1.9 5.8-6.2 17-9.6 25-9 21.4-54 110-55.8 110-.3 0-.6-5.3-.7-11.8-.1-6.4-.7-30.6-1.2-53.7s-1.5-95.6-2.1-161.2c-1.1-111.8-1.1-119.5.5-123.7 2.3-5.9 8.1-11.6 15.9-15.5 3.4-1.7 17.2-10.5 30.7-19.5s24.8-16.5 25.1-16.5c.4-.1 0 1.8-.8 4zm415.2 38.4c1.3 2.2 2.8 6.9 3.4 10.5.6 3.6 1.7 37.3 2.6 75 3.1 141.9 3.5 159.4 4.5 195.5.6 20.3 1.2 48.9 1.3 63.5.2 25.8.1 26.6-2.1 31.5-3 6.5-8.3 11.8-14.6 14.7l-5.1 2.3-45.5-.2c-67.8-.3-93.7-.5-91.5-1 1.1-.2 31.9-.7 68.5-1.1 72.5-.9 69.7-.7 77.7-6.8 4.5-3.4 9.1-11.7 9.8-17.9.4-2.7 0-23.9-.9-47-.8-23.1-1.8-52.4-2.1-65-.3-12.7-.8-29.5-1-37.5-.3-8-1.2-48-2-89-2.3-120.7-2.3-118.2-4.1-123.6-.9-2.7-2.6-6.3-3.8-7.9-3.8-5.1-4-6.1-.7-3 1.8 1.6 4.3 4.8 5.6 7zm-488.8 371.7c-.2 1.3-.4.3-.4-2.2s.2-3.5.4-2.3c.2 1.3.2 3.3 0 4.5z"/><path d="M1526 858c-1.3.8-1.4 9.4-1.1 67.6.2 43 .7 67.6 1.3 69 .9 1.8 2.2 2.4 6.6 3 7 .9 21.3-.3 22.9-1.9 1-1 1-15.6.2-68.2-.9-66-1-67-3-68.8-1.8-1.4-4.1-1.7-13.8-1.7-6.4 0-12.3.5-13.1 1zM1703.6 1081.4c-4.9 10.1-11.8 16.3-22.9 20.5-3.2 1.2-3.8 5.5-.9 7 3.1 1.7 14.8-4.8 21.6-11.9 3.2-3.4 5.9-6 6-5.8.2.2 1.5 3.9 3 8.3 4.9 14 17.2 41 34.4 75.2 14.2 28.5 16.9 33.3 18.8 33.3 1.2 0 2.7-.7 3.4-1.5 1-1.3-1.6-7.2-15.8-35.3-26.2-51.8-39.2-82.5-39.2-92.4 0-3.3-1.2-4.8-4-4.8-.5 0-2.5 3.3-4.4 7.4zM1383.1 1127.3c-64.5 90-64.3 89.7-63.7 92.3 1.5 5.8 4.3 2.8 27.8-30.1 40.3-56.2 45-62.8 45.5-64.2.7-1.7-1.5-4.3-3.6-4.2-.9 0-3.6 2.8-6 6.2zM353 781.3c-6.5 1.8-16.7 7.6-30 17-21.8 15.4-45.3 30.8-53.9 35.2-14.2 7.4-20.8 15.5-23.1 28.6-.8 4.9-2.3 44-5 134.4-.6 18.7-1.9 59-3 89.5-3.6 103.1-4.2 127.3-3.6 133.4 1.6 14.2 11.7 25.6 26.3 29.5 2.9.8 41.5 1.2 132 1.5 81.1.2 151 .9 191.3 1.9 34.9.9 79.3 1.8 98.5 1.9 34.4.3 35.1.3 41.7-2 11.2-3.9 20.3-13.7 22.7-24.4.7-3.1 1.1-46.5 1.3-128 0-67.8.5-137.7.9-155.3.4-17.6.9-42.8 1.1-56l.3-24-3.1-6.6c-4.1-8.7-8.9-13.8-16.6-17.9-5.5-2.9-29-18.5-67.4-44.8-7.3-5-12.8-7.9-17.5-9.3-6.8-2-7.7-2.1-31.7-1-67 3.1-136 2.5-199.2-2-40-2.8-56.5-3.2-62-1.6zm70 9.8c29.3 2.1 39.6 2.3 104 2.3 39.3 0 78.2-.5 86.5-1 17.5-1.2 23.7-.5 32.2 3.7 11.6 5.6 18.6 16.6 18.7 29.4.1 11.3-1.5 123-1.9 135.5-.2 6.9-.5 33.6-.6 59.5-.1 45 0 47 1.7 47.3 1.1.1 2.4-.1 3.1-.6 1.3-.8 1.5-12.1 3.3-150.7.6-42.4 1.2-79.9 1.5-83.5.5-6.2-.5-15.3-2.1-19.4-.4-1.2 2.7.4 9.2 4.7 5.4 3.5 18.7 12.1 29.4 19s21.3 13.8 23.5 15.4c4.7 3.4 8.6 10 9.6 16.3.8 5.2-.1 48.2-3.6 166-1.4 46.5-2.9 107.2-3.5 135l-1 50.5-2.7 5.4c-2.2 4.3-3.9 6-8.1 8.4l-5.4 3-20.1-.1c-11.1-.1-25.1-.4-31.2-.7-39.1-1.8-145.8-2.7-264-2-118.7.6-131.4.5-135.4-.9-6.1-2.2-10.7-6-13.1-10.6-2.6-5.1-2.5-9 .3-11.6 6.9-6.6 49.1-88.6 63.2-122.9 2.1-5 4-9.4 4.2-9.9.3-.4 2.1 2 3.9 5.5 5.7 10.6 16.9 20 26.7 22.3 5.6 1.3 57 6.3 88.2 8.6 43.5 3.2 153.2 1.7 155.6-2.1 1.2-1.8 1.1-2.2-.3-4.2-1.2-1.6-2.6-1.6-17.3-.5-9.8.8-35.9 1.2-67 1.2-54.2 0-71.8-.9-121-5.9-30.4-3.1-36.9-4.1-42.2-6.5-5.8-2.5-13.5-10.6-17-17.7l-2.8-5.8V1048c0-29.3.7-55.6 4.5-176 .5-17.9 1.2-37.9 1.4-44.5.4-13.3 1.9-18.7 7.4-26.8 3.6-5.2 8-8.2 16-10.9 7-2.3 17.8-2 66.2 1.3zm-97.8 20.6c-1.8 3.6-2.2 9.5-3.7 67.8-.8 32.4-2 72.9-2.5 90-.5 17-1.2 45.8-1.6 64-.6 31.5-.8 33.3-3.1 40.5-7.1 21.4-43.5 96-60.7 124.5l-3.6 6v-13c0-11.6 2-66.7 3.5-94.5.8-15.8 4.4-103.6 5.5-136 .5-15.7 1.4-43.8 2.1-62.5.7-22.7 1.6-35.7 2.5-39.1 2.2-8.2 8.3-14 30.3-28.6 10.7-7.2 22.1-15 25.4-17.4 6.1-4.6 7.6-5 5.9-1.7zm-65.5 38.7c-3.5 5.3-4.5 12.8-5.2 37.1-1.1 43.9-5.7 169-8.5 232.3-3.2 71.5-3.6 94.6-1.7 101.3 2.1 7.2 8 13.9 15.5 17.6l5.7 2.8 151-.1c83.1-.1 164.7.2 181.5.6 16.8.4 50.1 1.1 74 1.5 50.9.9 50.6 1 59.6-8 7-7 8.4-11.7 8.5-29.4.1-7.5.5-15 1-16.6.5-1.8.7 4.8.5 16-.4 22.5-1.4 26.4-8.6 33.6-8.3 8.3-9.2 8.4-55.5 8.1-22-.2-58.4-.8-81-1.4-22.5-.6-106.5-1.3-186.5-1.7-139.1-.7-145.7-.8-150.5-2.6-6.7-2.5-14.6-10.5-16.8-16.9-2.2-6.3-2.2-19.9-.2-79.1.8-24.2 1.9-57.3 2.5-73.5.5-16.2 1.2-34.7 1.5-41 .3-6.3 1.2-32.7 2-58.5 3.4-105.8 3.5-108.4 5.1-113.3.9-2.6 2.7-6.2 4.1-8 2.8-3.7 4.3-4.4 2-.8z"/><path d="M432.2 855.8c-1 .7-1.6 12-2.8 49.3-.8 26.6-1.8 56.5-2.3 66.4-.6 13.9-.5 18.5.5 20.1 1.1 1.9 2.5 2.2 13.3 2.8 7.6.5 12.7.3 13.9-.3 2.5-1.3 3.2-7.2 3.2-27.7 0-8.9.3-17.5.6-19.1l.6-2.9 9.1.9c12.5 1.2 36.8.2 44-1.7 21-5.7 33.7-21.8 33.7-42.7 0-20.8-12.7-36.6-33.4-41.4-9.6-2.2-77.9-5.4-80.4-3.7zm52.8 27.7c18 .7 24.1 2.9 27.7 9.8 2 4 2.1 12.3 0 16.4-2.2 4.1-6.9 8-11.5 9.3-4 1.1-24.6 1.2-35.1.1l-6.5-.6.3-17.5c.1-9.6.5-17.8.7-18.2.3-.4 3.1-.6 6.2-.3 3.1.2 11.3.7 18.2 1zM659.5 1076.1c-.4.6-2.3 4.1-4.1 7.9-4.2 8.3-10 13.7-18.9 17.6-5.1 2.2-6.5 3.3-6.5 5 0 1.2.7 2.7 1.5 3.4 2.5 2.1 15.5-4.8 22.6-12l5.9-6.1 1.1 2.8c.6 1.5 2.2 5.9 3.6 9.8 4.5 12.4 21.1 49.2 35.4 78.3 12.3 24.9 14.2 28.3 16.1 28 4.9-.7 4.4-2.6-6.4-24.4-23.2-46.5-44.8-97.6-44.8-105.9 0-4.4-3.7-7.4-5.5-4.4zM328.3 1134.7c-7.7 10.3-20.8 28.2-29.3 39.8-8.4 11.5-18 24.5-21.2 28.7-3.5 4.7-5.5 8.3-5.2 9.2.7 1.7 3.9 3 5.3 2.2.5-.3 16.1-21.3 34.7-46.7 34.7-47.1 37-51 31.8-51.7-1.7-.2-4.8 3.3-16.1 18.5zM870.9 784.1c-9.3 2.1-13.7 4.8-49.9 30-15.1 10.5-29.8 20.2-41.4 27.1-5.1 3-10.7 10.2-13.3 16.8-1.4 3.8-1.7 9-2 33.5-.4 39.4-2.1 157.1-3.3 222.5-1.5 80.8-1.5 110.7-.1 115.9 2.6 9.1 9.9 17.3 19.6 21.8l6 2.8 35.5-.1c19.5 0 89-.4 154.4-.9 82.5-.5 139.4-.4 185.5.4 44.2.8 68.9.9 73.3.2 13.4-1.9 24.4-9.6 29.6-20.9l2.7-5.7-.1-28.5c0-15.7-.6-55.3-1.3-88-.7-32.7-1.4-101.8-1.6-153.5-.2-57-.7-95.2-1.3-97-3.1-9.8-9.7-17.7-18.4-22.1-4.4-2.3-14.2-8.6-42.3-27.4-2.7-1.8-10.2-7.1-16.5-11.6-22.5-16-26-17-56.9-15.5-62.9 3-81.7 3.4-133.1 2.8-29.4-.4-64.7-1.3-78.5-2.1-27.5-1.7-41.1-1.8-46.6-.5zm55.1 9.1c34.5 2 150.7 1.6 189.1-.5 32.3-1.8 36.9-1.6 45.4 2.2 8.7 3.8 17.2 14.1 18.8 22.6.3 1.6.9 41.5 1.2 88.5.8 127.7 1.4 162.3 2.8 163.2 1.7 1.1 2.3 1 3.8-.9 1.2-1.3 1.3-20.6 1.1-118.7-.2-64.4-.7-121.4-1.2-126.6-.5-5.2-.8-9.6-.6-9.7.2-.2 3.6 1.9 7.7 4.6 10.6 7 40.7 26.3 45.4 29.1 5.6 3.3 10.3 7.8 12.8 12.5l2.2 4V969c.1 58 .4 117.4.8 132 1.6 59.5 1.9 120.4.7 125.2-1.5 5.9-6.7 12-12.2 14.4-4.1 1.8-7.7 1.9-79.8 1.4-119.9-.8-231.2-.4-302.5 1-72.4 1.4-72.9 1.4-80.6-4.2-3.7-2.7-8.9-11.1-8.9-14.5 0-.6 2.2-4.7 4.9-9.1 14.6-23.5 55.4-106.2 62.7-127 1-2.8 2-5.2 2.3-5.2.4 0 1.7 2.6 3 5.8 3.2 7.3 12.7 16.9 20.6 20.7 6.3 2.9 15 4.2 48.5 6.9 40.1 3.3 58 4 106 4 36.3 0 55.4-.5 71.8-1.7 12.3-.9 22.7-1.9 23.3-2.2 1.4-.9 1.1-5.5-.5-6.1-.8-.3-7.2-.1-14.3.5-30.4 2.4-81.8 3.4-116 2.2-44.7-1.6-98.2-5.6-109.6-8.2-10.9-2.5-21.2-12.6-25.9-25.4-1.9-5.4-2.2-8-2.2-25-.1-25.8.5-117.3 1.3-183l.6-54 3.3-6.7c3.7-7.5 7.9-11.5 16-15.4 9.5-4.5 13.3-4.7 58.2-2.2zm-86.7 27.5c-1.2 5.6-1.5 26.7-1.6 117.8-.1 61 0 115.5.1 121 .4 11.6-1.1 17.7-10.3 39.4-11.1 26.3-54.4 112.1-56.6 112.1-.4 0-.6-13.2-.3-29.3 1.3-78.5 2.4-195.3 2.4-248.7 0-35.7.4-62.1 1-66 1.5-9.5 4.6-13.3 16.5-20.5 5.5-3.3 18.8-11.9 29.5-19.1 10.7-7.3 19.8-13.2 20.1-13.3.3 0-.1 2.9-.8 6.6z"/><path d="M948.6 862.3c-1.8 1.3-1.9 5-2.4 68.5-.4 53.3-.2 67.5.8 68.7 1 1.2 3.8 1.5 14.4 1.5 8.9 0 13.6-.4 14.4-1.2.9-.9 1.2-8.9 1.2-29.6v-28.5l5.3.7c2.8.3 16.1.6 29.5.6h24.2v28.5c0 27.1.1 28.5 1.9 29.5 3 1.6 25.3 1.3 27.6-.4 1.7-1.2 1.8-4.1 1.6-68.2-.2-40.4-.6-67.5-1.2-68.6-.9-1.6-2.5-1.8-13.9-1.8-7 0-13.5.3-14.4.6-1.4.5-1.6 3.9-1.6 27V916l-29.2-.2-29.3-.3-.5-26.5-.5-26.5-7-.6c-12.3-1.1-19-1-20.9.4zM1177.8 1083.7c-4.2 9-11.3 16-20 19.8-6.8 2.9-8.2 4.3-7.2 6.9 1.1 2.9 3.8 2.6 11.9-1.4 6.3-3 9.5-5.3 13.4-9.6 4.3-4.9 5.1-5.5 5.7-3.8 2.6 7.6 12.8 32.3 18.1 43.9 10.7 23.3 35.7 71.6 37.5 72.6 1.1.6 2.3.3 3.8-.9l2.2-1.8-7.6-14.2c-25.9-48.4-49.6-102.2-49.6-112.6 0-3.3-1.5-5.6-3.7-5.6-.7 0-2.7 3-4.5 6.7zM857.9 1129.2c-2.9 4-16.4 22.9-30.1 42-13.6 19.1-26.8 37.5-29.3 40.8-3.7 5.1-4.3 6.5-3.4 8.2 2 3.7 5 1.7 12.2-8.2 56.4-77.9 61.8-85.9 60.6-88.2-1.8-3.4-4.5-2-10 5.4z"/></svg>