M48
; DRILL file {KiCad 9.0.1} date 2025-06-09T17:50:29+0200
; FORMAT={-:-/ absolute / metric / decimal}
; #@! TF.CreationDate,2025-06-09T17:50:29+02:00
; #@! TF.GenerationSoftware,Kicad,Pcbnew,9.0.1
; #@! TF.FileFunction,NonPlated,1,2,NPTH
FMAT,2
METRIC
; #@! TA.AperFunction,NonPlated,NPTH,ComponentDrill
T1C1.702
; #@! TA.AperFunction,NonPlated,NPTH,ComponentDrill
T2C3.000
; #@! TA.AperFunction,NonPlated,NPTH,ComponentDrill
T3C3.429
%
G90
G05
T1
X161.917Y-134.536
X161.917Y-151.536
X172.917Y-134.536
X172.917Y-151.536
X179.917Y-146.536
X179.917Y-129.536
X179.917Y-163.536
X190.917Y-146.536
X190.917Y-129.536
X190.917Y-163.536
X197.917Y-119.536
X197.917Y-136.536
X197.917Y-153.536
X208.917Y-119.536
X208.917Y-136.536
X208.917Y-153.536
X215.917Y-129.536
X215.917Y-112.536
X215.917Y-146.536
X226.917Y-129.536
X226.917Y-112.536
X226.917Y-146.536
X227.917Y-170.536
X233.917Y-153.536
X233.917Y-119.536
X233.917Y-136.536
X238.917Y-170.536
X244.917Y-153.536
X244.917Y-119.536
X244.917Y-136.536
X249.328Y-172.01
X251.917Y-136.536
X251.917Y-119.536
X251.917Y-153.536
X259.953Y-174.857
X262.917Y-136.536
X262.917Y-119.536
X262.917Y-153.536
X268.904Y-178.676
X278.43Y-184.176
T2
X162.417Y-130.786
X162.417Y-147.786
X167.417Y-128.586
X167.417Y-128.586
X167.417Y-145.586
X167.417Y-145.586
X172.417Y-130.786
X172.417Y-147.786
X180.417Y-142.786
X180.417Y-125.786
X180.417Y-159.786
X185.417Y-140.586
X185.417Y-140.586
X185.417Y-123.586
X185.417Y-123.586
X185.417Y-157.586
X185.417Y-157.586
X190.417Y-142.786
X190.417Y-125.786
X190.417Y-159.786
X198.417Y-115.786
X198.417Y-132.786
X198.417Y-149.786
X203.417Y-113.586
X203.417Y-113.586
X203.417Y-130.586
X203.417Y-130.586
X203.417Y-147.586
X203.417Y-147.586
X208.417Y-115.786
X208.417Y-132.786
X208.417Y-149.786
X216.417Y-125.786
X216.417Y-108.786
X216.417Y-142.786
X221.417Y-123.586
X221.417Y-123.586
X221.417Y-106.586
X221.417Y-106.586
X221.417Y-140.586
X221.417Y-140.586
X226.417Y-125.786
X226.417Y-108.786
X226.417Y-142.786
X228.417Y-166.786
X233.417Y-164.586
X233.417Y-164.586
X234.417Y-149.786
X234.417Y-115.786
X234.417Y-132.786
X238.417Y-166.786
X239.417Y-147.586
X239.417Y-147.586
X239.417Y-113.586
X239.417Y-113.586
X239.417Y-130.586
X239.417Y-130.586
X244.417Y-149.786
X244.417Y-115.786
X244.417Y-132.786
X250.781Y-168.517
X252.417Y-132.786
X252.417Y-115.786
X252.417Y-149.786
X256.18Y-167.686
X256.18Y-167.686
X257.417Y-130.586
X257.417Y-130.586
X257.417Y-113.586
X257.417Y-113.586
X257.417Y-147.586
X257.417Y-147.586
X260.44Y-171.106
X262.417Y-132.786
X262.417Y-115.786
X262.417Y-149.786
X271.212Y-175.678
X276.642Y-176.273
X276.642Y-176.273
X279.872Y-180.678
T3
X167.417Y-134.536
X167.417Y-151.536
X185.417Y-146.536
X185.417Y-129.536
X185.417Y-163.536
X203.417Y-119.536
X203.417Y-136.536
X203.417Y-153.536
X221.417Y-129.536
X221.417Y-112.536
X221.417Y-146.536
X233.417Y-170.536
X239.417Y-153.536
X239.417Y-119.536
X239.417Y-136.536
X254.64Y-173.434
X257.417Y-136.536
X257.417Y-119.536
X257.417Y-153.536
X273.667Y-181.426
M30
