M48
; DRILL file {KiCad 9.0.1} date 2025-06-09T17:50:29+0200
; FORMAT={-:-/ absolute / metric / decimal}
; #@! TF.CreationDate,2025-06-09T17:50:29+02:00
; #@! TF.GenerationSoftware,Kicad,Pcbnew,9.0.1
; #@! TF.FileFunction,Plated,1,2,PTH
FMAT,2
METRIC
; #@! TA.AperFunction,Plated,PTH,ComponentDrill
T1C0.300
; #@! TA.AperFunction,Plated,PTH,ViaDrill
T2C0.400
; #@! TA.AperFunction,Plated,PTH,ComponentDrill
T3C1.000
; #@! TA.AperFunction,Plated,PTH,ComponentDrill
T4C1.016
; #@! TA.AperFunction,Plated,PTH,ComponentDrill
T5C3.600
%
G90
G05
T1
X165.317Y-139.536
X165.317Y-156.536
X169.517Y-139.536
X169.517Y-156.536
X183.317Y-168.536
X183.317Y-134.536
X183.317Y-151.536
X187.517Y-168.536
X187.517Y-134.536
X187.517Y-151.536
X201.317Y-124.536
X201.317Y-141.536
X201.317Y-158.536
X205.517Y-124.536
X205.517Y-141.536
X205.517Y-158.536
X219.317Y-151.536
X219.317Y-117.536
X219.317Y-134.536
X223.517Y-151.536
X223.517Y-117.536
X223.517Y-134.536
X231.317Y-175.536
X235.517Y-175.536
X237.317Y-158.536
X237.317Y-124.536
X237.317Y-141.536
X241.517Y-158.536
X241.517Y-124.536
X241.517Y-141.536
X251.318Y-177.72
X255.317Y-158.536
X255.317Y-124.536
X255.317Y-141.536
X255.375Y-178.807
X259.517Y-158.536
X259.517Y-124.536
X259.517Y-141.536
X269.348Y-184.706
X272.986Y-186.806
T2
X164.417Y-152.036
X167.502Y-143.438
X170.417Y-126.71
X182.417Y-164.036
X183.917Y-148.536
X184.417Y-132.036
X185.417Y-121.436
X185.417Y-138.436
X185.417Y-155.436
X200.917Y-155.036
X201.917Y-138.536
X202.843Y-121.83
X203.417Y-128.436
X203.417Y-111.436
X203.417Y-145.436
X221.417Y-104.436
X221.417Y-121.436
X221.417Y-138.436
X227.588Y-147.878
X233.417Y-162.436
X239.417Y-111.436
X239.417Y-128.436
X239.417Y-145.436
X245.917Y-155.036
X252.944Y-175.081
X253.5Y-122.5
X254.917Y-154.536
X255.018Y-122.5
X256.417Y-139.036
X256.917Y-122.036
X257.056Y-165.723
X257.417Y-111.436
X257.417Y-128.436
X257.417Y-145.436
X262.0Y-125.5
X262.0Y-126.5
X263.0Y-130.5
X263.917Y-155.036
X268.847Y-129.153
X276.5Y-143.5
X277.401Y-122.061
X277.417Y-125.086
X277.417Y-124.061
X277.417Y-114.036
X277.417Y-121.061
X277.417Y-126.536
X277.417Y-111.536
X277.417Y-112.536
X277.417Y-116.536
X277.417Y-119.036
X277.417Y-120.036
X277.417Y-127.561
X277.417Y-135.536
X277.417Y-137.536
X277.418Y-115.048
X277.419Y-117.558
X277.422Y-123.061
X277.518Y-174.31
X278.0Y-140.0
X280.013Y-139.013
X280.775Y-137.5
X282.225Y-137.5
T3
X273.5Y-148.5
X276.04Y-148.5
X278.58Y-148.5
X281.12Y-148.5
T4
X272.972Y-119.219
X281.862Y-119.219
T5
X176.717Y-138.036
X176.717Y-155.036
X212.717Y-121.036
X227.417Y-158.536
X248.417Y-128.036
X268.417Y-166.536
M30
