%TF.GenerationSoftware,KiCad,Pcbnew,9.0.1*%
%TF.CreationDate,2025-06-09T17:49:50+02:00*%
%TF.ProjectId,pcb,7063622e-6b69-4636-9164-5f7063625858,v1.0.0*%
%TF.SameCoordinates,Original*%
%TF.FileFunction,Copper,L2,Bot*%
%TF.FilePolarity,Positive*%
%FSLAX46Y46*%
G04 Gerber Fmt 4.6, Leading zero omitted, Abs format (unit mm)*
G04 Created by KiCad (PCBNEW 9.0.1) date 2025-06-09 17:49:50*
%MOMM*%
%LPD*%
G01*
G04 APERTURE LIST*
G04 Aperture macros list*
%AMRotRect*
0 Rectangle, with rotation*
0 The origin of the aperture is its center*
0 $1 length*
0 $2 width*
0 $3 Rotation angle, in degrees counterclockwise*
0 Add horizontal line*
21,1,$1,$2,0,0,$3*%
%AMFreePoly0*
4,1,6,1.000000,0.000000,0.500000,-0.750000,-0.500000,-0.750000,-0.500000,0.750000,0.500000,0.750000,1.000000,0.000000,1.000000,0.000000,$1*%
%AMFreePoly1*
4,1,6,0.500000,-0.750000,-0.650000,-0.750000,-0.150000,0.000000,-0.650000,0.750000,0.500000,0.750000,0.500000,-0.750000,0.500000,-0.750000,$1*%
G04 Aperture macros list end*
%TA.AperFunction,NonConductor*%
%ADD10C,0.100000*%
%TD*%
%TA.AperFunction,ComponentPad*%
%ADD11C,1.700000*%
%TD*%
%TA.AperFunction,SMDPad,CuDef*%
%ADD12FreePoly0,90.000000*%
%TD*%
%TA.AperFunction,SMDPad,CuDef*%
%ADD13FreePoly1,90.000000*%
%TD*%
%TA.AperFunction,SMDPad,CuDef*%
%ADD14R,2.600000X2.600000*%
%TD*%
%TA.AperFunction,SMDPad,CuDef*%
%ADD15RotRect,2.600000X2.600000X330.000000*%
%TD*%
%TA.AperFunction,ComponentPad*%
%ADD16C,5.200000*%
%TD*%
%TA.AperFunction,SMDPad,CuDef*%
%ADD17R,1.250000X2.500000*%
%TD*%
%TA.AperFunction,SMDPad,CuDef*%
%ADD18O,2.750000X1.800000*%
%TD*%
%TA.AperFunction,CastellatedPad*%
%ADD19C,1.397000*%
%TD*%
%TA.AperFunction,SMDPad,CuDef*%
%ADD20RotRect,2.600000X2.600000X345.000000*%
%TD*%
%TA.AperFunction,ComponentPad*%
%ADD21C,0.600000*%
%TD*%
%TA.AperFunction,SMDPad,CuDef*%
%ADD22R,0.900000X1.200000*%
%TD*%
%TA.AperFunction,SMDPad,CuDef*%
%ADD23RotRect,0.900000X1.200000X330.000000*%
%TD*%
%TA.AperFunction,SMDPad,CuDef*%
%ADD24RotRect,0.900000X1.200000X345.000000*%
%TD*%
%TA.AperFunction,ViaPad*%
%ADD25C,0.800000*%
%TD*%
%TA.AperFunction,Conductor*%
%ADD26C,0.250000*%
%TD*%
G04 APERTURE END LIST*
D10*
X206192106Y-163982865D02*
X206302153Y-163982865D01*
X206412180Y-163982865D01*
X206522060Y-163982865D01*
X206610726Y-164004138D01*
X206610726Y-164114219D01*
X206610726Y-164224308D01*
X206610726Y-164334304D01*
X206610727Y-164444140D01*
X206610726Y-164554283D01*
X206610727Y-164664181D01*
X206610727Y-164774321D01*
X206610727Y-164884285D01*
X206610727Y-164994207D01*
X206610727Y-165104238D01*
X206610727Y-165214322D01*
X206610727Y-165324136D01*
X206567407Y-165390725D01*
X206457392Y-165390371D01*
X206347420Y-165390019D01*
X206237345Y-165389664D01*
X206127417Y-165389310D01*
X206017383Y-165388957D01*
X205907302Y-165388572D01*
X205797426Y-165388043D01*
X205687323Y-165387512D01*
X205577351Y-165386984D01*
X205467282Y-165386453D01*
X205357285Y-165385924D01*
X205247360Y-165385395D01*
X205241227Y-165281428D01*
X205241226Y-165171550D01*
X205241227Y-165061437D01*
X205241227Y-164951398D01*
X205241226Y-164841456D01*
X205241227Y-164731609D01*
X205241240Y-164621505D01*
X205241316Y-164511501D01*
X205241470Y-164401406D01*
X205241727Y-164291485D01*
X205242138Y-164181402D01*
X205242852Y-164071597D01*
X205422022Y-163985360D01*
X205532062Y-163984268D01*
X205642059Y-163983560D01*
X205752060Y-163983120D01*
X205862082Y-163982900D01*
X205972163Y-163982865D01*
X206081998Y-163982864D01*
X206192106Y-163982865D01*
X207483806Y-164038784D02*
X207563113Y-164115048D01*
X207641617Y-164192075D01*
X207720141Y-164269051D01*
X207798792Y-164345911D01*
X207877592Y-164422803D01*
X207956343Y-164499567D01*
X208035071Y-164576237D01*
X208113920Y-164652960D01*
X208192911Y-164729757D01*
X208271730Y-164806318D01*
X208350718Y-164882961D01*
X208429749Y-164959548D01*
X208508687Y-165035909D01*
X208587844Y-165112272D01*
X208667343Y-165188521D01*
X208746597Y-165264770D01*
X208766727Y-165366201D01*
X208766727Y-165476102D01*
X208766727Y-165586083D01*
X208766727Y-165696265D01*
X208766727Y-165806102D01*
X208766726Y-165916223D01*
X208766727Y-166026237D01*
X208766727Y-166136178D01*
X208766728Y-166246166D01*
X208766727Y-166356184D01*
X208766727Y-166466155D01*
X208766726Y-166576280D01*
X208766727Y-166686111D01*
X208766728Y-166796197D01*
X208766726Y-166906270D01*
X208766726Y-167016200D01*
X208766727Y-167126146D01*
X208766726Y-167236265D01*
X208766726Y-167346162D01*
X208766727Y-167456146D01*
X208766727Y-167566161D01*
X208810238Y-167632723D01*
X208920341Y-167632869D01*
X209030229Y-167633015D01*
X209140289Y-167633161D01*
X209250349Y-167633307D01*
X209360162Y-167633452D01*
X209470349Y-167633598D01*
X209580299Y-167633745D01*
X209690321Y-167634017D01*
X209800300Y-167634311D01*
X209910263Y-167634602D01*
X210020287Y-167634896D01*
X210130296Y-167635189D01*
X210240183Y-167635481D01*
X210350265Y-167635774D01*
X210449773Y-167662217D01*
X210529371Y-167737989D01*
X210611097Y-167811817D01*
X210695547Y-167882018D01*
X210783196Y-167948813D01*
X210873501Y-168011578D01*
X210966517Y-168070153D01*
X211062292Y-168124322D01*
X211160535Y-168173646D01*
X211261159Y-168217792D01*
X211364271Y-168256450D01*
X211468835Y-168290241D01*
X211574795Y-168320393D01*
X211681939Y-168344745D01*
X211790418Y-168362332D01*
X211899830Y-168373931D01*
X212009547Y-168381260D01*
X212119589Y-168385923D01*
X212229448Y-168388988D01*
X212339579Y-168391162D01*
X212449554Y-168393150D01*
X212559424Y-168395135D01*
X212669395Y-168397122D01*
X212671727Y-168504943D01*
X212671726Y-168614876D01*
X212671727Y-168724970D01*
X212671727Y-168834892D01*
X212671728Y-168944870D01*
X212671726Y-169054921D01*
X212671727Y-169164853D01*
X212671727Y-169274768D01*
X212671726Y-169384881D01*
X212671726Y-169494849D01*
X212671727Y-169604829D01*
X212671727Y-169714817D01*
X212671727Y-169824921D01*
X212671727Y-169934835D01*
X212671726Y-170044944D01*
X212671727Y-170154858D01*
X212671727Y-170264849D01*
X212671727Y-170374868D01*
X212671726Y-170484854D01*
X212671727Y-170594886D01*
X212671727Y-170704843D01*
X212671727Y-170814858D01*
X212671727Y-170924974D01*
X212671726Y-171034817D01*
X212671727Y-171144873D01*
X212671726Y-171254918D01*
X212671727Y-171364889D01*
X212671726Y-171474876D01*
X212671727Y-171584794D01*
X212671726Y-171694954D01*
X212671726Y-171804866D01*
X212671726Y-171914923D01*
X212604632Y-171957865D01*
X212494672Y-171957865D01*
X212384791Y-171957865D01*
X212274696Y-171957864D01*
X212164792Y-171957865D01*
X212054617Y-171957865D01*
X211944728Y-171957864D01*
X211834702Y-171957865D01*
X211724673Y-171957865D01*
X211614812Y-171957865D01*
X211504727Y-171957865D01*
X211394612Y-171957865D01*
X211318727Y-171923865D01*
X211318727Y-171813845D01*
X211318727Y-171703800D01*
X211318727Y-171593862D01*
X211318727Y-171483742D01*
X211318727Y-171373876D01*
X211318726Y-171263930D01*
X211318726Y-171153860D01*
X211318727Y-171043925D01*
X211318726Y-170933738D01*
X211318726Y-170823920D01*
X211318726Y-170713908D01*
X211318726Y-170603809D01*
X211318726Y-170493936D01*
X211318727Y-170383771D01*
X211318727Y-170273870D01*
X211318726Y-170163744D01*
X211318727Y-170053759D01*
X211318727Y-169943852D01*
X211318726Y-169833865D01*
X211318727Y-169723883D01*
X211318726Y-169613885D01*
X211318728Y-169503794D01*
X211318727Y-169393769D01*
X211318727Y-169283765D01*
X211318727Y-169173866D01*
X211318727Y-169063800D01*
X211251779Y-169020864D01*
X211141680Y-169020864D01*
X211031713Y-169020865D01*
X210921728Y-169020866D01*
X210811674Y-169020865D01*
X210701773Y-169020865D01*
X210591694Y-169020865D01*
X210481782Y-169020865D01*
X210371630Y-169020865D01*
X210261617Y-169020864D01*
X210151720Y-169020865D01*
X210041676Y-169020864D01*
X209931637Y-169020865D01*
X209821761Y-169020865D01*
X209711785Y-169020865D01*
X209601685Y-169020864D01*
X209491628Y-169020864D01*
X209381648Y-169020865D01*
X209271682Y-169020865D01*
X209161629Y-169020864D01*
X209051738Y-169020864D01*
X208941634Y-169020865D01*
X208831728Y-169020865D01*
X208766727Y-169065823D01*
X208766727Y-169175923D01*
X208766726Y-169286033D01*
X208766726Y-169395820D01*
X208766726Y-169505852D01*
X208766726Y-169615874D01*
X208766727Y-169725984D01*
X208766727Y-169835936D01*
X208766727Y-169945867D01*
X208766727Y-170055825D01*
X208766727Y-170165848D01*
X208766727Y-170276002D01*
X208766726Y-170385918D01*
X208766726Y-170495952D01*
X208766727Y-170605954D01*
X208766728Y-170716038D01*
X208766727Y-170826019D01*
X208766728Y-170935927D01*
X208766727Y-171045934D01*
X208766726Y-171155922D01*
X208766727Y-171266021D01*
X208766726Y-171375852D01*
X208766727Y-171485985D01*
X208766726Y-171595891D01*
X208766726Y-171705870D01*
X208766726Y-171815960D01*
X208766726Y-171925882D01*
X208688741Y-171957865D01*
X208578679Y-171957865D01*
X208468656Y-171957865D01*
X208358636Y-171957864D01*
X208248626Y-171957865D01*
X208138623Y-171957865D01*
X208028588Y-171957865D01*
X207918640Y-171957865D01*
X207808740Y-171957865D01*
X207698695Y-171957865D01*
X207588635Y-171957864D01*
X207478738Y-171957865D01*
X207402727Y-171923788D01*
X207402727Y-171813797D01*
X207402726Y-171703845D01*
X207402727Y-171593714D01*
X207402726Y-171483758D01*
X207402726Y-171373882D01*
X207402727Y-171263857D01*
X207402727Y-171153804D01*
X207402726Y-171043728D01*
X207402728Y-170933824D01*
X207402727Y-170823666D01*
X207402727Y-170713781D01*
X207402726Y-170603730D01*
X207402727Y-170493820D01*
X207402727Y-170383770D01*
X207402727Y-170273775D01*
X207402726Y-170163816D01*
X207402726Y-170053666D01*
X207402727Y-169943811D01*
X207402726Y-169833821D01*
X207402727Y-169723808D01*
X207402726Y-169613722D01*
X207402727Y-169503702D01*
X207402727Y-169393740D01*
X207402727Y-169283691D01*
X207402727Y-169173814D01*
X207402727Y-169063759D01*
X207402727Y-168953796D01*
X207402726Y-168843686D01*
X207402726Y-168733868D01*
X207402727Y-168623869D01*
X207402727Y-168513757D01*
X207402726Y-168403826D01*
X207402727Y-168293804D01*
X207402727Y-168183837D01*
X207402727Y-168073713D01*
X207402727Y-167963811D01*
X207402727Y-167824720D01*
X207402727Y-167714740D01*
X207402727Y-167604798D01*
X207402727Y-167494713D01*
X207402727Y-167384749D01*
X207402728Y-167274787D01*
X207402727Y-167164719D01*
X207402727Y-167054726D01*
X207402726Y-166944699D01*
X207402726Y-166834709D01*
X207402727Y-166724631D01*
X207402727Y-166614701D01*
X207402727Y-166504721D01*
X207402727Y-166394760D01*
X207402727Y-166284657D01*
X207402727Y-166174757D01*
X207402726Y-166064654D01*
X207402727Y-165954652D01*
X207402727Y-165844684D01*
X207402727Y-165734685D01*
X207402727Y-165624777D01*
X207402726Y-165514742D01*
X207402726Y-165404750D01*
X207402728Y-165294830D01*
X207402727Y-165184721D01*
X207402727Y-165074757D01*
X207402727Y-164964694D01*
X207402727Y-164854773D01*
X207402727Y-164744797D01*
X207402726Y-164634610D01*
X207402727Y-164524663D01*
X207402726Y-164414784D01*
X207402727Y-164304766D01*
X207402726Y-164194722D01*
X207402726Y-164084632D01*
X207402727Y-163974628D01*
X207483806Y-164038784D01*
X206324885Y-166105865D02*
X206434842Y-166105865D01*
X206544904Y-166105865D01*
X206610727Y-166150019D01*
X206610727Y-166259945D01*
X206610727Y-166369879D01*
X206610727Y-166479998D01*
X206610726Y-166590049D01*
X206610727Y-166700039D01*
X206610726Y-166809934D01*
X206610726Y-166919944D01*
X206610727Y-167029903D01*
X206610727Y-167140084D01*
X206610726Y-167250040D01*
X206610727Y-167359919D01*
X206610727Y-167470052D01*
X206610726Y-167579974D01*
X206610727Y-167689983D01*
X206610727Y-167799979D01*
X206610727Y-167909907D01*
X206610727Y-168020004D01*
X206610727Y-168130035D01*
X206610726Y-168240044D01*
X206610727Y-168350096D01*
X206610727Y-168460012D01*
X206610726Y-168570017D01*
X206610726Y-168680089D01*
X206610727Y-168789944D01*
X206610727Y-168900106D01*
X206610726Y-169009900D01*
X206610726Y-169119987D01*
X206610726Y-169229964D01*
X206610727Y-169339958D01*
X206610727Y-169450093D01*
X206610727Y-169559956D01*
X206610726Y-169669923D01*
X206610727Y-169780095D01*
X206610727Y-169890037D01*
X206610727Y-170000079D01*
X206610727Y-170110021D01*
X206610727Y-170220017D01*
X206610727Y-170329943D01*
X206610727Y-170440004D01*
X206610727Y-170550114D01*
X206610727Y-170660023D01*
X206610726Y-170770101D01*
X206610726Y-170880043D01*
X206610727Y-170990091D01*
X206610726Y-171100078D01*
X206610727Y-171210017D01*
X206610727Y-171320109D01*
X206610727Y-171429998D01*
X206610727Y-171539938D01*
X206610727Y-171649938D01*
X206610726Y-171760015D01*
X206610727Y-171870023D01*
X206588554Y-171957864D01*
X206478624Y-171957865D01*
X206368664Y-171957865D01*
X206258579Y-171957866D01*
X206148677Y-171957865D01*
X206038594Y-171957864D01*
X205928471Y-171957864D01*
X205818590Y-171957865D01*
X205708683Y-171957864D01*
X205598657Y-171957865D01*
X205488629Y-171957865D01*
X205378645Y-171957865D01*
X205268642Y-171957865D01*
X205234712Y-171881853D01*
X205234838Y-171771775D01*
X205234961Y-171661880D01*
X205235084Y-171551787D01*
X205235209Y-171441910D01*
X205235332Y-171331736D01*
X205235457Y-171221873D01*
X205235581Y-171111790D01*
X205235705Y-171001807D01*
X205235828Y-170891810D01*
X205235953Y-170781713D01*
X205236077Y-170671818D01*
X205236201Y-170561815D01*
X205236326Y-170451741D01*
X205236450Y-170341885D01*
X205236573Y-170231744D01*
X205236698Y-170121789D01*
X205236822Y-170011775D01*
X205236946Y-169901839D01*
X205237069Y-169791808D01*
X205237193Y-169681693D01*
X205237318Y-169571734D01*
X205237441Y-169461838D01*
X205237565Y-169351792D01*
X205237690Y-169241707D01*
X205237813Y-169131738D01*
X205238107Y-168872212D01*
X205238231Y-168762164D01*
X205238355Y-168652341D01*
X205238478Y-168542324D01*
X205238603Y-168432242D01*
X205238727Y-168322162D01*
X205238851Y-168212190D01*
X205238975Y-168102291D01*
X205239099Y-167992286D01*
X205239224Y-167882256D01*
X205239347Y-167772271D01*
X205239471Y-167662299D01*
X205239596Y-167552257D01*
X205239720Y-167442297D01*
X205239844Y-167332181D01*
X205239968Y-167222234D01*
X205240092Y-167112316D01*
X205240216Y-167002275D01*
X205240340Y-166892264D01*
X205240463Y-166782201D01*
X205240587Y-166672194D01*
X205240712Y-166562249D01*
X205240835Y-166452283D01*
X205240960Y-166342215D01*
X205241084Y-166232295D01*
X205241207Y-166122320D01*
X205334819Y-166105865D01*
X205444776Y-166105865D01*
X205554774Y-166105864D01*
X205664933Y-166105865D01*
X205774878Y-166105865D01*
X205884874Y-166105865D01*
X205994832Y-166105865D01*
X206104909Y-166105865D01*
X206214841Y-166105864D01*
X206324885Y-166105865D01*
X216169727Y-164011324D02*
X216169728Y-164121366D01*
X216169727Y-164231393D01*
X216169727Y-164341269D01*
X216169726Y-164451309D01*
X216169726Y-164561374D01*
X216169728Y-164671464D01*
X216169727Y-164781382D01*
X216169727Y-164891374D01*
X216169726Y-165001403D01*
X216169727Y-165111398D01*
X216169726Y-165221317D01*
X216169726Y-165331430D01*
X216169726Y-165441428D01*
X216169727Y-165551408D01*
X216169727Y-165661351D01*
X216169726Y-165771455D01*
X216169727Y-165881402D01*
X216169727Y-165991433D01*
X216169727Y-166101433D01*
X216169727Y-166211287D01*
X216169725Y-166321415D01*
X216169726Y-166431314D01*
X216169726Y-166541351D01*
X216169727Y-166651495D01*
X216169726Y-166761316D01*
X216169727Y-166871345D01*
X216169726Y-166981316D01*
X216169726Y-167091474D01*
X216169727Y-167201385D01*
X216169727Y-167311393D01*
X216169727Y-167421340D01*
X216169726Y-167531380D01*
X216169727Y-167641374D01*
X216169727Y-167751323D01*
X216169727Y-167861470D01*
X216169726Y-167971389D01*
X216169724Y-168081402D01*
X216169714Y-168191460D01*
X216169699Y-168301395D01*
X216169676Y-168411362D01*
X216169648Y-168521302D01*
X216169612Y-168631350D01*
X216169569Y-168741432D01*
X216169518Y-168851472D01*
X216169461Y-168961388D01*
X216169394Y-169071484D01*
X216169321Y-169181470D01*
X216169239Y-169291430D01*
X216169148Y-169401445D01*
X216169049Y-169511385D01*
X216168939Y-169621303D01*
X216168822Y-169731405D01*
X216168692Y-169841346D01*
X216168552Y-169951295D01*
X216168401Y-170061381D01*
X216168235Y-170171374D01*
X216168058Y-170281342D01*
X216167867Y-170391309D01*
X216167660Y-170501390D01*
X216167436Y-170611350D01*
X216167194Y-170721446D01*
X216166932Y-170831419D01*
X216166647Y-170941304D01*
X216166335Y-171051445D01*
X216165992Y-171161452D01*
X216165614Y-171271450D01*
X216165191Y-171381475D01*
X216164711Y-171491399D01*
X216164157Y-171601390D01*
X216163489Y-171711411D01*
X216162625Y-171821443D01*
X216161233Y-171931383D01*
X216105131Y-171916014D01*
X216025811Y-171839842D01*
X215946636Y-171763258D01*
X215867700Y-171686632D01*
X215788965Y-171610020D01*
X215710067Y-171533106D01*
X215631502Y-171456401D01*
X215552834Y-171379488D01*
X215474146Y-171302453D01*
X215395618Y-171225479D01*
X215317167Y-171148479D01*
X215238695Y-171071351D01*
X215160342Y-170994226D01*
X215081938Y-170916919D01*
X215003553Y-170839660D01*
X214925231Y-170762588D01*
X214846833Y-170685442D01*
X214838647Y-170578716D01*
X214838558Y-170468693D01*
X214838469Y-170358674D01*
X214838379Y-170248836D01*
X214838291Y-170138831D01*
X214838202Y-170028787D01*
X214838113Y-169918742D01*
X214838024Y-169808800D01*
X214837935Y-169698809D01*
X214837846Y-169588794D01*
X214837757Y-169478839D01*
X214837667Y-169368672D01*
X214837579Y-169258708D01*
X214837490Y-169148845D01*
X214837400Y-169038754D01*
X214837312Y-168928672D01*
X214837222Y-168818689D01*
X214837134Y-168708842D01*
X214837043Y-168598786D01*
X214836955Y-168488684D01*
X214836867Y-168378854D01*
X214836777Y-168268849D01*
X214836687Y-168158681D01*
X214836599Y-168048835D01*
X214836502Y-167938672D01*
X214836367Y-167828775D01*
X214836235Y-167718845D01*
X214836100Y-167608688D01*
X214835968Y-167498847D01*
X214835833Y-167388758D01*
X214835699Y-167278790D01*
X214835567Y-167168705D01*
X214835433Y-167058653D01*
X214835300Y-166948741D01*
X214835166Y-166838815D01*
X214835032Y-166728802D01*
X214834899Y-166618773D01*
X214834765Y-166508642D01*
X214834631Y-166398804D01*
X214834498Y-166288700D01*
X214834364Y-166178829D01*
X214834231Y-166068851D01*
X214834096Y-165958668D01*
X214833963Y-165848731D01*
X214833830Y-165738729D01*
X214833696Y-165628759D01*
X214833563Y-165518783D01*
X214833429Y-165408744D01*
X214833295Y-165298800D01*
X214779546Y-165242235D01*
X214669545Y-165241969D01*
X214559661Y-165241703D01*
X214449647Y-165241436D01*
X214339586Y-165241170D01*
X214229496Y-165240905D01*
X214119518Y-165240637D01*
X214009540Y-165240372D01*
X213899635Y-165240105D01*
X213789672Y-165239840D01*
X213679549Y-165239574D01*
X213569525Y-165239307D01*
X213459555Y-165239050D01*
X213349663Y-165238888D01*
X213239606Y-165238723D01*
X213129617Y-165238568D01*
X213019642Y-165238432D01*
X212909674Y-165238338D01*
X212799576Y-165238312D01*
X212689523Y-165238393D01*
X212579646Y-165238646D01*
X212469710Y-165239180D01*
X212359586Y-165240184D01*
X212249633Y-165242029D01*
X212139704Y-165245571D01*
X212029943Y-165253340D01*
X211922547Y-165275365D01*
X211822502Y-165321052D01*
X211728702Y-165378264D01*
X211644597Y-165448934D01*
X211572461Y-165531984D01*
X211512302Y-165623878D01*
X211468241Y-165724605D01*
X211440014Y-165830725D01*
X211425528Y-165939839D01*
X211425529Y-166049785D01*
X211441422Y-166158506D01*
X211469768Y-166264595D01*
X211513194Y-166365564D01*
X211572827Y-166458004D01*
X211646025Y-166539819D01*
X211729878Y-166610862D01*
X211823859Y-166667742D01*
X211925927Y-166708599D01*
X212032879Y-166734059D01*
X212142221Y-166745823D01*
X212252147Y-166748702D01*
X212362119Y-166750399D01*
X212472128Y-166751615D01*
X212582198Y-166752538D01*
X212692155Y-166753251D01*
X212802056Y-166753801D01*
X212912127Y-166754219D01*
X213022113Y-166754521D01*
X213132187Y-166754725D01*
X213242156Y-166754835D01*
X213351983Y-166754865D01*
X213462094Y-166754865D01*
X213572147Y-166754864D01*
X213682092Y-166754865D01*
X213792167Y-166754865D01*
X213902059Y-166754865D01*
X214012082Y-166754865D01*
X214122147Y-166754865D01*
X214232096Y-166754865D01*
X214342103Y-166754866D01*
X214442727Y-166764246D01*
X214442727Y-166874215D01*
X214442726Y-166984340D01*
X214442726Y-167094306D01*
X214442728Y-167204218D01*
X214442727Y-167314279D01*
X214442727Y-167424214D01*
X214442726Y-167534346D01*
X214442727Y-167644196D01*
X214442727Y-167754275D01*
X214442726Y-167864148D01*
X214442727Y-167974258D01*
X214368448Y-168009703D01*
X214258491Y-168009314D01*
X214148420Y-168008925D01*
X214038445Y-168008536D01*
X213928393Y-168008148D01*
X213818530Y-168007758D01*
X213708489Y-168007370D01*
X213598370Y-168006981D01*
X213488489Y-168006593D01*
X213378423Y-168006203D01*
X213268494Y-168005815D01*
X213158511Y-168005473D01*
X213048357Y-168005215D01*
X212938362Y-168004951D01*
X212828450Y-168004669D01*
X212718434Y-168004344D01*
X212608520Y-168003944D01*
X212498515Y-168003417D01*
X212388497Y-168002686D01*
X212278542Y-168001614D01*
X212168532Y-167999960D01*
X212058521Y-167997258D01*
X211948570Y-167992488D01*
X211838972Y-167983170D01*
X211730843Y-167964107D01*
X211624844Y-167934339D01*
X211520048Y-167901254D01*
X211416820Y-167862993D01*
X211316015Y-167819136D01*
X211217914Y-167769442D01*
X211122888Y-167713900D01*
X211031390Y-167652812D01*
X210943684Y-167586647D01*
X210859606Y-167515772D01*
X210779011Y-167440690D01*
X210702142Y-167362225D01*
X210628984Y-167280082D01*
X210560093Y-167194383D01*
X210495903Y-167105040D01*
X210436936Y-167012234D01*
X210383496Y-166916044D01*
X210335908Y-166816871D01*
X210294281Y-166715054D01*
X210258591Y-166611010D01*
X210228666Y-166505098D01*
X210204281Y-166397916D01*
X210185040Y-166289667D01*
X210170924Y-166180690D01*
X210164301Y-166070695D01*
X210164233Y-165960899D01*
X210169662Y-165851044D01*
X210180079Y-165741466D01*
X210195314Y-165632452D01*
X210215488Y-165524336D01*
X210241100Y-165417346D01*
X210273101Y-165312121D01*
X210313664Y-165210060D01*
X210360609Y-165110651D01*
X210411520Y-165012951D01*
X210465817Y-164917393D01*
X210524642Y-164824568D01*
X210590060Y-164736110D01*
X210660477Y-164651535D01*
X210735426Y-164571207D01*
X210814992Y-164495019D01*
X210898539Y-164423563D01*
X210985991Y-164356864D01*
X211076954Y-164295196D01*
X211171368Y-164238604D01*
X211268652Y-164187434D01*
X211368729Y-164141721D01*
X211471172Y-164101673D01*
X211575734Y-164067400D01*
X211681965Y-164039060D01*
X211789613Y-164016724D01*
X211898327Y-164000476D01*
X212018282Y-163993750D01*
X212128231Y-163991191D01*
X212238166Y-163989602D01*
X212348235Y-163988484D01*
X212458321Y-163987649D01*
X212568279Y-163987000D01*
X212678217Y-163986479D01*
X212788265Y-163986053D01*
X212898165Y-163985699D01*
X213008266Y-163985401D01*
X213118227Y-163985148D01*
X213228196Y-163984931D01*
X213338147Y-163984746D01*
X213448244Y-163984585D01*
X213558199Y-163984442D01*
X213668195Y-163984320D01*
X213778270Y-163984212D01*
X213888260Y-163984118D01*
X213998194Y-163984034D01*
X214108307Y-163983959D01*
X214218266Y-163983902D01*
X214328237Y-163983843D01*
X214438192Y-163983785D01*
X214548251Y-163983727D01*
X214658218Y-163983668D01*
X214768267Y-163983610D01*
X214878125Y-163983551D01*
X214988178Y-163983493D01*
X215098242Y-163983434D01*
X215208299Y-163983376D01*
X215318174Y-163983317D01*
X215428185Y-163983259D01*
X215538231Y-163983201D01*
X215648331Y-163983142D01*
X215758247Y-163983084D01*
X215868148Y-163983025D01*
X215978216Y-163982967D01*
X216088253Y-163982907D01*
X216169727Y-164011324D01*
D11*
%TO.P,REF\u002A\u002A,1*%
%TO.N,oled1*%
X273500000Y-148500000D03*
%TO.P,REF\u002A\u002A,2*%
%TO.N,oled2*%
X276040001Y-148500001D03*
%TO.P,REF\u002A\u002A,3*%
%TO.N,oled3*%
X278580000Y-148500000D03*
%TO.P,REF\u002A\u002A,4*%
%TO.N,oled4*%
X281120000Y-148500000D03*
%TD*%
D12*
%TO.P,REF\u002A\u002A,1*%
%TO.N,oled4*%
X281000000Y-146225000D03*
D13*
%TO.P,REF\u002A\u002A,2*%
%TO.N,sda*%
X281000000Y-144775000D03*
%TD*%
D12*
%TO.P,REF\u002A\u002A,1*%
%TO.N,oled3*%
X278500000Y-146225000D03*
D13*
%TO.P,REF\u002A\u002A,2*%
%TO.N,scl*%
X278500000Y-144775000D03*
%TD*%
D12*
%TO.P,REF\u002A\u002A,1*%
%TO.N,oled2*%
X276000000Y-146225000D03*
D13*
%TO.P,REF\u002A\u002A,2*%
%TO.N,5V*%
X276000000Y-144775000D03*
%TD*%
D12*
%TO.P,REF\u002A\u002A,1*%
%TO.N,oled1*%
X273500000Y-146225000D03*
D13*
%TO.P,REF\u002A\u002A,2*%
%TO.N,GND*%
X273500000Y-144775000D03*
%TD*%
D14*
%TO.P,S12,1*%
%TO.N,cindex*%
X236141726Y-147585864D03*
%TO.P,S12,2*%
%TO.N,index_bottom*%
X247691726Y-149785864D03*
%TD*%
D15*
%TO.P,S20,1*%
%TO.N,cinner*%
X273805862Y-174635684D03*
%TO.P,S20,2*%
%TO.N,right_cluster*%
X282708455Y-182315938D03*
%TD*%
D14*
%TO.P,S15,1*%
%TO.N,cinner*%
X254141727Y-147585865D03*
%TO.P,S15,2*%
%TO.N,inner_bottom*%
X265691727Y-149785865D03*
%TD*%
%TO.P,S14,1*%
%TO.N,cindex*%
X236141727Y-113585864D03*
%TO.P,S14,2*%
%TO.N,index_top*%
X247691727Y-115785864D03*
%TD*%
D16*
%TO.P,H6,*%
%TO.N,*%
X268416727Y-166535865D03*
%TD*%
%TO.P,H3,*%
%TO.N,*%
X212716727Y-121035865D03*
%TD*%
D14*
%TO.P,S2,1*%
%TO.N,cpinky*%
X164141727Y-128585865D03*
%TO.P,S2,2*%
%TO.N,outer_top*%
X175691727Y-130785865D03*
%TD*%
D17*
%TO.P,PAD1,1*%
%TO.N,GND*%
X276166727Y-136535865D03*
%TO.P,PAD1,2*%
%TO.N,BAT+*%
X278666727Y-136535865D03*
%TD*%
D16*
%TO.P,H2,*%
%TO.N,*%
X176716727Y-155035865D03*
%TD*%
D14*
%TO.P,S17,1*%
%TO.N,cinner*%
X254141727Y-113585864D03*
%TO.P,S17,2*%
%TO.N,inner_top*%
X265691727Y-115785864D03*
%TD*%
%TO.P,S13,1*%
%TO.N,cindex*%
X236141727Y-130585864D03*
%TO.P,S13,2*%
%TO.N,index_home*%
X247691727Y-132785864D03*
%TD*%
D18*
%TO.P,MCU1,1*%
%TO.N,rtop*%
X285511687Y-111915865D03*
%TO.P,MCU1,2*%
%TO.N,rhome*%
X285511686Y-114455865D03*
%TO.P,MCU1,3*%
%TO.N,rbottom*%
X285511686Y-116995865D03*
%TO.P,MCU1,4*%
%TO.N,rthumbs*%
X285511686Y-119535865D03*
%TO.P,MCU1,5*%
%TO.N,sda*%
X285511686Y-122075865D03*
%TO.P,MCU1,6*%
%TO.N,scl*%
X285511686Y-124615865D03*
%TO.P,MCU1,7*%
%TO.N,cinner*%
X285511686Y-127155865D03*
%TO.P,MCU1,8*%
%TO.N,cindex*%
X269321765Y-127155865D03*
%TO.P,MCU1,9*%
%TO.N,cmiddle*%
X269321766Y-124615865D03*
%TO.P,MCU1,10*%
%TO.N,cring*%
X269321766Y-122075865D03*
%TO.P,MCU1,11*%
%TO.N,cpinky*%
X269321766Y-119535865D03*
%TO.P,MCU1,12*%
%TO.N,3V3*%
X269321766Y-116995865D03*
%TO.P,MCU1,13*%
%TO.N,GND*%
X269321766Y-114455865D03*
%TO.P,MCU1,14*%
%TO.N,5V*%
X269321766Y-111915865D03*
D19*
%TO.P,MCU1,19*%
%TO.N,BAT+*%
X272971726Y-119218865D03*
X281861726Y-119218865D03*
%TD*%
D20*
%TO.P,S19,1*%
%TO.N,cindex*%
X253016836Y-166838752D03*
%TO.P,S19,2*%
%TO.N,middle_cluster*%
X263603878Y-171953149D03*
%TD*%
D14*
%TO.P,S3,1*%
%TO.N,cpinky*%
X182141727Y-157585865D03*
%TO.P,S3,2*%
%TO.N,pinky_bottom*%
X193691727Y-159785865D03*
%TD*%
D16*
%TO.P,H4,*%
%TO.N,*%
X227416727Y-158535865D03*
%TD*%
D14*
%TO.P,S10,1*%
%TO.N,cmiddle*%
X218141726Y-123585864D03*
%TO.P,S10,2*%
%TO.N,middle_home*%
X229691726Y-125785864D03*
%TD*%
%TO.P,S1,1*%
%TO.N,cring*%
X164141727Y-145585865D03*
%TO.P,S1,2*%
%TO.N,outer_home*%
X175691727Y-147785865D03*
%TD*%
%TO.P,S11,1*%
%TO.N,cmiddle*%
X218141727Y-106585865D03*
%TO.P,S11,2*%
%TO.N,middle_top*%
X229691727Y-108785865D03*
%TD*%
D16*
%TO.P,H5,*%
%TO.N,*%
X248416727Y-128035864D03*
%TD*%
D14*
%TO.P,S9,1*%
%TO.N,cmiddle*%
X218141727Y-140585864D03*
%TO.P,S9,2*%
%TO.N,middle_bottom*%
X229691727Y-142785864D03*
%TD*%
%TO.P,S16,1*%
%TO.N,cinner*%
X254141726Y-130585865D03*
%TO.P,S16,2*%
%TO.N,inner_home*%
X265691726Y-132785865D03*
%TD*%
%TO.P,S6,1*%
%TO.N,cring*%
X200141727Y-147585865D03*
%TO.P,S6,2*%
%TO.N,ring_bottom*%
X211691727Y-149785865D03*
%TD*%
%TO.P,S8,1*%
%TO.N,cring*%
X200141727Y-113585865D03*
%TO.P,S8,2*%
%TO.N,ring_top*%
X211691727Y-115785865D03*
%TD*%
%TO.P,S7,1*%
%TO.N,cring*%
X200141727Y-130585865D03*
%TO.P,S7,2*%
%TO.N,ring_home*%
X211691727Y-132785865D03*
%TD*%
%TO.P,S4,1*%
%TO.N,cpinky*%
X182141726Y-140585865D03*
%TO.P,S4,2*%
%TO.N,pinky_home*%
X193691726Y-142785865D03*
%TD*%
D16*
%TO.P,H1,*%
%TO.N,*%
X176716727Y-138035865D03*
%TD*%
D14*
%TO.P,S5,1*%
%TO.N,cpinky*%
X182141727Y-123585865D03*
%TO.P,S5,2*%
%TO.N,pinky_top*%
X193691727Y-125785865D03*
%TD*%
%TO.P,S18,1*%
%TO.N,cmiddle*%
X230141727Y-164585865D03*
%TO.P,S18,2*%
%TO.N,left_cluster*%
X241691727Y-166785865D03*
%TD*%
D21*
%TO.P,Di14,1*%
%TO.N,rtop*%
X237316727Y-124535864D03*
D22*
X237766727Y-124535863D03*
%TO.P,Di14,2*%
%TO.N,index_top*%
X241066727Y-124535865D03*
D21*
X241516727Y-124535864D03*
%TD*%
%TO.P,Di7,1*%
%TO.N,rhome*%
X201316727Y-141535865D03*
D22*
X201766727Y-141535864D03*
%TO.P,Di7,2*%
%TO.N,ring_home*%
X205066727Y-141535866D03*
D21*
X205516727Y-141535865D03*
%TD*%
%TO.P,Di1,1*%
%TO.N,rthumbs*%
X165316727Y-156535865D03*
D22*
X165766727Y-156535864D03*
%TO.P,Di1,2*%
%TO.N,outer_home*%
X169066727Y-156535866D03*
D21*
X169516727Y-156535865D03*
%TD*%
%TO.P,Di6,1*%
%TO.N,rbottom*%
X201316727Y-158535865D03*
D22*
X201766727Y-158535864D03*
%TO.P,Di6,2*%
%TO.N,ring_bottom*%
X205066727Y-158535866D03*
D21*
X205516727Y-158535865D03*
%TD*%
%TO.P,Di11,1*%
%TO.N,rtop*%
X219316727Y-117535864D03*
D22*
X219766727Y-117535863D03*
%TO.P,Di11,2*%
%TO.N,middle_top*%
X223066727Y-117535865D03*
D21*
X223516727Y-117535864D03*
%TD*%
%TO.P,Di20,1*%
%TO.N,rthumbs*%
X269348441Y-184706162D03*
D23*
X269738152Y-184931163D03*
%TO.P,Di20,2*%
%TO.N,right_cluster*%
X272596036Y-186581161D03*
D21*
X272985747Y-186806162D03*
%TD*%
%TO.P,Di19,1*%
%TO.N,rthumbs*%
X251317731Y-177719753D03*
D24*
X251752397Y-177836223D03*
%TO.P,Di19,2*%
%TO.N,middle_cluster*%
X254939953Y-178690323D03*
D21*
X255374619Y-178806793D03*
%TD*%
%TO.P,Di18,1*%
%TO.N,rthumbs*%
X231316726Y-175535865D03*
D22*
X231766726Y-175535864D03*
%TO.P,Di18,2*%
%TO.N,left_cluster*%
X235066726Y-175535866D03*
D21*
X235516726Y-175535865D03*
%TD*%
%TO.P,Di17,1*%
%TO.N,rtop*%
X255316727Y-124535865D03*
D22*
X255766727Y-124535864D03*
%TO.P,Di17,2*%
%TO.N,inner_top*%
X259066727Y-124535866D03*
D21*
X259516727Y-124535865D03*
%TD*%
%TO.P,Di10,1*%
%TO.N,rhome*%
X219316727Y-134535864D03*
D22*
X219766727Y-134535863D03*
%TO.P,Di10,2*%
%TO.N,middle_home*%
X223066727Y-134535865D03*
D21*
X223516727Y-134535864D03*
%TD*%
%TO.P,Di8,1*%
%TO.N,rtop*%
X201316727Y-124535865D03*
D22*
X201766727Y-124535864D03*
%TO.P,Di8,2*%
%TO.N,ring_top*%
X205066727Y-124535866D03*
D21*
X205516727Y-124535865D03*
%TD*%
%TO.P,Di12,1*%
%TO.N,rbottom*%
X237316726Y-158535864D03*
D22*
X237766726Y-158535863D03*
%TO.P,Di12,2*%
%TO.N,index_bottom*%
X241066726Y-158535865D03*
D21*
X241516726Y-158535864D03*
%TD*%
%TO.P,Di3,1*%
%TO.N,rbottom*%
X183316726Y-168535864D03*
D22*
X183766726Y-168535863D03*
%TO.P,Di3,2*%
%TO.N,pinky_bottom*%
X187066726Y-168535865D03*
D21*
X187516726Y-168535864D03*
%TD*%
%TO.P,Di4,1*%
%TO.N,rhome*%
X183316727Y-151535865D03*
D22*
X183766727Y-151535864D03*
%TO.P,Di4,2*%
%TO.N,pinky_home*%
X187066727Y-151535866D03*
D21*
X187516727Y-151535865D03*
%TD*%
%TO.P,Di16,1*%
%TO.N,rhome*%
X255316727Y-141535865D03*
D22*
X255766727Y-141535864D03*
%TO.P,Di16,2*%
%TO.N,inner_home*%
X259066727Y-141535866D03*
D21*
X259516727Y-141535865D03*
%TD*%
%TO.P,Di2,1*%
%TO.N,rthumbs*%
X165316727Y-139535865D03*
D22*
X165766727Y-139535864D03*
%TO.P,Di2,2*%
%TO.N,outer_top*%
X169066727Y-139535866D03*
D21*
X169516727Y-139535865D03*
%TD*%
%TO.P,Di13,1*%
%TO.N,rhome*%
X237316727Y-141535865D03*
D22*
X237766727Y-141535864D03*
%TO.P,Di13,2*%
%TO.N,index_home*%
X241066727Y-141535866D03*
D21*
X241516727Y-141535865D03*
%TD*%
%TO.P,Di15,1*%
%TO.N,rbottom*%
X255316726Y-158535865D03*
D22*
X255766726Y-158535864D03*
%TO.P,Di15,2*%
%TO.N,inner_bottom*%
X259066726Y-158535866D03*
D21*
X259516726Y-158535865D03*
%TD*%
%TO.P,Di9,1*%
%TO.N,rbottom*%
X219316726Y-151535865D03*
D22*
X219766726Y-151535864D03*
%TO.P,Di9,2*%
%TO.N,middle_bottom*%
X223066726Y-151535866D03*
D21*
X223516726Y-151535865D03*
%TD*%
%TO.P,Di5,1*%
%TO.N,rtop*%
X183316727Y-134535865D03*
D22*
X183766727Y-134535864D03*
%TO.P,Di5,2*%
%TO.N,pinky_top*%
X187066727Y-134535866D03*
D21*
X187516727Y-134535865D03*
%TD*%
D25*
%TO.N,BAT+*%
X282225000Y-137500000D03*
X280775000Y-137500000D03*
%TO.N,scl*%
X276500000Y-143500000D03*
%TO.N,GND*%
X280012653Y-139012653D03*
%TO.N,5V*%
X278000000Y-140000000D03*
%TO.N,cring*%
X253500000Y-122500000D03*
X203416727Y-145435865D03*
X203416727Y-111435865D03*
X277422427Y-123060804D03*
X203416726Y-128435865D03*
X167502492Y-143437576D03*
X255017726Y-122500000D03*
%TO.N,outer_home*%
X164416727Y-152035865D03*
%TO.N,cpinky*%
X185416726Y-121435865D03*
X185416726Y-138435866D03*
X185416727Y-155435865D03*
X170416727Y-126709865D03*
X277416726Y-121061171D03*
%TO.N,pinky_bottom*%
X182416727Y-164035865D03*
%TO.N,pinky_home*%
X183916727Y-148535865D03*
%TO.N,pinky_top*%
X184416726Y-132035865D03*
%TO.N,ring_bottom*%
X200916727Y-155035865D03*
%TO.N,ring_home*%
X201916727Y-138535864D03*
%TO.N,ring_top*%
X202843250Y-121829768D03*
%TO.N,cmiddle*%
X233416727Y-162435865D03*
X277416580Y-125086095D03*
X221416727Y-138435865D03*
X221416727Y-121435865D03*
X262000000Y-125500000D03*
X221416726Y-104435865D03*
%TO.N,middle_bottom*%
X227587949Y-147878311D03*
%TO.N,cindex*%
X239416726Y-111435865D03*
X239416726Y-128435864D03*
X239416727Y-145435865D03*
X277416727Y-127561170D03*
X257056340Y-165722979D03*
X262000000Y-126500000D03*
%TO.N,index_bottom*%
X245916727Y-155035864D03*
%TO.N,cinner*%
X257416727Y-145435864D03*
X277416726Y-126535864D03*
X257416727Y-128435864D03*
X257416726Y-111435864D03*
X268846765Y-129153235D03*
X277517642Y-174309535D03*
X263000000Y-130500000D03*
%TO.N,inner_bottom*%
X254916727Y-154535865D03*
X263916727Y-155035864D03*
%TO.N,inner_home*%
X256416726Y-139035865D03*
%TO.N,inner_top*%
X256916726Y-122035865D03*
%TO.N,middle_cluster*%
X252943693Y-175080606D03*
%TO.N,rthumbs*%
X277416727Y-120035864D03*
%TO.N,rbottom*%
X277416727Y-116535865D03*
%TO.N,rhome*%
X277416726Y-114035865D03*
%TO.N,rtop*%
X277416727Y-111535865D03*
%TO.N,sda*%
X277400501Y-122061042D03*
%TO.N,scl*%
X277416581Y-124060789D03*
%TO.N,3V3*%
X277418664Y-117557829D03*
%TO.N,GND*%
X277416727Y-135535865D03*
X277418443Y-115048034D03*
%TO.N,5V*%
X277416727Y-112535865D03*
%TO.N,BAT+*%
X277416727Y-119035865D03*
X277416727Y-137535864D03*
%TD*%
D26*
%TO.N,BAT+*%
X287663686Y-129474124D02*
X287663686Y-119479038D01*
X282225000Y-137500000D02*
X283000000Y-136725000D01*
X283000000Y-136725000D02*
X283000000Y-134137810D01*
X287663686Y-119479038D02*
X286494513Y-118309865D01*
X283000000Y-134137810D02*
X287663686Y-129474124D01*
X286494513Y-118309865D02*
X282770727Y-118309864D01*
X282770727Y-118309864D02*
X281861727Y-119218864D01*
X281678726Y-119035865D02*
X277416727Y-119035865D01*
X281861727Y-119218864D02*
X281678726Y-119035865D01*
X278666727Y-137166727D02*
X279000000Y-137500000D01*
X278666727Y-136535865D02*
X278666727Y-137166727D01*
X279000000Y-137500000D02*
X280775000Y-137500000D01*
%TO.N,sda*%
X281000000Y-144775000D02*
X281225000Y-144775000D01*
X281225000Y-144775000D02*
X281500000Y-144500000D01*
X281500000Y-144500000D02*
X281500000Y-135000000D01*
X281500000Y-135000000D02*
X287212686Y-129287314D01*
X287212686Y-129287314D02*
X287212686Y-123301865D01*
X287212686Y-123301865D02*
X285986686Y-122075865D01*
%TO.N,5V*%
X275775000Y-144775000D02*
X275500000Y-144500000D01*
X276000000Y-144775000D02*
X275775000Y-144775000D01*
X275500000Y-144500000D02*
X275500000Y-142500000D01*
%TO.N,scl*%
X279000000Y-144000000D02*
X278500000Y-143500000D01*
X278725000Y-144775000D02*
X279000000Y-144500000D01*
X278500000Y-144775000D02*
X278725000Y-144775000D01*
X279000000Y-144500000D02*
X279000000Y-144000000D01*
X278500000Y-143500000D02*
X276500000Y-143500000D01*
%TO.N,5V*%
X276000000Y-144775000D02*
X276225000Y-144775000D01*
X275500000Y-142500000D02*
X278000000Y-140000000D01*
%TO.N,GND*%
X273500000Y-144775000D02*
X273725000Y-144775000D01*
X273725000Y-144775000D02*
X274000000Y-144500000D01*
X274000000Y-144500000D02*
X274000000Y-140833454D01*
X274000000Y-140833454D02*
X276166727Y-138666727D01*
X280012653Y-139012653D02*
X276512653Y-139012653D01*
X276512653Y-139012653D02*
X276166727Y-138666727D01*
X276166727Y-138666727D02*
X276166727Y-136535865D01*
%TO.N,cinner*%
X268846765Y-129153235D02*
X267500000Y-130500000D01*
X267500000Y-130500000D02*
X263000000Y-130500000D01*
%TO.N,cring*%
X200141727Y-113585865D02*
X202291727Y-111435865D01*
X231317727Y-107159865D02*
X231157862Y-107000000D01*
X249500000Y-118854236D02*
X249500000Y-112500000D01*
X200141726Y-130585865D02*
X202291727Y-128435865D01*
X247709865Y-110709865D02*
X232709865Y-110709865D01*
X202291727Y-111435865D02*
X203416727Y-111435865D01*
X164141727Y-145585865D02*
X166290016Y-143437576D01*
X232709865Y-110709865D02*
X231317727Y-109317727D01*
X276416726Y-122103988D02*
X268874889Y-122103988D01*
X277422427Y-123060804D02*
X277373543Y-123060804D01*
X228000000Y-107000000D02*
X224709865Y-103709865D01*
X231157862Y-107000000D02*
X228000000Y-107000000D01*
X224709865Y-103709865D02*
X217790135Y-103709865D01*
X200141726Y-147585865D02*
X202291727Y-145435865D01*
X166290016Y-143437576D02*
X167502492Y-143437576D01*
X200292726Y-147434864D02*
X200141726Y-147585865D01*
X253500000Y-122500000D02*
X253145764Y-122500000D01*
X258394729Y-125461866D02*
X255432863Y-122500000D01*
X202291727Y-145435865D02*
X203416727Y-145435865D01*
X200292727Y-113736865D02*
X200292726Y-130434864D01*
X268874889Y-122103988D02*
X268846767Y-122075865D01*
X231317727Y-109317727D02*
X231317727Y-107159865D01*
X200292727Y-130736865D02*
X200292726Y-147434864D01*
X268886766Y-122035865D02*
X268846767Y-122075865D01*
X202291727Y-128435865D02*
X203416726Y-128435865D01*
X200141726Y-130585865D02*
X200292727Y-130736865D01*
X263924135Y-122075865D02*
X260538134Y-125461866D01*
X210064135Y-111435865D02*
X203416727Y-111435865D01*
X268846766Y-122075865D02*
X263924135Y-122075865D01*
X249500000Y-112500000D02*
X247709865Y-110709865D01*
X255432863Y-122500000D02*
X255017726Y-122500000D01*
X277373543Y-123060804D02*
X276416726Y-122103988D01*
X200141727Y-113585865D02*
X200292727Y-113736865D01*
X253145764Y-122500000D02*
X249500000Y-118854236D01*
X260538134Y-125461866D02*
X258394729Y-125461866D01*
X200292726Y-130434864D02*
X200141726Y-130585865D01*
X217790135Y-103709865D02*
X210064135Y-111435865D01*
%TO.N,outer_home*%
X175691726Y-147785866D02*
X175691727Y-150495964D01*
X169066727Y-156535865D02*
X164566727Y-152035865D01*
X164566727Y-152035865D02*
X164416727Y-152035865D01*
X169651826Y-156535865D02*
X169066727Y-156535865D01*
X175691727Y-150495964D02*
X169651826Y-156535865D01*
%TO.N,cpinky*%
X184291726Y-155435864D02*
X185416727Y-155435865D01*
X184291727Y-138435865D02*
X185416726Y-138435866D01*
X267620766Y-114462902D02*
X267620766Y-118309865D01*
X182292727Y-123736865D02*
X182292727Y-140434864D01*
X182141726Y-123585865D02*
X179963662Y-123585864D01*
X176839661Y-126709864D02*
X170416727Y-126709865D01*
X272583470Y-120986866D02*
X271132470Y-119535865D01*
X263338959Y-110181095D02*
X267620766Y-114462902D01*
X271132470Y-119535865D02*
X268846766Y-119535864D01*
X277342420Y-120986865D02*
X277416726Y-121061171D01*
X224896675Y-103258865D02*
X228186810Y-106549000D01*
X267620766Y-118309865D02*
X268846766Y-119535865D01*
X232818905Y-110181095D02*
X263338959Y-110181095D01*
X191564135Y-121435865D02*
X196500000Y-116500000D01*
X164141727Y-128585865D02*
X166017727Y-126709864D01*
X184291727Y-121435865D02*
X185416726Y-121435865D01*
X182292727Y-140434864D02*
X182141727Y-140585865D01*
X166017727Y-126709864D02*
X170416727Y-126709865D01*
X231768727Y-106973055D02*
X231768727Y-109130917D01*
X228186810Y-106549000D02*
X231344672Y-106549000D01*
X182141727Y-140585865D02*
X184291727Y-138435865D01*
X179963662Y-123585864D02*
X176839661Y-126709864D01*
X199765727Y-110709865D02*
X210152325Y-110709865D01*
X182141726Y-123585865D02*
X184291727Y-121435865D01*
X185416726Y-121435865D02*
X191564135Y-121435865D01*
X182292726Y-140736865D02*
X182292727Y-157434864D01*
X217603325Y-103258865D02*
X224896675Y-103258865D01*
X210152325Y-110709865D02*
X217603325Y-103258865D01*
X182141727Y-140585865D02*
X182292726Y-140736865D01*
X182141726Y-123585865D02*
X182292727Y-123736865D01*
X182292727Y-157434864D02*
X182141727Y-157585865D01*
X182141727Y-157585865D02*
X184291726Y-155435864D01*
X196500000Y-113975592D02*
X199765727Y-110709865D01*
X196500000Y-116500000D02*
X196500000Y-113975592D01*
X231344672Y-106549000D02*
X231768727Y-106973055D01*
X231768727Y-109130917D02*
X232818905Y-110181095D01*
X272583470Y-120986866D02*
X277342420Y-120986865D01*
%TO.N,outer_top*%
X175691727Y-130785865D02*
X175691726Y-133495965D01*
X169651826Y-139535865D02*
X169066727Y-139535866D01*
X175691726Y-133495965D02*
X169651826Y-139535865D01*
%TO.N,pinky_bottom*%
X182566727Y-164035864D02*
X182416727Y-164035865D01*
X187916727Y-168535865D02*
X187066728Y-168535865D01*
X193691727Y-162760865D02*
X187916727Y-168535865D01*
X193691727Y-159785865D02*
X193691727Y-162760865D01*
X187066728Y-168535865D02*
X182566727Y-164035864D01*
%TO.N,pinky_home*%
X187066726Y-151535865D02*
X186916725Y-151535865D01*
X187651825Y-151535865D02*
X187066726Y-151535865D01*
X186916725Y-151535865D02*
X183916727Y-148535865D01*
X193691726Y-142785865D02*
X193691726Y-145495963D01*
X193691726Y-145495963D02*
X187651825Y-151535865D01*
%TO.N,pinky_top*%
X184566726Y-132035865D02*
X184416726Y-132035865D01*
X187066726Y-134535865D02*
X184566726Y-132035865D01*
X193691726Y-125785866D02*
X193691727Y-128760865D01*
X193691727Y-128760865D02*
X187916726Y-134535864D01*
X187916726Y-134535864D02*
X187066726Y-134535865D01*
%TO.N,ring_bottom*%
X204416727Y-158535865D02*
X200916727Y-155035865D01*
X205940991Y-158535865D02*
X205066726Y-158535865D01*
X211691727Y-152785129D02*
X205940991Y-158535865D01*
X211691726Y-149785865D02*
X211691727Y-152785129D01*
X205066726Y-158535865D02*
X204416727Y-158535865D01*
%TO.N,ring_home*%
X205066727Y-141535865D02*
X202066726Y-138535864D01*
X205651826Y-141535865D02*
X205066727Y-141535865D01*
X211691727Y-135495964D02*
X205651826Y-141535865D01*
X202066726Y-138535864D02*
X201916727Y-138535864D01*
X211691727Y-132785864D02*
X211691727Y-135495964D01*
%TO.N,ring_top*%
X209168628Y-118308965D02*
X208408527Y-118308964D01*
X211691727Y-115785864D02*
X209168628Y-118308965D01*
X204887725Y-121829768D02*
X202843250Y-121829768D01*
X205066726Y-121650766D02*
X204887725Y-121829768D01*
X205066726Y-121650766D02*
X205066727Y-124535865D01*
X208408527Y-118308964D02*
X205066726Y-121650766D01*
%TO.N,cmiddle*%
X218416727Y-140310864D02*
X218141727Y-140585865D01*
X232291726Y-162435865D02*
X233416727Y-162435865D01*
X220291727Y-104435865D02*
X221416726Y-104435865D01*
X218141727Y-140585865D02*
X220291726Y-138435865D01*
X276946352Y-124615865D02*
X268846766Y-124615865D01*
X218141727Y-123585865D02*
X218416727Y-123860864D01*
X218141727Y-123585865D02*
X220291726Y-121435865D01*
X230141727Y-164585864D02*
X232291726Y-162435865D01*
X218423140Y-140585865D02*
X230916726Y-153079452D01*
X220291726Y-121435865D02*
X221416727Y-121435865D01*
X218292727Y-106736865D02*
X218292727Y-123434865D01*
X230916726Y-153079452D02*
X230916726Y-163810864D01*
X218416727Y-123860864D02*
X218416727Y-140310864D01*
X218141727Y-106585865D02*
X218292727Y-106736865D01*
X218141727Y-140585865D02*
X218423140Y-140585865D01*
X218292727Y-123434865D02*
X218141727Y-123585865D01*
X220291726Y-138435865D02*
X221416727Y-138435865D01*
X262884135Y-124615865D02*
X262000000Y-125500000D01*
X268846766Y-124615865D02*
X262884135Y-124615865D01*
X230916726Y-163810864D02*
X230141727Y-164585864D01*
X218141727Y-106585865D02*
X220291727Y-104435865D01*
X277416580Y-125086095D02*
X276946352Y-124615865D01*
%TO.N,middle_bottom*%
X229691726Y-145774534D02*
X227587949Y-147878311D01*
X229691727Y-142785865D02*
X229691726Y-145774534D01*
%TO.N,middle_home*%
X229691726Y-128495964D02*
X223651825Y-134535864D01*
X223651825Y-134535864D02*
X223066727Y-134535865D01*
X229691727Y-125785865D02*
X229691726Y-128495964D01*
%TO.N,middle_top*%
X223916726Y-117535865D02*
X223066726Y-117535866D01*
X229691726Y-108785865D02*
X229691727Y-111760864D01*
X229691727Y-111760864D02*
X223916726Y-117535865D01*
%TO.N,cindex*%
X236292726Y-130434865D02*
X236141727Y-130585865D01*
X236423140Y-147585865D02*
X253016836Y-164179561D01*
X238291726Y-145435865D02*
X239416727Y-145435865D01*
X238291727Y-111435865D02*
X239416726Y-111435865D01*
X238291727Y-128435865D02*
X239416726Y-128435864D01*
X253016835Y-166838751D02*
X254132607Y-165722979D01*
X253016836Y-164179561D02*
X253016835Y-166838751D01*
X236141726Y-113585865D02*
X236292727Y-113736865D01*
X236292727Y-113736865D02*
X236292726Y-130434865D01*
X277416727Y-127561170D02*
X277011423Y-127155865D01*
X236141727Y-130585865D02*
X236416727Y-130860864D01*
X236141726Y-113585865D02*
X238291727Y-111435865D01*
X236141727Y-130585865D02*
X238291727Y-128435865D01*
X254132607Y-165722979D02*
X257056340Y-165722979D01*
X236416727Y-130860864D02*
X236416726Y-147310864D01*
X236141727Y-147585865D02*
X238291726Y-145435865D01*
X262655865Y-127155865D02*
X268846765Y-127155865D01*
X277011423Y-127155865D02*
X268846767Y-127155866D01*
X236141727Y-147585865D02*
X236423140Y-147585865D01*
X262000000Y-126500000D02*
X262655865Y-127155865D01*
X236416726Y-147310864D02*
X236141727Y-147585865D01*
%TO.N,index_bottom*%
X247691727Y-149785865D02*
X247691726Y-153260864D01*
X247691726Y-153260864D02*
X245916727Y-155035864D01*
%TO.N,index_home*%
X247691728Y-135785129D02*
X241940991Y-141535865D01*
X241940991Y-141535865D02*
X241066726Y-141535865D01*
X247691726Y-132785865D02*
X247691728Y-135785129D01*
%TO.N,index_top*%
X247691727Y-118495963D02*
X241651826Y-124535865D01*
X241651826Y-124535865D02*
X241066727Y-124535865D01*
X247691727Y-115785865D02*
X247691727Y-118495963D01*
%TO.N,cinner*%
X273805862Y-174635684D02*
X274132012Y-174309535D01*
X254292726Y-130434865D02*
X254292726Y-113736864D01*
X254141727Y-130585864D02*
X254292726Y-130736865D01*
X278036726Y-127155865D02*
X285986687Y-127155864D01*
X256291726Y-145435865D02*
X257416727Y-145435864D01*
X256291728Y-128435865D02*
X257416727Y-128435864D01*
X274132012Y-174309535D02*
X277517642Y-174309535D01*
X254141727Y-130585864D02*
X256291728Y-128435865D01*
X254141727Y-147585865D02*
X256291726Y-145435865D01*
X256291727Y-111435865D02*
X254141727Y-113585864D01*
X254141727Y-130585864D02*
X254292726Y-130434865D01*
X254466727Y-147585865D02*
X273805862Y-166925000D01*
X254141727Y-147585865D02*
X254466727Y-147585865D01*
X257416726Y-111435864D02*
X256291727Y-111435865D01*
X273805862Y-166925000D02*
X273805862Y-174635684D01*
X277416726Y-126535864D02*
X278036726Y-127155865D01*
X254292727Y-147434865D02*
X254141727Y-147585865D01*
X254292726Y-113736864D02*
X254141727Y-113585864D01*
X254292726Y-130736865D02*
X254292727Y-147434865D01*
%TO.N,inner_bottom*%
X265691727Y-153260864D02*
X263916727Y-155035864D01*
X265691726Y-149785866D02*
X265691727Y-153260864D01*
X259066727Y-158535864D02*
X255066726Y-154535864D01*
X255066726Y-154535864D02*
X254916727Y-154535865D01*
%TO.N,inner_home*%
X259066727Y-141535864D02*
X258916726Y-141535865D01*
X258916726Y-141535865D02*
X256416726Y-139035865D01*
X265691726Y-135495964D02*
X259651826Y-141535864D01*
X259651826Y-141535864D02*
X259066727Y-141535864D01*
X265691727Y-132785865D02*
X265691726Y-135495964D01*
%TO.N,inner_top*%
X265691726Y-115785865D02*
X265691727Y-118760864D01*
X259066726Y-124535864D02*
X259066727Y-124185865D01*
X265691727Y-118760864D02*
X259916726Y-124535865D01*
X259916726Y-124535865D02*
X259066726Y-124535864D01*
X259066727Y-124185865D02*
X256916726Y-122035865D01*
%TO.N,left_cluster*%
X241691727Y-166785864D02*
X241691727Y-169785129D01*
X235940990Y-175535865D02*
X235066727Y-175535864D01*
X241691727Y-169785129D02*
X235940990Y-175535865D01*
%TO.N,middle_cluster*%
X252915858Y-175184489D02*
X252943693Y-175080606D01*
X263603878Y-171953148D02*
X262902452Y-174570904D01*
X262902452Y-174570904D02*
X255505117Y-178841758D01*
X255505117Y-178841758D02*
X254939953Y-178690322D01*
X254939953Y-178690322D02*
X252915858Y-175184489D01*
%TO.N,right_cluster*%
X282708455Y-182315939D02*
X281353404Y-184662955D01*
X273102749Y-186873712D02*
X272596037Y-186581161D01*
X281353404Y-184662955D02*
X273102749Y-186873712D01*
%TO.N,rthumbs*%
X278416727Y-121035865D02*
X282416727Y-121035865D01*
X283916727Y-119535865D02*
X285986686Y-119535866D01*
X282416727Y-121035865D02*
X283916727Y-119535865D01*
X277416727Y-120035864D02*
X278416727Y-121035865D01*
%TO.N,rbottom*%
X277416727Y-116535865D02*
X277876727Y-116995865D01*
X277876727Y-116995865D02*
X285986686Y-116995864D01*
%TO.N,rhome*%
X277416726Y-114035865D02*
X277836727Y-114455864D01*
X277836727Y-114455864D02*
X285986687Y-114455864D01*
%TO.N,rtop*%
X277416727Y-111535865D02*
X277796727Y-111915865D01*
X277796727Y-111915865D02*
X285986687Y-111915865D01*
%TO.N,sda*%
X277415323Y-122075864D02*
X285986686Y-122075864D01*
X277400501Y-122061042D02*
X277415323Y-122075864D01*
%TO.N,scl*%
X277971655Y-124615865D02*
X285986687Y-124615865D01*
X277416581Y-124060789D02*
X277971655Y-124615865D01*
%TO.N,3V3*%
X276850006Y-116995865D02*
X268846767Y-116995865D01*
X277411971Y-117557828D02*
X276850006Y-116995865D01*
X277418664Y-117557829D02*
X277411971Y-117557828D01*
%TO.N,GND*%
X277402176Y-115048034D02*
X276810007Y-114455865D01*
X276416727Y-135535865D02*
X277416727Y-135535865D01*
X277418443Y-115048034D02*
X277402176Y-115048034D01*
X276810007Y-114455865D02*
X268846767Y-114455865D01*
%TO.N,5V*%
X277416727Y-112535865D02*
X277390006Y-112535864D01*
X277390006Y-112535864D02*
X276770006Y-111915864D01*
X276770006Y-111915864D02*
X268846766Y-111915865D01*
%TO.N,BAT+*%
X272971726Y-119218866D02*
X273154727Y-119035864D01*
X278416727Y-137535864D02*
X277416727Y-137535864D01*
%TO.N,oled1*%
X273500000Y-146225000D02*
X273500000Y-148500000D01*
%TO.N,oled2*%
X276000000Y-148460000D02*
X276040001Y-148500001D01*
X276000000Y-146225000D02*
X276000000Y-148460000D01*
%TO.N,oled3*%
X278500000Y-148420000D02*
X278580000Y-148500000D01*
X278500000Y-146225000D02*
X278500000Y-148420000D01*
%TO.N,oled4*%
X281000000Y-146225000D02*
X281000000Y-148380000D01*
X281000000Y-148380000D02*
X281120000Y-148500000D01*
%TD*%
M02*
