%TF.GenerationSoftware,KiCad,Pcbnew,9.0.1*%
%TF.CreationDate,2025-06-09T17:49:50+02:00*%
%TF.ProjectId,pcb,7063622e-6b69-4636-9164-5f7063625858,v1.0.0*%
%TF.SameCoordinates,Original*%
%TF.FileFunction,Soldermask,Bot*%
%TF.FilePolarity,Negative*%
%FSLAX46Y46*%
G04 Gerber Fmt 4.6, Leading zero omitted, Abs format (unit mm)*
G04 Created by KiCad (PCBNEW 9.0.1) date 2025-06-09 17:49:50*
%MOMM*%
%LPD*%
G01*
G04 APERTURE LIST*
G04 Aperture macros list*
%AMRoundRect*
0 Rectangle with rounded corners*
0 $1 Rounding radius*
0 $2 $3 $4 $5 $6 $7 $8 $9 X,Y pos of 4 corners*
0 Add a 4 corners polygon primitive as box body*
4,1,4,$2,$3,$4,$5,$6,$7,$8,$9,$2,$3,0*
0 Add four circle primitives for the rounded corners*
1,1,$1+$1,$2,$3*
1,1,$1+$1,$4,$5*
1,1,$1+$1,$6,$7*
1,1,$1+$1,$8,$9*
0 Add four rect primitives between the rounded corners*
20,1,$1+$1,$2,$3,$4,$5,0*
20,1,$1+$1,$4,$5,$6,$7,0*
20,1,$1+$1,$6,$7,$8,$9,0*
20,1,$1+$1,$8,$9,$2,$3,0*%
%AMFreePoly0*
4,1,16,0.535355,0.785355,0.541603,0.777735,1.041603,0.027735,1.049029,-0.009806,1.041603,-0.027735,0.541603,-0.777735,0.509806,-0.799029,0.500000,-0.800000,-0.500000,-0.800000,-0.535355,-0.785355,-0.550000,-0.750000,-0.550000,0.750000,-0.535355,0.785355,-0.500000,0.800000,0.500000,0.800000,0.535355,0.785355,0.535355,0.785355,$1*%
%AMFreePoly1*
4,1,16,0.535355,0.785355,0.550000,0.750000,0.550000,-0.750000,0.535355,-0.785355,0.500000,-0.800000,-0.650000,-0.800000,-0.685355,-0.785355,-0.700000,-0.750000,-0.691603,-0.722265,-0.210093,0.000000,-0.691603,0.722265,-0.699029,0.759806,-0.677735,0.791603,-0.650000,0.800000,0.500000,0.800000,0.535355,0.785355,0.535355,0.785355,$1*%
G04 Aperture macros list end*
%ADD10C,0.100000*%
%ADD11C,0.000000*%
%ADD12C,1.800000*%
%ADD13FreePoly0,90.000000*%
%ADD14FreePoly1,90.000000*%
%ADD15C,1.801800*%
%ADD16C,3.100000*%
%ADD17C,3.529000*%
%ADD18RoundRect,0.050000X-1.300000X-1.300000X1.300000X-1.300000X1.300000X1.300000X-1.300000X1.300000X0*%
%ADD19RoundRect,0.050000X-1.775833X-0.475833X0.475833X-1.775833X1.775833X0.475833X-0.475833X1.775833X0*%
%ADD20C,5.300000*%
%ADD21RoundRect,0.050000X-0.625000X-1.250000X0.625000X-1.250000X0.625000X1.250000X-0.625000X1.250000X0*%
%ADD22O,2.850000X1.900000*%
%ADD23C,1.497000*%
%ADD24RoundRect,0.050000X-1.592168X-0.919239X0.919239X-1.592168X1.592168X0.919239X-0.919239X1.592168X0*%
%ADD25C,0.700000*%
%ADD26RoundRect,0.050000X-0.450000X-0.600000X0.450000X-0.600000X0.450000X0.600000X-0.450000X0.600000X0*%
%ADD27RoundRect,0.050000X-0.689711X-0.294615X0.089711X-0.744615X0.689711X0.294615X-0.089711X0.744615X0*%
%ADD28RoundRect,0.050000X-0.589958X-0.463087X0.279375X-0.696024X0.589958X0.463087X-0.279375X0.696024X0*%
G04 APERTURE END LIST*
D10*
X206192106Y-163982865D02*
X206302153Y-163982865D01*
X206412180Y-163982865D01*
X206522060Y-163982865D01*
X206610726Y-164004138D01*
X206610726Y-164114219D01*
X206610726Y-164224308D01*
X206610726Y-164334304D01*
X206610727Y-164444140D01*
X206610726Y-164554283D01*
X206610727Y-164664181D01*
X206610727Y-164774321D01*
X206610727Y-164884285D01*
X206610727Y-164994207D01*
X206610727Y-165104238D01*
X206610727Y-165214322D01*
X206610727Y-165324136D01*
X206567407Y-165390725D01*
X206457392Y-165390371D01*
X206347420Y-165390019D01*
X206237345Y-165389664D01*
X206127417Y-165389310D01*
X206017383Y-165388957D01*
X205907302Y-165388572D01*
X205797426Y-165388043D01*
X205687323Y-165387512D01*
X205577351Y-165386984D01*
X205467282Y-165386453D01*
X205357285Y-165385924D01*
X205247360Y-165385395D01*
X205241227Y-165281428D01*
X205241226Y-165171550D01*
X205241227Y-165061437D01*
X205241227Y-164951398D01*
X205241226Y-164841456D01*
X205241227Y-164731609D01*
X205241240Y-164621505D01*
X205241316Y-164511501D01*
X205241470Y-164401406D01*
X205241727Y-164291485D01*
X205242138Y-164181402D01*
X205242852Y-164071597D01*
X205422022Y-163985360D01*
X205532062Y-163984268D01*
X205642059Y-163983560D01*
X205752060Y-163983120D01*
X205862082Y-163982900D01*
X205972163Y-163982865D01*
X206081998Y-163982864D01*
X206192106Y-163982865D01*
X216169727Y-164011324D02*
X216169728Y-164121366D01*
X216169727Y-164231393D01*
X216169727Y-164341269D01*
X216169726Y-164451309D01*
X216169726Y-164561374D01*
X216169728Y-164671464D01*
X216169727Y-164781382D01*
X216169727Y-164891374D01*
X216169726Y-165001403D01*
X216169727Y-165111398D01*
X216169726Y-165221317D01*
X216169726Y-165331430D01*
X216169726Y-165441428D01*
X216169727Y-165551408D01*
X216169727Y-165661351D01*
X216169726Y-165771455D01*
X216169727Y-165881402D01*
X216169727Y-165991433D01*
X216169727Y-166101433D01*
X216169727Y-166211287D01*
X216169725Y-166321415D01*
X216169726Y-166431314D01*
X216169726Y-166541351D01*
X216169727Y-166651495D01*
X216169726Y-166761316D01*
X216169727Y-166871345D01*
X216169726Y-166981316D01*
X216169726Y-167091474D01*
X216169727Y-167201385D01*
X216169727Y-167311393D01*
X216169727Y-167421340D01*
X216169726Y-167531380D01*
X216169727Y-167641374D01*
X216169727Y-167751323D01*
X216169727Y-167861470D01*
X216169726Y-167971389D01*
X216169724Y-168081402D01*
X216169714Y-168191460D01*
X216169699Y-168301395D01*
X216169676Y-168411362D01*
X216169648Y-168521302D01*
X216169612Y-168631350D01*
X216169569Y-168741432D01*
X216169518Y-168851472D01*
X216169461Y-168961388D01*
X216169394Y-169071484D01*
X216169321Y-169181470D01*
X216169239Y-169291430D01*
X216169148Y-169401445D01*
X216169049Y-169511385D01*
X216168939Y-169621303D01*
X216168822Y-169731405D01*
X216168692Y-169841346D01*
X216168552Y-169951295D01*
X216168401Y-170061381D01*
X216168235Y-170171374D01*
X216168058Y-170281342D01*
X216167867Y-170391309D01*
X216167660Y-170501390D01*
X216167436Y-170611350D01*
X216167194Y-170721446D01*
X216166932Y-170831419D01*
X216166647Y-170941304D01*
X216166335Y-171051445D01*
X216165992Y-171161452D01*
X216165614Y-171271450D01*
X216165191Y-171381475D01*
X216164711Y-171491399D01*
X216164157Y-171601390D01*
X216163489Y-171711411D01*
X216162625Y-171821443D01*
X216161233Y-171931383D01*
X216105131Y-171916014D01*
X216025811Y-171839842D01*
X215946636Y-171763258D01*
X215867700Y-171686632D01*
X215788965Y-171610020D01*
X215710067Y-171533106D01*
X215631502Y-171456401D01*
X215552834Y-171379488D01*
X215474146Y-171302453D01*
X215395618Y-171225479D01*
X215317167Y-171148479D01*
X215238695Y-171071351D01*
X215160342Y-170994226D01*
X215081938Y-170916919D01*
X215003553Y-170839660D01*
X214925231Y-170762588D01*
X214846833Y-170685442D01*
X214838647Y-170578716D01*
X214838558Y-170468693D01*
X214838469Y-170358674D01*
X214838379Y-170248836D01*
X214838291Y-170138831D01*
X214838202Y-170028787D01*
X214838113Y-169918742D01*
X214838024Y-169808800D01*
X214837935Y-169698809D01*
X214837846Y-169588794D01*
X214837757Y-169478839D01*
X214837667Y-169368672D01*
X214837579Y-169258708D01*
X214837490Y-169148845D01*
X214837400Y-169038754D01*
X214837312Y-168928672D01*
X214837222Y-168818689D01*
X214837134Y-168708842D01*
X214837043Y-168598786D01*
X214836955Y-168488684D01*
X214836867Y-168378854D01*
X214836777Y-168268849D01*
X214836687Y-168158681D01*
X214836599Y-168048835D01*
X214836502Y-167938672D01*
X214836367Y-167828775D01*
X214836235Y-167718845D01*
X214836100Y-167608688D01*
X214835968Y-167498847D01*
X214835833Y-167388758D01*
X214835699Y-167278790D01*
X214835567Y-167168705D01*
X214835433Y-167058653D01*
X214835300Y-166948741D01*
X214835166Y-166838815D01*
X214835032Y-166728802D01*
X214834899Y-166618773D01*
X214834765Y-166508642D01*
X214834631Y-166398804D01*
X214834498Y-166288700D01*
X214834364Y-166178829D01*
X214834231Y-166068851D01*
X214834096Y-165958668D01*
X214833963Y-165848731D01*
X214833830Y-165738729D01*
X214833696Y-165628759D01*
X214833563Y-165518783D01*
X214833429Y-165408744D01*
X214833295Y-165298800D01*
X214779546Y-165242235D01*
X214669545Y-165241969D01*
X214559661Y-165241703D01*
X214449647Y-165241436D01*
X214339586Y-165241170D01*
X214229496Y-165240905D01*
X214119518Y-165240637D01*
X214009540Y-165240372D01*
X213899635Y-165240105D01*
X213789672Y-165239840D01*
X213679549Y-165239574D01*
X213569525Y-165239307D01*
X213459555Y-165239050D01*
X213349663Y-165238888D01*
X213239606Y-165238723D01*
X213129617Y-165238568D01*
X213019642Y-165238432D01*
X212909674Y-165238338D01*
X212799576Y-165238312D01*
X212689523Y-165238393D01*
X212579646Y-165238646D01*
X212469710Y-165239180D01*
X212359586Y-165240184D01*
X212249633Y-165242029D01*
X212139704Y-165245571D01*
X212029943Y-165253340D01*
X211922547Y-165275365D01*
X211822502Y-165321052D01*
X211728702Y-165378264D01*
X211644597Y-165448934D01*
X211572461Y-165531984D01*
X211512302Y-165623878D01*
X211468241Y-165724605D01*
X211440014Y-165830725D01*
X211425528Y-165939839D01*
X211425529Y-166049785D01*
X211441422Y-166158506D01*
X211469768Y-166264595D01*
X211513194Y-166365564D01*
X211572827Y-166458004D01*
X211646025Y-166539819D01*
X211729878Y-166610862D01*
X211823859Y-166667742D01*
X211925927Y-166708599D01*
X212032879Y-166734059D01*
X212142221Y-166745823D01*
X212252147Y-166748702D01*
X212362119Y-166750399D01*
X212472128Y-166751615D01*
X212582198Y-166752538D01*
X212692155Y-166753251D01*
X212802056Y-166753801D01*
X212912127Y-166754219D01*
X213022113Y-166754521D01*
X213132187Y-166754725D01*
X213242156Y-166754835D01*
X213351983Y-166754865D01*
X213462094Y-166754865D01*
X213572147Y-166754864D01*
X213682092Y-166754865D01*
X213792167Y-166754865D01*
X213902059Y-166754865D01*
X214012082Y-166754865D01*
X214122147Y-166754865D01*
X214232096Y-166754865D01*
X214342103Y-166754866D01*
X214442727Y-166764246D01*
X214442727Y-166874215D01*
X214442726Y-166984340D01*
X214442726Y-167094306D01*
X214442728Y-167204218D01*
X214442727Y-167314279D01*
X214442727Y-167424214D01*
X214442726Y-167534346D01*
X214442727Y-167644196D01*
X214442727Y-167754275D01*
X214442726Y-167864148D01*
X214442727Y-167974258D01*
X214368448Y-168009703D01*
X214258491Y-168009314D01*
X214148420Y-168008925D01*
X214038445Y-168008536D01*
X213928393Y-168008148D01*
X213818530Y-168007758D01*
X213708489Y-168007370D01*
X213598370Y-168006981D01*
X213488489Y-168006593D01*
X213378423Y-168006203D01*
X213268494Y-168005815D01*
X213158511Y-168005473D01*
X213048357Y-168005215D01*
X212938362Y-168004951D01*
X212828450Y-168004669D01*
X212718434Y-168004344D01*
X212608520Y-168003944D01*
X212498515Y-168003417D01*
X212388497Y-168002686D01*
X212278542Y-168001614D01*
X212168532Y-167999960D01*
X212058521Y-167997258D01*
X211948570Y-167992488D01*
X211838972Y-167983170D01*
X211730843Y-167964107D01*
X211624844Y-167934339D01*
X211520048Y-167901254D01*
X211416820Y-167862993D01*
X211316015Y-167819136D01*
X211217914Y-167769442D01*
X211122888Y-167713900D01*
X211031390Y-167652812D01*
X210943684Y-167586647D01*
X210859606Y-167515772D01*
X210779011Y-167440690D01*
X210702142Y-167362225D01*
X210628984Y-167280082D01*
X210560093Y-167194383D01*
X210495903Y-167105040D01*
X210436936Y-167012234D01*
X210383496Y-166916044D01*
X210335908Y-166816871D01*
X210294281Y-166715054D01*
X210258591Y-166611010D01*
X210228666Y-166505098D01*
X210204281Y-166397916D01*
X210185040Y-166289667D01*
X210170924Y-166180690D01*
X210164301Y-166070695D01*
X210164233Y-165960899D01*
X210169662Y-165851044D01*
X210180079Y-165741466D01*
X210195314Y-165632452D01*
X210215488Y-165524336D01*
X210241100Y-165417346D01*
X210273101Y-165312121D01*
X210313664Y-165210060D01*
X210360609Y-165110651D01*
X210411520Y-165012951D01*
X210465817Y-164917393D01*
X210524642Y-164824568D01*
X210590060Y-164736110D01*
X210660477Y-164651535D01*
X210735426Y-164571207D01*
X210814992Y-164495019D01*
X210898539Y-164423563D01*
X210985991Y-164356864D01*
X211076954Y-164295196D01*
X211171368Y-164238604D01*
X211268652Y-164187434D01*
X211368729Y-164141721D01*
X211471172Y-164101673D01*
X211575734Y-164067400D01*
X211681965Y-164039060D01*
X211789613Y-164016724D01*
X211898327Y-164000476D01*
X212018282Y-163993750D01*
X212128231Y-163991191D01*
X212238166Y-163989602D01*
X212348235Y-163988484D01*
X212458321Y-163987649D01*
X212568279Y-163987000D01*
X212678217Y-163986479D01*
X212788265Y-163986053D01*
X212898165Y-163985699D01*
X213008266Y-163985401D01*
X213118227Y-163985148D01*
X213228196Y-163984931D01*
X213338147Y-163984746D01*
X213448244Y-163984585D01*
X213558199Y-163984442D01*
X213668195Y-163984320D01*
X213778270Y-163984212D01*
X213888260Y-163984118D01*
X213998194Y-163984034D01*
X214108307Y-163983959D01*
X214218266Y-163983902D01*
X214328237Y-163983843D01*
X214438192Y-163983785D01*
X214548251Y-163983727D01*
X214658218Y-163983668D01*
X214768267Y-163983610D01*
X214878125Y-163983551D01*
X214988178Y-163983493D01*
X215098242Y-163983434D01*
X215208299Y-163983376D01*
X215318174Y-163983317D01*
X215428185Y-163983259D01*
X215538231Y-163983201D01*
X215648331Y-163983142D01*
X215758247Y-163983084D01*
X215868148Y-163983025D01*
X215978216Y-163982967D01*
X216088253Y-163982907D01*
X216169727Y-164011324D01*
X206324885Y-166105865D02*
X206434842Y-166105865D01*
X206544904Y-166105865D01*
X206610727Y-166150019D01*
X206610727Y-166259945D01*
X206610727Y-166369879D01*
X206610727Y-166479998D01*
X206610726Y-166590049D01*
X206610727Y-166700039D01*
X206610726Y-166809934D01*
X206610726Y-166919944D01*
X206610727Y-167029903D01*
X206610727Y-167140084D01*
X206610726Y-167250040D01*
X206610727Y-167359919D01*
X206610727Y-167470052D01*
X206610726Y-167579974D01*
X206610727Y-167689983D01*
X206610727Y-167799979D01*
X206610727Y-167909907D01*
X206610727Y-168020004D01*
X206610727Y-168130035D01*
X206610726Y-168240044D01*
X206610727Y-168350096D01*
X206610727Y-168460012D01*
X206610726Y-168570017D01*
X206610726Y-168680089D01*
X206610727Y-168789944D01*
X206610727Y-168900106D01*
X206610726Y-169009900D01*
X206610726Y-169119987D01*
X206610726Y-169229964D01*
X206610727Y-169339958D01*
X206610727Y-169450093D01*
X206610727Y-169559956D01*
X206610726Y-169669923D01*
X206610727Y-169780095D01*
X206610727Y-169890037D01*
X206610727Y-170000079D01*
X206610727Y-170110021D01*
X206610727Y-170220017D01*
X206610727Y-170329943D01*
X206610727Y-170440004D01*
X206610727Y-170550114D01*
X206610727Y-170660023D01*
X206610726Y-170770101D01*
X206610726Y-170880043D01*
X206610727Y-170990091D01*
X206610726Y-171100078D01*
X206610727Y-171210017D01*
X206610727Y-171320109D01*
X206610727Y-171429998D01*
X206610727Y-171539938D01*
X206610727Y-171649938D01*
X206610726Y-171760015D01*
X206610727Y-171870023D01*
X206588554Y-171957864D01*
X206478624Y-171957865D01*
X206368664Y-171957865D01*
X206258579Y-171957866D01*
X206148677Y-171957865D01*
X206038594Y-171957864D01*
X205928471Y-171957864D01*
X205818590Y-171957865D01*
X205708683Y-171957864D01*
X205598657Y-171957865D01*
X205488629Y-171957865D01*
X205378645Y-171957865D01*
X205268642Y-171957865D01*
X205234712Y-171881853D01*
X205234838Y-171771775D01*
X205234961Y-171661880D01*
X205235084Y-171551787D01*
X205235209Y-171441910D01*
X205235332Y-171331736D01*
X205235457Y-171221873D01*
X205235581Y-171111790D01*
X205235705Y-171001807D01*
X205235828Y-170891810D01*
X205235953Y-170781713D01*
X205236077Y-170671818D01*
X205236201Y-170561815D01*
X205236326Y-170451741D01*
X205236450Y-170341885D01*
X205236573Y-170231744D01*
X205236698Y-170121789D01*
X205236822Y-170011775D01*
X205236946Y-169901839D01*
X205237069Y-169791808D01*
X205237193Y-169681693D01*
X205237318Y-169571734D01*
X205237441Y-169461838D01*
X205237565Y-169351792D01*
X205237690Y-169241707D01*
X205237813Y-169131738D01*
X205238107Y-168872212D01*
X205238231Y-168762164D01*
X205238355Y-168652341D01*
X205238478Y-168542324D01*
X205238603Y-168432242D01*
X205238727Y-168322162D01*
X205238851Y-168212190D01*
X205238975Y-168102291D01*
X205239099Y-167992286D01*
X205239224Y-167882256D01*
X205239347Y-167772271D01*
X205239471Y-167662299D01*
X205239596Y-167552257D01*
X205239720Y-167442297D01*
X205239844Y-167332181D01*
X205239968Y-167222234D01*
X205240092Y-167112316D01*
X205240216Y-167002275D01*
X205240340Y-166892264D01*
X205240463Y-166782201D01*
X205240587Y-166672194D01*
X205240712Y-166562249D01*
X205240835Y-166452283D01*
X205240960Y-166342215D01*
X205241084Y-166232295D01*
X205241207Y-166122320D01*
X205334819Y-166105865D01*
X205444776Y-166105865D01*
X205554774Y-166105864D01*
X205664933Y-166105865D01*
X205774878Y-166105865D01*
X205884874Y-166105865D01*
X205994832Y-166105865D01*
X206104909Y-166105865D01*
X206214841Y-166105864D01*
X206324885Y-166105865D01*
X207483806Y-164038784D02*
X207563113Y-164115048D01*
X207641617Y-164192075D01*
X207720141Y-164269051D01*
X207798792Y-164345911D01*
X207877592Y-164422803D01*
X207956343Y-164499567D01*
X208035071Y-164576237D01*
X208113920Y-164652960D01*
X208192911Y-164729757D01*
X208271730Y-164806318D01*
X208350718Y-164882961D01*
X208429749Y-164959548D01*
X208508687Y-165035909D01*
X208587844Y-165112272D01*
X208667343Y-165188521D01*
X208746597Y-165264770D01*
X208766727Y-165366201D01*
X208766727Y-165476102D01*
X208766727Y-165586083D01*
X208766727Y-165696265D01*
X208766727Y-165806102D01*
X208766726Y-165916223D01*
X208766727Y-166026237D01*
X208766727Y-166136178D01*
X208766728Y-166246166D01*
X208766727Y-166356184D01*
X208766727Y-166466155D01*
X208766726Y-166576280D01*
X208766727Y-166686111D01*
X208766728Y-166796197D01*
X208766726Y-166906270D01*
X208766726Y-167016200D01*
X208766727Y-167126146D01*
X208766726Y-167236265D01*
X208766726Y-167346162D01*
X208766727Y-167456146D01*
X208766727Y-167566161D01*
X208810238Y-167632723D01*
X208920341Y-167632869D01*
X209030229Y-167633015D01*
X209140289Y-167633161D01*
X209250349Y-167633307D01*
X209360162Y-167633452D01*
X209470349Y-167633598D01*
X209580299Y-167633745D01*
X209690321Y-167634017D01*
X209800300Y-167634311D01*
X209910263Y-167634602D01*
X210020287Y-167634896D01*
X210130296Y-167635189D01*
X210240183Y-167635481D01*
X210350265Y-167635774D01*
X210449773Y-167662217D01*
X210529371Y-167737989D01*
X210611097Y-167811817D01*
X210695547Y-167882018D01*
X210783196Y-167948813D01*
X210873501Y-168011578D01*
X210966517Y-168070153D01*
X211062292Y-168124322D01*
X211160535Y-168173646D01*
X211261159Y-168217792D01*
X211364271Y-168256450D01*
X211468835Y-168290241D01*
X211574795Y-168320393D01*
X211681939Y-168344745D01*
X211790418Y-168362332D01*
X211899830Y-168373931D01*
X212009547Y-168381260D01*
X212119589Y-168385923D01*
X212229448Y-168388988D01*
X212339579Y-168391162D01*
X212449554Y-168393150D01*
X212559424Y-168395135D01*
X212669395Y-168397122D01*
X212671727Y-168504943D01*
X212671726Y-168614876D01*
X212671727Y-168724970D01*
X212671727Y-168834892D01*
X212671728Y-168944870D01*
X212671726Y-169054921D01*
X212671727Y-169164853D01*
X212671727Y-169274768D01*
X212671726Y-169384881D01*
X212671726Y-169494849D01*
X212671727Y-169604829D01*
X212671727Y-169714817D01*
X212671727Y-169824921D01*
X212671727Y-169934835D01*
X212671726Y-170044944D01*
X212671727Y-170154858D01*
X212671727Y-170264849D01*
X212671727Y-170374868D01*
X212671726Y-170484854D01*
X212671727Y-170594886D01*
X212671727Y-170704843D01*
X212671727Y-170814858D01*
X212671727Y-170924974D01*
X212671726Y-171034817D01*
X212671727Y-171144873D01*
X212671726Y-171254918D01*
X212671727Y-171364889D01*
X212671726Y-171474876D01*
X212671727Y-171584794D01*
X212671726Y-171694954D01*
X212671726Y-171804866D01*
X212671726Y-171914923D01*
X212604632Y-171957865D01*
X212494672Y-171957865D01*
X212384791Y-171957865D01*
X212274696Y-171957864D01*
X212164792Y-171957865D01*
X212054617Y-171957865D01*
X211944728Y-171957864D01*
X211834702Y-171957865D01*
X211724673Y-171957865D01*
X211614812Y-171957865D01*
X211504727Y-171957865D01*
X211394612Y-171957865D01*
X211318727Y-171923865D01*
X211318727Y-171813845D01*
X211318727Y-171703800D01*
X211318727Y-171593862D01*
X211318727Y-171483742D01*
X211318727Y-171373876D01*
X211318726Y-171263930D01*
X211318726Y-171153860D01*
X211318727Y-171043925D01*
X211318726Y-170933738D01*
X211318726Y-170823920D01*
X211318726Y-170713908D01*
X211318726Y-170603809D01*
X211318726Y-170493936D01*
X211318727Y-170383771D01*
X211318727Y-170273870D01*
X211318726Y-170163744D01*
X211318727Y-170053759D01*
X211318727Y-169943852D01*
X211318726Y-169833865D01*
X211318727Y-169723883D01*
X211318726Y-169613885D01*
X211318728Y-169503794D01*
X211318727Y-169393769D01*
X211318727Y-169283765D01*
X211318727Y-169173866D01*
X211318727Y-169063800D01*
X211251779Y-169020864D01*
X211141680Y-169020864D01*
X211031713Y-169020865D01*
X210921728Y-169020866D01*
X210811674Y-169020865D01*
X210701773Y-169020865D01*
X210591694Y-169020865D01*
X210481782Y-169020865D01*
X210371630Y-169020865D01*
X210261617Y-169020864D01*
X210151720Y-169020865D01*
X210041676Y-169020864D01*
X209931637Y-169020865D01*
X209821761Y-169020865D01*
X209711785Y-169020865D01*
X209601685Y-169020864D01*
X209491628Y-169020864D01*
X209381648Y-169020865D01*
X209271682Y-169020865D01*
X209161629Y-169020864D01*
X209051738Y-169020864D01*
X208941634Y-169020865D01*
X208831728Y-169020865D01*
X208766727Y-169065823D01*
X208766727Y-169175923D01*
X208766726Y-169286033D01*
X208766726Y-169395820D01*
X208766726Y-169505852D01*
X208766726Y-169615874D01*
X208766727Y-169725984D01*
X208766727Y-169835936D01*
X208766727Y-169945867D01*
X208766727Y-170055825D01*
X208766727Y-170165848D01*
X208766727Y-170276002D01*
X208766726Y-170385918D01*
X208766726Y-170495952D01*
X208766727Y-170605954D01*
X208766728Y-170716038D01*
X208766727Y-170826019D01*
X208766728Y-170935927D01*
X208766727Y-171045934D01*
X208766726Y-171155922D01*
X208766727Y-171266021D01*
X208766726Y-171375852D01*
X208766727Y-171485985D01*
X208766726Y-171595891D01*
X208766726Y-171705870D01*
X208766726Y-171815960D01*
X208766726Y-171925882D01*
X208688741Y-171957865D01*
X208578679Y-171957865D01*
X208468656Y-171957865D01*
X208358636Y-171957864D01*
X208248626Y-171957865D01*
X208138623Y-171957865D01*
X208028588Y-171957865D01*
X207918640Y-171957865D01*
X207808740Y-171957865D01*
X207698695Y-171957865D01*
X207588635Y-171957864D01*
X207478738Y-171957865D01*
X207402727Y-171923788D01*
X207402727Y-171813797D01*
X207402726Y-171703845D01*
X207402727Y-171593714D01*
X207402726Y-171483758D01*
X207402726Y-171373882D01*
X207402727Y-171263857D01*
X207402727Y-171153804D01*
X207402726Y-171043728D01*
X207402728Y-170933824D01*
X207402727Y-170823666D01*
X207402727Y-170713781D01*
X207402726Y-170603730D01*
X207402727Y-170493820D01*
X207402727Y-170383770D01*
X207402727Y-170273775D01*
X207402726Y-170163816D01*
X207402726Y-170053666D01*
X207402727Y-169943811D01*
X207402726Y-169833821D01*
X207402727Y-169723808D01*
X207402726Y-169613722D01*
X207402727Y-169503702D01*
X207402727Y-169393740D01*
X207402727Y-169283691D01*
X207402727Y-169173814D01*
X207402727Y-169063759D01*
X207402727Y-168953796D01*
X207402726Y-168843686D01*
X207402726Y-168733868D01*
X207402727Y-168623869D01*
X207402727Y-168513757D01*
X207402726Y-168403826D01*
X207402727Y-168293804D01*
X207402727Y-168183837D01*
X207402727Y-168073713D01*
X207402727Y-167963811D01*
X207402727Y-167824720D01*
X207402727Y-167714740D01*
X207402727Y-167604798D01*
X207402727Y-167494713D01*
X207402727Y-167384749D01*
X207402728Y-167274787D01*
X207402727Y-167164719D01*
X207402727Y-167054726D01*
X207402726Y-166944699D01*
X207402726Y-166834709D01*
X207402727Y-166724631D01*
X207402727Y-166614701D01*
X207402727Y-166504721D01*
X207402727Y-166394760D01*
X207402727Y-166284657D01*
X207402727Y-166174757D01*
X207402726Y-166064654D01*
X207402727Y-165954652D01*
X207402727Y-165844684D01*
X207402727Y-165734685D01*
X207402727Y-165624777D01*
X207402726Y-165514742D01*
X207402726Y-165404750D01*
X207402728Y-165294830D01*
X207402727Y-165184721D01*
X207402727Y-165074757D01*
X207402727Y-164964694D01*
X207402727Y-164854773D01*
X207402727Y-164744797D01*
X207402726Y-164634610D01*
X207402727Y-164524663D01*
X207402726Y-164414784D01*
X207402727Y-164304766D01*
X207402726Y-164194722D01*
X207402726Y-164084632D01*
X207402727Y-163974628D01*
X207483806Y-164038784D01*
D11*
%TO.C,REF\u002A\u002A*%
G36*
X281750000Y-146725000D02*
G01*
X280250000Y-146725000D01*
X280250000Y-144275000D01*
X281750000Y-144275000D01*
X281750000Y-146725000D01*
G37*
G36*
X279250000Y-146725000D02*
G01*
X277750000Y-146725000D01*
X277750000Y-144275000D01*
X279250000Y-144275000D01*
X279250000Y-146725000D01*
G37*
G36*
X276750000Y-146725000D02*
G01*
X275250000Y-146725000D01*
X275250000Y-144275000D01*
X276750000Y-144275000D01*
X276750000Y-146725000D01*
G37*
G36*
X274250000Y-146725000D02*
G01*
X272750000Y-146725000D01*
X272750000Y-144275000D01*
X274250000Y-144275000D01*
X274250000Y-146725000D01*
G37*
%TD*%
D12*
%TO.C,REF\u002A\u002A*%
X273500000Y-148500000D03*
X276040001Y-148500001D03*
X278580000Y-148500000D03*
X281120000Y-148500000D03*
%TD*%
D13*
%TO.C,REF\u002A\u002A*%
X281000000Y-146225000D03*
D14*
X281000000Y-144775000D03*
%TD*%
D13*
%TO.C,REF\u002A\u002A*%
X278500000Y-146225000D03*
D14*
X278500000Y-144775000D03*
%TD*%
D13*
%TO.C,REF\u002A\u002A*%
X276000000Y-146225000D03*
D14*
X276000000Y-144775000D03*
%TD*%
D13*
%TO.C,REF\u002A\u002A*%
X273500000Y-146225000D03*
D14*
X273500000Y-144775000D03*
%TD*%
D15*
%TO.C,S12*%
X233916726Y-153535864D03*
D16*
X234416726Y-149785863D03*
X239416726Y-147585864D03*
X239416726Y-147585864D03*
D17*
X239416726Y-153535864D03*
D16*
X244416726Y-149785864D03*
D15*
X244916726Y-153535864D03*
D18*
X236141726Y-147585864D03*
X247691726Y-149785864D03*
%TD*%
D15*
%TO.C,S20*%
X268903955Y-178676035D03*
D16*
X271211968Y-175678440D03*
X276642096Y-176273183D03*
X276642096Y-176273183D03*
D17*
X273667095Y-181426035D03*
D16*
X279872222Y-180678441D03*
D15*
X278430235Y-184176035D03*
D19*
X273805862Y-174635684D03*
X282708455Y-182315938D03*
%TD*%
D15*
%TO.C,S15*%
X251916727Y-153535865D03*
D16*
X252416727Y-149785864D03*
X257416727Y-147585865D03*
X257416727Y-147585865D03*
D17*
X257416727Y-153535865D03*
D16*
X262416727Y-149785865D03*
D15*
X262916727Y-153535865D03*
D18*
X254141727Y-147585865D03*
X265691727Y-149785865D03*
%TD*%
D15*
%TO.C,S14*%
X233916727Y-119535864D03*
D16*
X234416727Y-115785863D03*
X239416727Y-113585864D03*
X239416727Y-113585864D03*
D17*
X239416727Y-119535864D03*
D16*
X244416727Y-115785864D03*
D15*
X244916727Y-119535864D03*
D18*
X236141727Y-113585864D03*
X247691727Y-115785864D03*
%TD*%
D20*
%TO.C,H6*%
X268416727Y-166535865D03*
%TD*%
%TO.C,H3*%
X212716727Y-121035865D03*
%TD*%
D15*
%TO.C,S2*%
X161916727Y-134535865D03*
D16*
X162416727Y-130785864D03*
X167416727Y-128585865D03*
X167416727Y-128585865D03*
D17*
X167416727Y-134535865D03*
D16*
X172416727Y-130785865D03*
D15*
X172916727Y-134535865D03*
D18*
X164141727Y-128585865D03*
X175691727Y-130785865D03*
%TD*%
D21*
%TO.C,PAD1*%
X276166727Y-136535865D03*
X278666727Y-136535865D03*
%TD*%
D20*
%TO.C,H2*%
X176716727Y-155035865D03*
%TD*%
D15*
%TO.C,S17*%
X251916727Y-119535864D03*
D16*
X252416727Y-115785863D03*
X257416727Y-113585864D03*
X257416727Y-113585864D03*
D17*
X257416727Y-119535864D03*
D16*
X262416727Y-115785864D03*
D15*
X262916727Y-119535864D03*
D18*
X254141727Y-113585864D03*
X265691727Y-115785864D03*
%TD*%
D15*
%TO.C,S13*%
X233916727Y-136535864D03*
D16*
X234416727Y-132785863D03*
X239416727Y-130585864D03*
X239416727Y-130585864D03*
D17*
X239416727Y-136535864D03*
D16*
X244416727Y-132785864D03*
D15*
X244916727Y-136535864D03*
D18*
X236141727Y-130585864D03*
X247691727Y-132785864D03*
%TD*%
D22*
%TO.C,MCU1*%
X285511687Y-111915865D03*
X285511686Y-114455865D03*
X285511686Y-116995865D03*
X285511686Y-119535865D03*
X285511686Y-122075865D03*
X285511686Y-124615865D03*
X285511686Y-127155865D03*
X269321765Y-127155865D03*
X269321766Y-124615865D03*
X269321766Y-122075865D03*
X269321766Y-119535865D03*
X269321766Y-116995865D03*
X269321766Y-114455865D03*
X269321766Y-111915865D03*
D23*
X272971726Y-119218865D03*
X281861726Y-119218865D03*
%TD*%
D15*
%TO.C,S19*%
X249327678Y-172010138D03*
D16*
X250781212Y-168517326D03*
X256180243Y-167686384D03*
X256180243Y-167686384D03*
D17*
X254640270Y-173433643D03*
D16*
X260440471Y-171105516D03*
D15*
X259952862Y-174857148D03*
D24*
X253016836Y-166838752D03*
X263603878Y-171953149D03*
%TD*%
D15*
%TO.C,S3*%
X179916727Y-163535865D03*
D16*
X180416727Y-159785864D03*
X185416727Y-157585865D03*
X185416727Y-157585865D03*
D17*
X185416727Y-163535865D03*
D16*
X190416727Y-159785865D03*
D15*
X190916727Y-163535865D03*
D18*
X182141727Y-157585865D03*
X193691727Y-159785865D03*
%TD*%
D20*
%TO.C,H4*%
X227416727Y-158535865D03*
%TD*%
D15*
%TO.C,S10*%
X215916726Y-129535864D03*
D16*
X216416726Y-125785863D03*
X221416726Y-123585864D03*
X221416726Y-123585864D03*
D17*
X221416726Y-129535864D03*
D16*
X226416726Y-125785864D03*
D15*
X226916726Y-129535864D03*
D18*
X218141726Y-123585864D03*
X229691726Y-125785864D03*
%TD*%
D15*
%TO.C,S1*%
X161916727Y-151535865D03*
D16*
X162416727Y-147785864D03*
X167416727Y-145585865D03*
X167416727Y-145585865D03*
D17*
X167416727Y-151535865D03*
D16*
X172416727Y-147785865D03*
D15*
X172916727Y-151535865D03*
D18*
X164141727Y-145585865D03*
X175691727Y-147785865D03*
%TD*%
D15*
%TO.C,S11*%
X215916727Y-112535865D03*
D16*
X216416727Y-108785864D03*
X221416727Y-106585865D03*
X221416727Y-106585865D03*
D17*
X221416727Y-112535865D03*
D16*
X226416727Y-108785865D03*
D15*
X226916727Y-112535865D03*
D18*
X218141727Y-106585865D03*
X229691727Y-108785865D03*
%TD*%
D20*
%TO.C,H5*%
X248416727Y-128035864D03*
%TD*%
D15*
%TO.C,S9*%
X215916727Y-146535864D03*
D16*
X216416727Y-142785863D03*
X221416727Y-140585864D03*
X221416727Y-140585864D03*
D17*
X221416727Y-146535864D03*
D16*
X226416727Y-142785864D03*
D15*
X226916727Y-146535864D03*
D18*
X218141727Y-140585864D03*
X229691727Y-142785864D03*
%TD*%
D15*
%TO.C,S16*%
X251916726Y-136535865D03*
D16*
X252416726Y-132785864D03*
X257416726Y-130585865D03*
X257416726Y-130585865D03*
D17*
X257416726Y-136535865D03*
D16*
X262416726Y-132785865D03*
D15*
X262916726Y-136535865D03*
D18*
X254141726Y-130585865D03*
X265691726Y-132785865D03*
%TD*%
D15*
%TO.C,S6*%
X197916727Y-153535865D03*
D16*
X198416727Y-149785864D03*
X203416727Y-147585865D03*
X203416727Y-147585865D03*
D17*
X203416727Y-153535865D03*
D16*
X208416727Y-149785865D03*
D15*
X208916727Y-153535865D03*
D18*
X200141727Y-147585865D03*
X211691727Y-149785865D03*
%TD*%
D15*
%TO.C,S8*%
X197916727Y-119535865D03*
D16*
X198416727Y-115785864D03*
X203416727Y-113585865D03*
X203416727Y-113585865D03*
D17*
X203416727Y-119535865D03*
D16*
X208416727Y-115785865D03*
D15*
X208916727Y-119535865D03*
D18*
X200141727Y-113585865D03*
X211691727Y-115785865D03*
%TD*%
D15*
%TO.C,S7*%
X197916727Y-136535865D03*
D16*
X198416727Y-132785864D03*
X203416727Y-130585865D03*
X203416727Y-130585865D03*
D17*
X203416727Y-136535865D03*
D16*
X208416727Y-132785865D03*
D15*
X208916727Y-136535865D03*
D18*
X200141727Y-130585865D03*
X211691727Y-132785865D03*
%TD*%
D15*
%TO.C,S4*%
X179916726Y-146535865D03*
D16*
X180416726Y-142785864D03*
X185416726Y-140585865D03*
X185416726Y-140585865D03*
D17*
X185416726Y-146535865D03*
D16*
X190416726Y-142785865D03*
D15*
X190916726Y-146535865D03*
D18*
X182141726Y-140585865D03*
X193691726Y-142785865D03*
%TD*%
D20*
%TO.C,H1*%
X176716727Y-138035865D03*
%TD*%
D15*
%TO.C,S5*%
X179916727Y-129535865D03*
D16*
X180416727Y-125785864D03*
X185416727Y-123585865D03*
X185416727Y-123585865D03*
D17*
X185416727Y-129535865D03*
D16*
X190416727Y-125785865D03*
D15*
X190916727Y-129535865D03*
D18*
X182141727Y-123585865D03*
X193691727Y-125785865D03*
%TD*%
D15*
%TO.C,S18*%
X227916727Y-170535865D03*
D16*
X228416727Y-166785864D03*
X233416727Y-164585865D03*
X233416727Y-164585865D03*
D17*
X233416727Y-170535865D03*
D16*
X238416727Y-166785865D03*
D15*
X238916727Y-170535865D03*
D18*
X230141727Y-164585865D03*
X241691727Y-166785865D03*
%TD*%
D25*
%TO.C,Di14*%
X237316727Y-124535864D03*
D26*
X237766727Y-124535863D03*
X241066727Y-124535865D03*
D25*
X241516727Y-124535864D03*
%TD*%
%TO.C,Di7*%
X201316727Y-141535865D03*
D26*
X201766727Y-141535864D03*
X205066727Y-141535866D03*
D25*
X205516727Y-141535865D03*
%TD*%
%TO.C,Di1*%
X165316727Y-156535865D03*
D26*
X165766727Y-156535864D03*
X169066727Y-156535866D03*
D25*
X169516727Y-156535865D03*
%TD*%
%TO.C,Di6*%
X201316727Y-158535865D03*
D26*
X201766727Y-158535864D03*
X205066727Y-158535866D03*
D25*
X205516727Y-158535865D03*
%TD*%
%TO.C,Di11*%
X219316727Y-117535864D03*
D26*
X219766727Y-117535863D03*
X223066727Y-117535865D03*
D25*
X223516727Y-117535864D03*
%TD*%
%TO.C,Di20*%
X269348441Y-184706162D03*
D27*
X269738152Y-184931163D03*
X272596036Y-186581161D03*
D25*
X272985747Y-186806162D03*
%TD*%
%TO.C,Di19*%
X251317731Y-177719753D03*
D28*
X251752397Y-177836223D03*
X254939953Y-178690323D03*
D25*
X255374619Y-178806793D03*
%TD*%
%TO.C,Di18*%
X231316726Y-175535865D03*
D26*
X231766726Y-175535864D03*
X235066726Y-175535866D03*
D25*
X235516726Y-175535865D03*
%TD*%
%TO.C,Di17*%
X255316727Y-124535865D03*
D26*
X255766727Y-124535864D03*
X259066727Y-124535866D03*
D25*
X259516727Y-124535865D03*
%TD*%
%TO.C,Di10*%
X219316727Y-134535864D03*
D26*
X219766727Y-134535863D03*
X223066727Y-134535865D03*
D25*
X223516727Y-134535864D03*
%TD*%
%TO.C,Di8*%
X201316727Y-124535865D03*
D26*
X201766727Y-124535864D03*
X205066727Y-124535866D03*
D25*
X205516727Y-124535865D03*
%TD*%
%TO.C,Di12*%
X237316726Y-158535864D03*
D26*
X237766726Y-158535863D03*
X241066726Y-158535865D03*
D25*
X241516726Y-158535864D03*
%TD*%
%TO.C,Di3*%
X183316726Y-168535864D03*
D26*
X183766726Y-168535863D03*
X187066726Y-168535865D03*
D25*
X187516726Y-168535864D03*
%TD*%
%TO.C,Di4*%
X183316727Y-151535865D03*
D26*
X183766727Y-151535864D03*
X187066727Y-151535866D03*
D25*
X187516727Y-151535865D03*
%TD*%
%TO.C,Di16*%
X255316727Y-141535865D03*
D26*
X255766727Y-141535864D03*
X259066727Y-141535866D03*
D25*
X259516727Y-141535865D03*
%TD*%
%TO.C,Di2*%
X165316727Y-139535865D03*
D26*
X165766727Y-139535864D03*
X169066727Y-139535866D03*
D25*
X169516727Y-139535865D03*
%TD*%
%TO.C,Di13*%
X237316727Y-141535865D03*
D26*
X237766727Y-141535864D03*
X241066727Y-141535866D03*
D25*
X241516727Y-141535865D03*
%TD*%
%TO.C,Di15*%
X255316726Y-158535865D03*
D26*
X255766726Y-158535864D03*
X259066726Y-158535866D03*
D25*
X259516726Y-158535865D03*
%TD*%
%TO.C,Di9*%
X219316726Y-151535865D03*
D26*
X219766726Y-151535864D03*
X223066726Y-151535866D03*
D25*
X223516726Y-151535865D03*
%TD*%
%TO.C,Di5*%
X183316727Y-134535865D03*
D26*
X183766727Y-134535864D03*
X187066727Y-134535866D03*
D25*
X187516727Y-134535865D03*
%TD*%
M02*
