%TF.GenerationSoftware,KiCad,Pcbnew,9.0.1*%
%TF.CreationDate,2025-06-09T17:49:50+02:00*%
%TF.ProjectId,pcb,7063622e-6b69-4636-9164-5f7063625858,v1.0.0*%
%TF.SameCoordinates,Original*%
%TF.FileFunction,Copper,L1,Top*%
%TF.FilePolarity,Positive*%
%FSLAX46Y46*%
G04 Gerber Fmt 4.6, Leading zero omitted, Abs format (unit mm)*
G04 Created by KiCad (PCBNEW 9.0.1) date 2025-06-09 17:49:50*
%MOMM*%
%LPD*%
G01*
G04 APERTURE LIST*
G04 Aperture macros list*
%AMRotRect*
0 Rectangle, with rotation*
0 The origin of the aperture is its center*
0 $1 length*
0 $2 width*
0 $3 Rotation angle, in degrees counterclockwise*
0 Add horizontal line*
21,1,$1,$2,0,0,$3*%
%AMFreePoly0*
4,1,6,1.000000,0.000000,0.500000,-0.750000,-0.500000,-0.750000,-0.500000,0.750000,0.500000,0.750000,1.000000,0.000000,1.000000,0.000000,$1*%
%AMFreePoly1*
4,1,6,0.500000,-0.750000,-0.650000,-0.750000,-0.150000,0.000000,-0.650000,0.750000,0.500000,0.750000,0.500000,-0.750000,0.500000,-0.750000,$1*%
G04 Aperture macros list end*
%TA.AperFunction,NonConductor*%
%ADD10C,0.100000*%
%TD*%
%TA.AperFunction,ComponentPad*%
%ADD11C,1.700000*%
%TD*%
%TA.AperFunction,SMDPad,CuDef*%
%ADD12FreePoly0,90.000000*%
%TD*%
%TA.AperFunction,SMDPad,CuDef*%
%ADD13FreePoly1,90.000000*%
%TD*%
%TA.AperFunction,SMDPad,CuDef*%
%ADD14R,2.600000X2.600000*%
%TD*%
%TA.AperFunction,SMDPad,CuDef*%
%ADD15RotRect,2.600000X2.600000X330.000000*%
%TD*%
%TA.AperFunction,ComponentPad*%
%ADD16C,5.200000*%
%TD*%
%TA.AperFunction,SMDPad,CuDef*%
%ADD17R,1.250000X2.500000*%
%TD*%
%TA.AperFunction,SMDPad,CuDef*%
%ADD18O,2.750000X1.800000*%
%TD*%
%TA.AperFunction,CastellatedPad*%
%ADD19C,1.397000*%
%TD*%
%TA.AperFunction,SMDPad,CuDef*%
%ADD20RotRect,2.600000X2.600000X345.000000*%
%TD*%
%TA.AperFunction,ComponentPad*%
%ADD21C,0.600000*%
%TD*%
%TA.AperFunction,SMDPad,CuDef*%
%ADD22R,0.900000X1.200000*%
%TD*%
%TA.AperFunction,SMDPad,CuDef*%
%ADD23RotRect,0.900000X1.200000X330.000000*%
%TD*%
%TA.AperFunction,SMDPad,CuDef*%
%ADD24RotRect,0.900000X1.200000X345.000000*%
%TD*%
%TA.AperFunction,ViaPad*%
%ADD25C,0.800000*%
%TD*%
%TA.AperFunction,Conductor*%
%ADD26C,0.250000*%
%TD*%
G04 APERTURE END LIST*
D10*
X215544180Y-165680103D02*
X215624516Y-165759866D01*
X215631387Y-165889659D01*
X215634622Y-166019620D01*
X215636991Y-166149668D01*
X215639016Y-166279615D01*
X215640891Y-166409614D01*
X215642690Y-166539527D01*
X215644573Y-166669598D01*
X215646450Y-166799574D01*
X215648181Y-166929484D01*
X215649671Y-167059518D01*
X215650710Y-167189489D01*
X215650762Y-167319655D01*
X215646998Y-167449475D01*
X215545538Y-167501891D01*
X215415861Y-167508667D01*
X215287257Y-167492740D01*
X215251012Y-167377426D01*
X215247478Y-167247478D01*
X215245208Y-167117662D01*
X215243549Y-166987686D01*
X215242284Y-166857464D01*
X215241311Y-166727592D01*
X215240566Y-166597518D01*
X215239919Y-166467483D01*
X215239325Y-166337610D01*
X215238849Y-166207502D01*
X215238605Y-166077644D01*
X215238842Y-165947515D01*
X215240381Y-165817645D01*
X215254628Y-165689927D01*
X215414101Y-165676902D01*
X215544180Y-165680103D01*
X206608827Y-169316993D02*
X206535129Y-169423826D01*
X206460185Y-169530071D01*
X206384731Y-169635927D01*
X206308976Y-169741586D01*
X206232997Y-169847181D01*
X206156943Y-169952628D01*
X206080836Y-170057985D01*
X206004621Y-170163377D01*
X205928425Y-170268661D01*
X205849207Y-170371644D01*
X205750553Y-170393076D01*
X205806099Y-170279969D01*
X205882490Y-170174712D01*
X205958345Y-170069148D01*
X206034003Y-169963473D01*
X206109539Y-169857701D01*
X206185039Y-169751828D01*
X206260777Y-169646173D01*
X206336493Y-169540464D01*
X206412084Y-169434884D01*
X206487873Y-169329041D01*
X206563670Y-169223426D01*
X206678926Y-169207454D01*
X206608827Y-169316993D01*
X210841228Y-168655954D02*
X210878647Y-168780276D01*
X210924243Y-168902256D01*
X210973279Y-169022583D01*
X211024536Y-169141917D01*
X211077530Y-169260663D01*
X211131901Y-169378800D01*
X211187417Y-169496280D01*
X211244121Y-169613430D01*
X211301718Y-169729775D01*
X211360395Y-169845725D01*
X211420205Y-169961337D01*
X211480999Y-170076218D01*
X211542377Y-170190897D01*
X211535793Y-170290972D01*
X211451524Y-170214697D01*
X211389336Y-170100435D01*
X211328816Y-169985561D01*
X211269091Y-169870010D01*
X211210122Y-169754121D01*
X211151875Y-169637872D01*
X211094491Y-169521245D01*
X211038280Y-169404038D01*
X210984381Y-169285736D01*
X210932965Y-169166386D01*
X210882823Y-169046475D01*
X210833785Y-168925897D01*
X210786829Y-168804747D01*
X210705374Y-168825849D01*
X210607483Y-168910651D01*
X210492157Y-168970473D01*
X210375839Y-168974270D01*
X210451433Y-168888627D01*
X210564657Y-168825495D01*
X210658337Y-168735766D01*
X210727163Y-168626018D01*
X210841228Y-168655954D01*
X200298159Y-164683527D02*
X200427975Y-164689407D01*
X200557784Y-164696795D01*
X200687423Y-164705074D01*
X200817143Y-164713950D01*
X200946877Y-164722688D01*
X201076686Y-164730535D01*
X201206616Y-164737517D01*
X201336407Y-164743649D01*
X201466265Y-164748966D01*
X201596254Y-164753485D01*
X201726128Y-164757218D01*
X201855958Y-164760184D01*
X201985975Y-164762398D01*
X202116101Y-164763870D01*
X202245938Y-164764604D01*
X202376049Y-164764615D01*
X202506039Y-164763903D01*
X202636154Y-164762473D01*
X202765998Y-164760331D01*
X202895983Y-164757478D01*
X203025873Y-164753910D01*
X203155756Y-164749629D01*
X203285715Y-164744626D01*
X203415733Y-164738906D01*
X203545451Y-164733311D01*
X203675552Y-164730581D01*
X203803640Y-164749700D01*
X203923117Y-164800098D01*
X204033468Y-164868379D01*
X204140920Y-164941859D01*
X204248353Y-165015117D01*
X204355911Y-165088182D01*
X204463478Y-165160899D01*
X204571435Y-165233409D01*
X204679746Y-165305473D01*
X204788357Y-165376556D01*
X204898588Y-165445473D01*
X205007470Y-165516229D01*
X205092194Y-165614146D01*
X205152132Y-165729454D01*
X205172223Y-165854713D01*
X205170599Y-165984636D01*
X205168883Y-166114777D01*
X205166649Y-166244622D01*
X205164213Y-166374520D01*
X205161644Y-166504463D01*
X205158955Y-166634553D01*
X205156145Y-166764549D01*
X205153560Y-166894524D01*
X205151849Y-167024399D01*
X205150491Y-167154450D01*
X205149337Y-167284554D01*
X205148334Y-167414359D01*
X205147446Y-167544494D01*
X205146661Y-167674354D01*
X205145963Y-167804502D01*
X205145353Y-167934406D01*
X205144823Y-168064449D01*
X205144372Y-168194366D01*
X205143998Y-168324352D01*
X205143705Y-168454401D01*
X205143493Y-168584589D01*
X205143366Y-168714381D01*
X205143299Y-168844497D01*
X205142956Y-168974534D01*
X205142569Y-169104508D01*
X205142130Y-169234560D01*
X205141633Y-169364468D01*
X205141061Y-169494420D01*
X205140404Y-169624378D01*
X205139637Y-169754365D01*
X205138730Y-169884528D01*
X205137633Y-170014453D01*
X205136258Y-170144487D01*
X205134429Y-170274336D01*
X205131611Y-170404371D01*
X205116491Y-170532825D01*
X205056179Y-170647515D01*
X204965847Y-170740421D01*
X204854125Y-170805814D01*
X204728620Y-170837988D01*
X204598770Y-170842170D01*
X204468728Y-170841908D01*
X204338749Y-170840895D01*
X204208733Y-170839813D01*
X204078758Y-170838164D01*
X203948766Y-170836111D01*
X203818855Y-170833799D01*
X203688917Y-170831291D01*
X203558763Y-170828618D01*
X203429015Y-170825811D01*
X203298838Y-170822858D01*
X203169105Y-170819777D01*
X203039143Y-170816545D01*
X202908969Y-170813437D01*
X202779044Y-170810776D01*
X202648999Y-170808435D01*
X202519222Y-170806355D01*
X202389243Y-170804483D01*
X202259045Y-170802791D01*
X202129120Y-170801260D01*
X201999154Y-170799867D01*
X201869223Y-170798602D01*
X201739269Y-170797451D01*
X201609117Y-170796404D01*
X201479179Y-170795457D01*
X201349133Y-170794602D01*
X201219291Y-170793837D01*
X201089220Y-170793152D01*
X200959153Y-170792548D01*
X200829314Y-170792021D01*
X200699150Y-170791568D01*
X200569218Y-170791187D01*
X200439164Y-170790785D01*
X200309088Y-170790318D01*
X200179255Y-170789814D01*
X200049202Y-170789261D01*
X199919276Y-170788657D01*
X199789083Y-170787982D01*
X199659158Y-170787223D01*
X199529226Y-170786353D01*
X199399195Y-170785332D01*
X199269284Y-170784104D01*
X199139261Y-170782554D01*
X199009205Y-170780439D01*
X198879309Y-170776968D01*
X198752465Y-170754181D01*
X198638872Y-170691689D01*
X198547197Y-170600183D01*
X198486235Y-170485679D01*
X198462149Y-170358524D01*
X198461792Y-170228557D01*
X198464233Y-170098716D01*
X198467532Y-169968585D01*
X198471243Y-169838788D01*
X198475205Y-169708812D01*
X198479334Y-169578729D01*
X198483566Y-169448935D01*
X198487886Y-169318978D01*
X198492269Y-169188971D01*
X198496696Y-169059110D01*
X198501168Y-168929104D01*
X198505661Y-168799344D01*
X198510189Y-168669281D01*
X198514802Y-168539479D01*
X198519332Y-168409528D01*
X198523779Y-168279644D01*
X198528163Y-168149670D01*
X198532490Y-168019846D01*
X198536780Y-167889741D01*
X198541026Y-167759805D01*
X198545235Y-167629938D01*
X198549414Y-167500126D01*
X198553334Y-167370121D01*
X198557275Y-167240024D01*
X198561250Y-167110322D01*
X198565284Y-166980378D01*
X198569388Y-166850234D01*
X198573553Y-166720536D01*
X198577822Y-166590410D01*
X198582196Y-166460591D01*
X198586730Y-166330517D01*
X198591458Y-166200780D01*
X198596499Y-166070895D01*
X198602064Y-165940986D01*
X198608865Y-165811084D01*
X198628448Y-165682922D01*
X198681238Y-165564790D01*
X198767376Y-165467813D01*
X198874047Y-165393818D01*
X198987486Y-165330669D01*
X199098310Y-165262375D01*
X199207494Y-165191959D01*
X199315819Y-165120168D01*
X199423451Y-165047327D01*
X199530595Y-164973449D01*
X199637046Y-164898792D01*
X199744829Y-164826390D01*
X199856182Y-164759309D01*
X199973490Y-164703334D01*
X200168185Y-164680610D01*
X200298159Y-164683527D01*
X217270404Y-164674213D02*
X217393772Y-164714381D01*
X217507058Y-164777573D01*
X217615694Y-164849069D01*
X217723613Y-164921846D01*
X217831597Y-164994222D01*
X217939863Y-165065973D01*
X218049012Y-165136800D01*
X218159327Y-165205483D01*
X218271903Y-165270108D01*
X218385128Y-165334197D01*
X218491493Y-165408625D01*
X218579918Y-165503312D01*
X218635022Y-165620545D01*
X218655655Y-165748786D01*
X218665258Y-165878456D01*
X218671184Y-166008289D01*
X218675346Y-166138179D01*
X218678513Y-166268242D01*
X218680979Y-166398095D01*
X218683310Y-166528133D01*
X218685954Y-166658198D01*
X218689119Y-166787970D01*
X218694224Y-166917892D01*
X218698289Y-167047916D01*
X218701210Y-167177848D01*
X218703699Y-167307785D01*
X218705906Y-167437779D01*
X218708135Y-167567795D01*
X218710805Y-167697802D01*
X218713943Y-167827784D01*
X218717821Y-167957617D01*
X218722493Y-168087541D01*
X218725690Y-168217439D01*
X218728400Y-168347603D01*
X218730720Y-168477466D01*
X218732687Y-168607488D01*
X218734815Y-168737427D01*
X218737317Y-168867299D01*
X218740237Y-168997380D01*
X218743864Y-169127353D01*
X218749207Y-169257145D01*
X218752825Y-169387080D01*
X218755898Y-169517123D01*
X218758656Y-169647164D01*
X218761169Y-169777148D01*
X218763446Y-169907073D01*
X218765460Y-170037097D01*
X218767091Y-170167039D01*
X218767855Y-170297022D01*
X218757278Y-170426394D01*
X218715510Y-170549092D01*
X218640186Y-170654366D01*
X218536532Y-170732321D01*
X218412980Y-170768260D01*
X218283250Y-170777204D01*
X218153362Y-170780974D01*
X218023253Y-170782911D01*
X217893328Y-170783972D01*
X217763185Y-170784560D01*
X217633252Y-170784867D01*
X217503312Y-170785001D01*
X217373293Y-170785032D01*
X217243348Y-170784996D01*
X217113230Y-170784922D01*
X216983304Y-170784827D01*
X216853329Y-170784727D01*
X216723394Y-170784628D01*
X216593320Y-170784568D01*
X216463183Y-170784628D01*
X216333357Y-170784759D01*
X216203355Y-170784959D01*
X216073213Y-170785222D01*
X215943333Y-170785548D01*
X215813391Y-170785936D01*
X215683272Y-170786387D01*
X215553254Y-170786901D01*
X215423309Y-170787477D01*
X215293312Y-170788123D01*
X215163417Y-170788838D01*
X215033261Y-170789630D01*
X214903354Y-170790505D01*
X214773388Y-170791474D01*
X214643277Y-170792557D01*
X214513394Y-170793772D01*
X214383332Y-170795166D01*
X214253450Y-170796808D01*
X214123420Y-170798872D01*
X213993303Y-170801573D01*
X213863409Y-170804052D01*
X213733396Y-170806354D01*
X213603344Y-170808496D01*
X213473550Y-170810478D01*
X213343552Y-170812314D01*
X213213512Y-170813979D01*
X213083420Y-170815439D01*
X212953612Y-170816612D01*
X212823489Y-170817224D01*
X212693504Y-170817574D01*
X212563401Y-170817927D01*
X212433534Y-170818278D01*
X212314896Y-170772414D01*
X212210359Y-170695760D01*
X212130289Y-170594107D01*
X212096840Y-170495356D01*
X212284054Y-170495356D01*
X212353412Y-170604457D01*
X212462169Y-170673826D01*
X212590099Y-170692347D01*
X212719964Y-170693587D01*
X212849986Y-170692621D01*
X212980020Y-170690921D01*
X213110001Y-170688889D01*
X213239967Y-170686689D01*
X213370021Y-170684396D01*
X213499941Y-170682196D01*
X213629895Y-170680038D01*
X213759903Y-170677744D01*
X213889905Y-170675318D01*
X214019842Y-170672756D01*
X214149873Y-170670040D01*
X214279694Y-170667133D01*
X214409753Y-170663855D01*
X214539753Y-170658159D01*
X214669435Y-170653427D01*
X214799532Y-170649371D01*
X214929485Y-170645645D01*
X215059270Y-170641977D01*
X215189245Y-170638311D01*
X215319173Y-170634645D01*
X215449211Y-170630968D01*
X215579051Y-170627287D01*
X215709156Y-170623584D01*
X215839027Y-170619873D01*
X215969030Y-170616077D01*
X216098903Y-170612214D01*
X216228874Y-170608600D01*
X216358777Y-170605191D01*
X216488808Y-170601950D01*
X216618721Y-170598866D01*
X216748689Y-170595921D01*
X216878723Y-170593110D01*
X217008738Y-170590434D01*
X217138636Y-170587902D01*
X217268667Y-170585521D01*
X217398588Y-170583322D01*
X217528671Y-170581349D01*
X217658520Y-170579577D01*
X217788616Y-170577742D01*
X217918595Y-170575810D01*
X218048563Y-170573600D01*
X218178555Y-170570587D01*
X218308396Y-170564250D01*
X218430813Y-170525853D01*
X218521306Y-170433810D01*
X218553308Y-170310346D01*
X218552156Y-170180234D01*
X218549557Y-170050313D01*
X218546320Y-169920452D01*
X218542651Y-169790552D01*
X218538629Y-169660652D01*
X218534496Y-169530504D01*
X218530432Y-169400625D01*
X218526437Y-169270763D01*
X218522519Y-169140732D01*
X218518697Y-169010756D01*
X218514981Y-168880876D01*
X218511381Y-168751016D01*
X218507894Y-168621036D01*
X218504528Y-168491086D01*
X218501278Y-168361112D01*
X218498144Y-168231203D01*
X218495112Y-168101178D01*
X218492177Y-167971185D01*
X218489329Y-167841257D01*
X218486555Y-167711256D01*
X218483850Y-167581339D01*
X218481198Y-167451241D01*
X218478600Y-167321309D01*
X218476046Y-167191397D01*
X218473529Y-167061470D01*
X218470963Y-166931443D01*
X218468380Y-166801312D01*
X218465778Y-166671484D01*
X218463122Y-166541443D01*
X218460392Y-166411626D01*
X218457522Y-166281514D01*
X218454418Y-166151493D01*
X218450883Y-166021647D01*
X218446400Y-165891789D01*
X218439093Y-165761849D01*
X218412031Y-165635485D01*
X218337803Y-165529810D01*
X218239188Y-165445171D01*
X218134806Y-165367658D01*
X218028773Y-165292532D01*
X217922024Y-165218301D01*
X217814655Y-165144994D01*
X217706188Y-165073272D01*
X217643018Y-165081163D01*
X217652365Y-165210734D01*
X217656824Y-165340631D01*
X217660510Y-165470485D01*
X217663742Y-165600424D01*
X217666636Y-165730564D01*
X217669233Y-165860476D01*
X217671564Y-165990412D01*
X217673796Y-166120338D01*
X217676061Y-166250474D01*
X217678360Y-166380524D01*
X217680692Y-166510419D01*
X217683070Y-166640340D01*
X217685510Y-166770402D01*
X217688039Y-166900441D01*
X217690740Y-167030264D01*
X217693801Y-167160297D01*
X217696523Y-167290151D01*
X217699004Y-167420225D01*
X217701312Y-167550120D01*
X217703475Y-167680164D01*
X217705482Y-167810172D01*
X217707549Y-167940185D01*
X217709869Y-168070188D01*
X217712190Y-168200089D01*
X217714510Y-168330078D01*
X217649395Y-168404081D01*
X217627530Y-168285154D01*
X217623138Y-168155175D01*
X217619502Y-168025110D01*
X217616263Y-167895346D01*
X217613269Y-167765370D01*
X217610454Y-167635382D01*
X217607780Y-167505371D01*
X217605223Y-167375425D01*
X217602761Y-167245441D01*
X217600381Y-167115368D01*
X217598078Y-166985413D01*
X217595843Y-166855579D01*
X217593664Y-166725505D01*
X217591544Y-166595497D01*
X217589477Y-166465590D01*
X217587457Y-166335523D01*
X217585525Y-166205492D01*
X217583404Y-166075689D01*
X217581081Y-165945655D01*
X217578579Y-165815513D01*
X217575901Y-165685586D01*
X217573001Y-165555593D01*
X217569748Y-165425833D01*
X217566123Y-165295757D01*
X217560758Y-165165935D01*
X217537669Y-165038560D01*
X217470796Y-164927795D01*
X217375321Y-164839999D01*
X217072828Y-164759868D01*
X216998737Y-164759067D01*
X216868576Y-164762235D01*
X216739002Y-164768993D01*
X216609047Y-164777461D01*
X216479414Y-164784908D01*
X216349662Y-164791464D01*
X216219684Y-164797204D01*
X216089814Y-164802170D01*
X215959745Y-164806411D01*
X215829958Y-164809943D01*
X215699908Y-164812799D01*
X215569871Y-164814976D01*
X215439836Y-164816480D01*
X215309938Y-164817297D01*
X215179903Y-164817412D01*
X215050058Y-164816799D01*
X214919942Y-164815413D01*
X214789867Y-164813199D01*
X214659967Y-164810090D01*
X214529996Y-164805981D01*
X214400103Y-164801268D01*
X214270320Y-164796603D01*
X214140377Y-164792065D01*
X214010418Y-164787836D01*
X213880468Y-164784286D01*
X213750500Y-164782351D01*
X213620592Y-164785283D01*
X213493545Y-164810350D01*
X213381699Y-164875614D01*
X213291369Y-164968675D01*
X213222549Y-165078699D01*
X213194674Y-165202235D01*
X213195570Y-165332175D01*
X213196466Y-165462221D01*
X213197363Y-165592152D01*
X213198229Y-165722066D01*
X213198968Y-165852189D01*
X213199787Y-165982180D01*
X213200690Y-166112109D01*
X213201674Y-166242019D01*
X213202749Y-166372181D01*
X213203909Y-166502068D01*
X213205163Y-166632123D01*
X213206510Y-166761997D01*
X213207962Y-166892003D01*
X213209524Y-167022128D01*
X213211199Y-167152041D01*
X213213004Y-167282168D01*
X213214948Y-167412103D01*
X213217051Y-167542048D01*
X213219338Y-167672027D01*
X213221842Y-167801921D01*
X213224618Y-167931835D01*
X213227756Y-168061994D01*
X213231394Y-168191749D01*
X213235899Y-168321808D01*
X213242568Y-168451545D01*
X213272932Y-168577229D01*
X213335110Y-168691157D01*
X213421556Y-168787836D01*
X213529175Y-168860298D01*
X213653047Y-168897133D01*
X213782320Y-168910512D01*
X213911831Y-168922360D01*
X214041314Y-168933458D01*
X214170909Y-168943567D01*
X214300577Y-168952679D01*
X214430273Y-168960789D01*
X214560117Y-168967902D01*
X214690063Y-168974010D01*
X214819901Y-168979098D01*
X214949750Y-168983164D01*
X215079727Y-168986204D01*
X215209780Y-168988206D01*
X215339699Y-168989155D01*
X215469914Y-168989040D01*
X215599893Y-168987849D01*
X215729898Y-168985564D01*
X215859716Y-168982173D01*
X215989761Y-168977643D01*
X216119502Y-168971975D01*
X216249344Y-168965125D01*
X216379217Y-168957069D01*
X216508742Y-168947805D01*
X216638406Y-168938452D01*
X216768218Y-168932736D01*
X216744719Y-169019496D01*
X216615546Y-169034810D01*
X216486016Y-169045092D01*
X216356186Y-169053371D01*
X216226545Y-169060334D01*
X216096452Y-169066297D01*
X215966697Y-169071350D01*
X215836761Y-169075561D01*
X215706753Y-169078910D01*
X215576704Y-169081326D01*
X215446681Y-169082666D01*
X215316901Y-169082708D01*
X215186772Y-169081442D01*
X215056867Y-169079072D01*
X214926782Y-169075726D01*
X214796966Y-169071503D01*
X214666918Y-169066440D01*
X214537270Y-169060579D01*
X214407355Y-169053881D01*
X214277621Y-169046320D01*
X214147896Y-169037797D01*
X214018141Y-169028137D01*
X213888745Y-169017062D01*
X213759375Y-169003904D01*
X213630471Y-168986956D01*
X213505193Y-168954358D01*
X213392004Y-168890725D01*
X213296221Y-168803280D01*
X213223656Y-168695875D01*
X213157501Y-168638872D01*
X213110196Y-168759867D01*
X213059002Y-168879464D01*
X213005446Y-168997799D01*
X212950416Y-169115558D01*
X212894315Y-169232937D01*
X212837483Y-169349741D01*
X212779904Y-169466290D01*
X212721641Y-169582579D01*
X212662787Y-169698451D01*
X212603197Y-169814107D01*
X212542929Y-169929249D01*
X212481719Y-170043971D01*
X212419289Y-170158002D01*
X212354912Y-170270753D01*
X212284785Y-170380233D01*
X212284054Y-170495356D01*
X212096840Y-170495356D01*
X212089337Y-170473205D01*
X212089768Y-170343087D01*
X212090199Y-170213276D01*
X212090629Y-170083283D01*
X212091061Y-169953211D01*
X212091491Y-169823267D01*
X212091921Y-169693257D01*
X212092354Y-169563182D01*
X212092783Y-169433239D01*
X212093228Y-169303320D01*
X212093591Y-169173215D01*
X212093766Y-169043318D01*
X212093788Y-168913218D01*
X212093681Y-168783132D01*
X212093457Y-168653153D01*
X212093131Y-168523091D01*
X212092708Y-168393177D01*
X212092191Y-168263226D01*
X212091585Y-168133284D01*
X212090888Y-168003214D01*
X212090101Y-167873196D01*
X212089220Y-167743129D01*
X212088242Y-167613291D01*
X212087156Y-167483315D01*
X212085950Y-167353332D01*
X212084611Y-167223178D01*
X212083112Y-167093141D01*
X212081420Y-166963267D01*
X212079727Y-166833233D01*
X212078075Y-166703160D01*
X212076485Y-166573276D01*
X212074987Y-166443277D01*
X212073638Y-166313221D01*
X212072535Y-166183229D01*
X212071881Y-166053304D01*
X212072187Y-165923306D01*
X212075409Y-165793454D01*
X212098986Y-165666256D01*
X212160759Y-165552468D01*
X212254957Y-165463467D01*
X212363137Y-165391527D01*
X212471787Y-165320142D01*
X212580492Y-165248552D01*
X212688969Y-165176961D01*
X212797452Y-165105210D01*
X212905824Y-165033383D01*
X213014154Y-164961725D01*
X213122969Y-164890469D01*
X213232677Y-164820761D01*
X213344947Y-164755472D01*
X213464111Y-164704168D01*
X213592488Y-164684888D01*
X213722373Y-164685062D01*
X213852327Y-164687617D01*
X213982192Y-164691553D01*
X214112206Y-164696207D01*
X214242172Y-164701471D01*
X214371959Y-164706789D01*
X214501831Y-164711564D01*
X214631832Y-164715728D01*
X214761790Y-164719214D01*
X214891632Y-164721960D01*
X215021661Y-164723921D01*
X215151804Y-164725053D01*
X215281774Y-164725321D01*
X215411742Y-164724715D01*
X215541740Y-164723236D01*
X215671788Y-164720901D01*
X215801555Y-164717751D01*
X215931675Y-164713813D01*
X216061520Y-164709160D01*
X216191413Y-164703840D01*
X216321292Y-164697921D01*
X216451001Y-164691468D01*
X216580968Y-164684521D01*
X216710638Y-164677171D01*
X216912357Y-164717359D01*
X216751543Y-164674759D01*
X216881222Y-164667438D01*
X217011127Y-164661743D01*
X217141173Y-164661079D01*
X217270404Y-164674213D01*
X208111648Y-165770703D02*
X208114102Y-165900721D01*
X208116550Y-166030479D01*
X208119002Y-166160516D01*
X208121456Y-166290516D01*
X208123908Y-166420516D01*
X208237478Y-166438524D01*
X208367343Y-166439853D01*
X208497345Y-166441186D01*
X208627324Y-166442102D01*
X208757269Y-166442992D01*
X208884726Y-166441299D01*
X208884726Y-166311174D01*
X208884726Y-166181129D01*
X208884755Y-166051265D01*
X208885404Y-165921138D01*
X208890153Y-165791325D01*
X208988828Y-165743557D01*
X209118855Y-165741899D01*
X209248499Y-165748291D01*
X209279705Y-165863638D01*
X209282729Y-165993771D01*
X209284700Y-166123664D01*
X209286168Y-166253779D01*
X209287310Y-166383629D01*
X209288225Y-166513688D01*
X209288960Y-166643640D01*
X209289378Y-166773530D01*
X209289720Y-166903685D01*
X209289954Y-167033689D01*
X209289961Y-167163774D01*
X209289461Y-167293552D01*
X209287453Y-167423517D01*
X209262973Y-167546412D01*
X209134087Y-167561277D01*
X209004118Y-167561335D01*
X208892411Y-167520900D01*
X208885504Y-167391209D01*
X208884787Y-167261233D01*
X208884727Y-167131173D01*
X208884726Y-167001240D01*
X208884726Y-166871183D01*
X208831180Y-166794865D01*
X208701267Y-166794866D01*
X208571029Y-166794865D01*
X208441108Y-166794187D01*
X208311115Y-166792084D01*
X208181220Y-166786351D01*
X208117727Y-166843776D01*
X208117727Y-166973793D01*
X208117726Y-167103774D01*
X208117570Y-167233837D01*
X208116308Y-167363837D01*
X208110866Y-167493703D01*
X208015047Y-167547022D01*
X207884988Y-167548793D01*
X207755374Y-167542203D01*
X207717619Y-167431319D01*
X207715344Y-167301482D01*
X207714822Y-167171340D01*
X207714996Y-167041459D01*
X207715539Y-166911527D01*
X207716304Y-166781376D01*
X207717213Y-166651408D01*
X207718241Y-166521366D01*
X207719316Y-166391349D01*
X207720494Y-166261406D01*
X207721890Y-166131402D01*
X207723787Y-166001575D01*
X207727189Y-165871633D01*
X207748459Y-165745815D01*
X208003858Y-165739134D01*
X208111648Y-165770703D01*
X213432255Y-169297757D02*
X213356913Y-169403725D01*
X213281460Y-169509343D01*
X213205687Y-169615206D01*
X213130007Y-169720839D01*
X213054253Y-169826528D01*
X212978553Y-169932110D01*
X212902890Y-170037740D01*
X212827000Y-170143292D01*
X212750190Y-170248224D01*
X212670609Y-170351087D01*
X212575064Y-170408628D01*
X212614575Y-170292154D01*
X212687774Y-170184836D01*
X212762572Y-170078355D01*
X212837806Y-169972312D01*
X212913228Y-169866486D01*
X212988839Y-169760657D01*
X213064471Y-169654944D01*
X213140103Y-169549321D01*
X213215768Y-169443703D01*
X213291564Y-169337923D01*
X213367293Y-169232252D01*
X213506454Y-169190936D01*
X213432255Y-169297757D01*
X201361386Y-165659706D02*
X201491191Y-165664846D01*
X201621141Y-165671158D01*
X201750910Y-165678618D01*
X201880610Y-165687543D01*
X202010073Y-165699145D01*
X202137215Y-165725104D01*
X202255615Y-165778014D01*
X202358735Y-165856613D01*
X202438887Y-165958434D01*
X202490847Y-166077474D01*
X202513345Y-166205148D01*
X202508824Y-166334759D01*
X202476757Y-166460554D01*
X202416017Y-166575061D01*
X202329239Y-166671392D01*
X202222472Y-166745043D01*
X202102682Y-166795082D01*
X201975103Y-166818285D01*
X201845337Y-166827563D01*
X201715419Y-166831360D01*
X201585316Y-166829854D01*
X201455827Y-166819938D01*
X201376293Y-166872408D01*
X201371605Y-167002124D01*
X201370676Y-167132193D01*
X201368892Y-167262208D01*
X201359543Y-167391759D01*
X201276334Y-167466281D01*
X201146379Y-167462950D01*
X201016975Y-167451669D01*
X200964328Y-167348465D01*
X200966874Y-167218372D01*
X200972454Y-167088629D01*
X200977447Y-166958723D01*
X200982052Y-166828634D01*
X200986432Y-166698712D01*
X200990650Y-166568906D01*
X200994747Y-166438927D01*
X200998721Y-166309009D01*
X201002968Y-166179041D01*
X201007491Y-166049189D01*
X201012544Y-165919295D01*
X201018908Y-165789287D01*
X201035251Y-165661319D01*
X201231429Y-165656062D01*
X201361386Y-165659706D01*
X207056397Y-164720837D02*
X207186275Y-164726647D01*
X207316069Y-164733945D01*
X207445924Y-164740543D01*
X207575744Y-164745305D01*
X207705672Y-164749277D01*
X207835508Y-164752730D01*
X207965637Y-164755788D01*
X208095529Y-164758485D01*
X208225457Y-164760842D01*
X208355475Y-164762838D01*
X208485517Y-164764272D01*
X208615483Y-164765368D01*
X208745436Y-164765983D01*
X208875538Y-164765924D01*
X209005498Y-164765000D01*
X209135620Y-164763076D01*
X209265457Y-164760139D01*
X209395366Y-164756283D01*
X209525276Y-164751674D01*
X209655226Y-164746493D01*
X209785016Y-164740906D01*
X209915015Y-164735021D01*
X210044851Y-164728950D01*
X210174687Y-164722990D01*
X210304686Y-164720076D01*
X210434232Y-164727661D01*
X210559812Y-164760106D01*
X210675051Y-164819779D01*
X210783404Y-164891851D01*
X210889398Y-164967009D01*
X210995684Y-165041997D01*
X211103310Y-165115022D01*
X211211407Y-165187089D01*
X211319717Y-165258874D01*
X211428586Y-165330193D01*
X211538321Y-165399864D01*
X211650379Y-165465339D01*
X211746264Y-165552677D01*
X211815218Y-165662442D01*
X211842709Y-165787941D01*
X211846063Y-165917876D01*
X211848229Y-166047762D01*
X211849877Y-166177763D01*
X211851199Y-166307763D01*
X211852294Y-166437823D01*
X211853205Y-166567695D01*
X211853970Y-166697657D01*
X211854608Y-166827666D01*
X211855134Y-166957685D01*
X211855674Y-167087666D01*
X211856340Y-167217634D01*
X211857119Y-167347746D01*
X211857996Y-167477708D01*
X211858966Y-167607647D01*
X211860028Y-167737793D01*
X211861178Y-167867725D01*
X211862420Y-167997814D01*
X211863757Y-168127808D01*
X211865191Y-168257585D01*
X211866738Y-168387661D01*
X211868415Y-168517624D01*
X211870246Y-168647594D01*
X211872277Y-168777775D01*
X211874584Y-168907594D01*
X211877265Y-169037610D01*
X211879872Y-169167597D01*
X211882311Y-169297497D01*
X211884598Y-169427632D01*
X211886724Y-169557600D01*
X211888672Y-169687442D01*
X211890412Y-169817424D01*
X211891866Y-169947572D01*
X211892823Y-170077496D01*
X211893224Y-170207400D01*
X211893680Y-170337581D01*
X211894137Y-170467606D01*
X211849346Y-170587394D01*
X211773389Y-170692278D01*
X211671118Y-170771972D01*
X211551852Y-170822658D01*
X211423853Y-170842852D01*
X211293954Y-170845113D01*
X211163731Y-170845069D01*
X211033871Y-170844112D01*
X210903863Y-170842628D01*
X210773976Y-170840796D01*
X210643991Y-170838710D01*
X210513958Y-170836436D01*
X210383998Y-170834376D01*
X210253845Y-170832642D01*
X210123834Y-170831207D01*
X209993881Y-170830043D01*
X209863925Y-170829124D01*
X209733909Y-170828420D01*
X209604054Y-170827917D01*
X209474039Y-170827590D01*
X209343943Y-170827422D01*
X209213846Y-170827398D01*
X209083832Y-170827506D01*
X208953982Y-170827730D01*
X208823866Y-170828061D01*
X208694033Y-170828486D01*
X208564006Y-170828999D01*
X208433977Y-170829591D01*
X208303955Y-170830254D01*
X208173941Y-170830984D01*
X208043980Y-170831866D01*
X207914087Y-170832832D01*
X207784046Y-170833776D01*
X207653945Y-170834697D01*
X207524050Y-170835592D01*
X207394059Y-170836464D01*
X207264067Y-170837313D01*
X207133993Y-170838137D01*
X207003954Y-170838933D01*
X206874051Y-170839702D01*
X206744009Y-170840439D01*
X206614032Y-170841134D01*
X206484078Y-170841781D01*
X206353927Y-170842365D01*
X206223928Y-170842838D01*
X206093920Y-170843090D01*
X205963948Y-170843456D01*
X205833937Y-170843822D01*
X205703947Y-170844188D01*
X205580344Y-170815953D01*
X205468334Y-170750651D01*
X205376720Y-170659001D01*
X205314932Y-170545061D01*
X205298521Y-170416588D01*
X205295599Y-170286657D01*
X205294936Y-170156729D01*
X205295319Y-170026803D01*
X205296318Y-169896765D01*
X205297725Y-169766774D01*
X205299422Y-169636684D01*
X205301327Y-169506830D01*
X205303400Y-169376843D01*
X205305603Y-169246879D01*
X205307912Y-169116812D01*
X205310295Y-168986746D01*
X205312614Y-168857012D01*
X205314873Y-168726909D01*
X205317077Y-168596897D01*
X205319235Y-168466843D01*
X205321351Y-168336969D01*
X205323433Y-168207052D01*
X205325485Y-168077082D01*
X205327509Y-167946938D01*
X205329503Y-167817047D01*
X205331474Y-167686985D01*
X205333418Y-167557128D01*
X205335337Y-167427064D01*
X205337233Y-167297038D01*
X205339103Y-167166975D01*
X205340942Y-167037119D01*
X205342754Y-166907139D01*
X205344537Y-166777026D01*
X205346278Y-166647206D01*
X205347977Y-166517146D01*
X205349619Y-166387077D01*
X205351179Y-166257214D01*
X205352608Y-166127244D01*
X205354448Y-165997173D01*
X205357538Y-165867163D01*
X205366848Y-165737666D01*
X205414930Y-165617757D01*
X205495056Y-165515940D01*
X205601243Y-165441472D01*
X205711239Y-165372652D01*
X205820454Y-165301761D01*
X205928626Y-165229593D01*
X206035827Y-165156473D01*
X206142690Y-165082320D01*
X206249537Y-165008239D01*
X206356742Y-164934645D01*
X206464869Y-164862288D01*
X206575222Y-164793967D01*
X206693662Y-164740771D01*
X206926413Y-164717723D01*
X207056397Y-164720837D01*
X218562900Y-165701339D02*
X218575278Y-165830417D01*
X218580669Y-165960295D01*
X218585210Y-166090355D01*
X218589296Y-166220233D01*
X218593070Y-166350044D01*
X218596609Y-166480086D01*
X218599944Y-166610191D01*
X218603018Y-166740135D01*
X218605854Y-166869886D01*
X218608698Y-166999956D01*
X218611543Y-167129999D01*
X218614385Y-167259915D01*
X218617231Y-167389757D01*
X218620088Y-167519926D01*
X218622942Y-167649854D01*
X218625803Y-167779766D01*
X218628675Y-167909775D01*
X218631559Y-168039825D01*
X218634453Y-168169663D01*
X218637374Y-168299720D01*
X218640321Y-168429611D01*
X218643312Y-168559510D01*
X218646368Y-168689485D01*
X218649515Y-168819505D01*
X218652785Y-168949488D01*
X218656194Y-169079326D01*
X218659733Y-169209384D01*
X218663380Y-169339198D01*
X218666729Y-169469323D01*
X218669758Y-169599198D01*
X218672490Y-169729234D01*
X218674887Y-169859291D01*
X218676816Y-169989184D01*
X218677986Y-170119052D01*
X218678526Y-170249202D01*
X218675570Y-170379031D01*
X218639233Y-170502512D01*
X218559732Y-170604829D01*
X218451446Y-170675559D01*
X218326950Y-170701069D01*
X218197061Y-170700497D01*
X218066905Y-170699926D01*
X217936947Y-170699355D01*
X217806983Y-170698783D01*
X217676884Y-170698199D01*
X217546887Y-170697593D01*
X217417036Y-170696952D01*
X217287095Y-170696262D01*
X217157057Y-170695499D01*
X217027121Y-170694619D01*
X216896970Y-170693537D01*
X216766934Y-170692043D01*
X216637018Y-170689052D01*
X216715840Y-170682639D01*
X216845781Y-170680242D01*
X216975644Y-170678191D01*
X217105669Y-170676335D01*
X217235563Y-170674626D01*
X217365773Y-170673032D01*
X217495719Y-170671552D01*
X217625545Y-170669958D01*
X217755673Y-170668321D01*
X217885600Y-170666552D01*
X218015509Y-170664432D01*
X218145519Y-170661443D01*
X218275446Y-170656083D01*
X218404580Y-170641197D01*
X218517599Y-170580129D01*
X218597143Y-170478366D01*
X218640436Y-170356556D01*
X218642958Y-170226707D01*
X218640723Y-170096719D01*
X218637318Y-169966603D01*
X218633128Y-169836732D01*
X218628398Y-169706735D01*
X218623920Y-169576787D01*
X218619500Y-169447074D01*
X218615136Y-169316981D01*
X218610880Y-169187080D01*
X218606794Y-169057184D01*
X218603055Y-168927271D01*
X218599809Y-168797243D01*
X218596333Y-168667432D01*
X218592737Y-168537442D01*
X218589242Y-168407475D01*
X218585495Y-168277400D01*
X218582312Y-168147622D01*
X218579300Y-168017461D01*
X218576407Y-167887572D01*
X218573592Y-167757510D01*
X218570852Y-167627635D01*
X218568169Y-167497598D01*
X218565553Y-167367773D01*
X218562998Y-167237828D01*
X218560514Y-167107671D01*
X218558030Y-166977794D01*
X218555529Y-166847736D01*
X218553011Y-166717737D01*
X218550462Y-166587854D01*
X218547861Y-166457911D01*
X218545183Y-166327990D01*
X218542371Y-166197927D01*
X218539333Y-166067985D01*
X218535838Y-165938051D01*
X218531185Y-165808006D01*
X218520140Y-165678564D01*
X218472142Y-165558428D01*
X218562900Y-165701339D01*
X199626641Y-165161235D02*
X199617299Y-165290952D01*
X199611936Y-165420744D01*
X199607685Y-165550671D01*
X199603908Y-165680625D01*
X199600371Y-165810638D01*
X199596970Y-165940555D01*
X199593685Y-166070453D01*
X199590304Y-166200325D01*
X199586813Y-166330456D01*
X199583246Y-166460368D01*
X199579612Y-166590171D01*
X199575914Y-166720233D01*
X199572168Y-166850236D01*
X199568387Y-166980204D01*
X199564582Y-167110143D01*
X199560869Y-167240134D01*
X199557399Y-167369973D01*
X199554076Y-167499933D01*
X199550867Y-167629902D01*
X199547754Y-167759961D01*
X199544747Y-167889937D01*
X199541990Y-168019835D01*
X199539220Y-168149762D01*
X199535227Y-168279640D01*
X199524882Y-168409139D01*
X199489837Y-168534283D01*
X199441883Y-168654967D01*
X199390352Y-168774410D01*
X199337074Y-168892828D01*
X199282398Y-169010976D01*
X199226901Y-169128326D01*
X199170450Y-169245519D01*
X199113272Y-169362244D01*
X199055305Y-169478678D01*
X198996663Y-169594520D01*
X198937068Y-169710126D01*
X198876490Y-169825175D01*
X198814655Y-169939498D01*
X198750891Y-170052940D01*
X198684554Y-170164654D01*
X198666726Y-170098999D01*
X198667381Y-169968982D01*
X198670564Y-169839061D01*
X198674546Y-169709137D01*
X198678958Y-169579105D01*
X198683678Y-169449269D01*
X198688675Y-169319405D01*
X198693947Y-169189571D01*
X198699539Y-169059483D01*
X198705502Y-168929807D01*
X198712070Y-168799783D01*
X198718108Y-168669997D01*
X198723767Y-168540120D01*
X198729292Y-168410233D01*
X198734731Y-168280368D01*
X198740105Y-168150449D01*
X198745421Y-168020641D01*
X198750690Y-167890697D01*
X198755899Y-167760922D01*
X198761059Y-167630981D01*
X198766154Y-167501051D01*
X198771169Y-167371232D01*
X198776087Y-167241221D01*
X198780847Y-167111271D01*
X198785240Y-166981369D01*
X198789405Y-166851556D01*
X198793631Y-166721416D01*
X198797917Y-166591620D01*
X198802308Y-166461605D01*
X198806827Y-166331771D01*
X198811481Y-166201772D01*
X198816075Y-166071878D01*
X198821989Y-165941938D01*
X198830352Y-165812335D01*
X198850904Y-165684484D01*
X198921149Y-165576069D01*
X199018620Y-165490143D01*
X199123554Y-165413466D01*
X199230968Y-165340555D01*
X199338869Y-165267722D01*
X199446243Y-165194529D01*
X199553059Y-165120499D01*
X199626641Y-165161235D01*
X213114973Y-165177317D02*
X213110483Y-165307304D01*
X213109159Y-165437211D01*
X213109016Y-165567171D01*
X213109491Y-165697278D01*
X213110339Y-165827254D01*
X213111439Y-165957202D01*
X213112713Y-166087188D01*
X213114118Y-166217141D01*
X213115621Y-166347290D01*
X213117202Y-166477304D01*
X213118840Y-166607280D01*
X213120525Y-166737111D01*
X213122255Y-166867273D01*
X213124014Y-166997227D01*
X213125798Y-167127197D01*
X213127607Y-167257219D01*
X213129432Y-167387080D01*
X213131275Y-167517007D01*
X213133132Y-167647146D01*
X213134992Y-167776972D01*
X213136852Y-167907024D01*
X213138707Y-168036979D01*
X213140565Y-168167109D01*
X213142420Y-168296893D01*
X213127735Y-168424610D01*
X213087851Y-168548303D01*
X213042614Y-168670241D01*
X212994571Y-168790996D01*
X212942991Y-168910256D01*
X212888005Y-169028064D01*
X212831738Y-169145147D01*
X212774598Y-169262079D01*
X212716968Y-169378619D01*
X212658903Y-169494898D01*
X212600401Y-169611034D01*
X212541566Y-169726832D01*
X212482203Y-169842582D01*
X212422410Y-169957873D01*
X212361793Y-170072916D01*
X212299752Y-170187171D01*
X212245445Y-170229582D01*
X212241113Y-170099874D01*
X212238343Y-169969817D01*
X212235361Y-169839807D01*
X212232359Y-169709848D01*
X212229394Y-169579908D01*
X212226503Y-169450047D01*
X212223853Y-169319902D01*
X212221586Y-169190053D01*
X212219501Y-169059953D01*
X212217538Y-168930104D01*
X212215658Y-168799927D01*
X212213859Y-168670073D01*
X212212121Y-168540059D01*
X212210436Y-168409988D01*
X212208812Y-168280102D01*
X212207237Y-168150062D01*
X212205712Y-168020071D01*
X212204243Y-167890220D01*
X212202823Y-167760198D01*
X212201457Y-167630110D01*
X212200148Y-167500043D01*
X212198902Y-167370085D01*
X212197653Y-167240022D01*
X212196382Y-167110063D01*
X212195128Y-166980211D01*
X212193892Y-166850081D01*
X212192691Y-166720180D01*
X212191541Y-166590176D01*
X212190470Y-166460139D01*
X212189521Y-166330172D01*
X212188779Y-166200159D01*
X212188406Y-166070073D01*
X212188810Y-165940241D01*
X212191524Y-165810235D01*
X212217045Y-165684284D01*
X212298862Y-165584069D01*
X212406598Y-165511709D01*
X212518344Y-165445534D01*
X212627872Y-165375724D01*
X212736842Y-165304621D01*
X212845153Y-165232721D01*
X212953424Y-165160687D01*
X213061869Y-165088982D01*
X213114973Y-165177317D01*
X201785067Y-166024568D02*
X201913994Y-166039512D01*
X202033432Y-166087864D01*
X202096867Y-166197806D01*
X202094193Y-166326953D01*
X202022757Y-166432763D01*
X201906852Y-166487221D01*
X201776847Y-166493835D01*
X201647062Y-166493440D01*
X201517131Y-166487744D01*
X201391595Y-166472415D01*
X201393824Y-166342382D01*
X201395919Y-166212548D01*
X201399625Y-166082476D01*
X201463058Y-166006831D01*
X201785067Y-166024568D01*
X198752535Y-165696918D02*
X198736498Y-165825672D01*
X198729251Y-165955559D01*
X198724922Y-166085429D01*
X198721372Y-166215283D01*
X198717494Y-166345385D01*
X198713421Y-166475243D01*
X198709204Y-166605167D01*
X198704873Y-166735119D01*
X198700448Y-166865149D01*
X198695949Y-166995035D01*
X198691379Y-167124956D01*
X198686752Y-167254764D01*
X198682061Y-167384701D01*
X198677312Y-167514707D01*
X198672514Y-167644587D01*
X198667666Y-167774395D01*
X198662757Y-167904422D01*
X198657802Y-168034303D01*
X198652794Y-168164070D01*
X198647717Y-168294104D01*
X198642588Y-168423851D01*
X198637379Y-168553830D01*
X198632096Y-168683713D01*
X198626722Y-168813596D01*
X198621231Y-168943545D01*
X198615598Y-169073526D01*
X198609847Y-169203202D01*
X198604212Y-169333056D01*
X198598746Y-169463093D01*
X198593531Y-169592853D01*
X198588641Y-169722892D01*
X198584240Y-169852833D01*
X198580583Y-169982729D01*
X198578169Y-170112818D01*
X198578229Y-170242652D01*
X198585471Y-170372369D01*
X198630692Y-170493245D01*
X198716944Y-170589452D01*
X198828356Y-170655780D01*
X198953836Y-170675308D01*
X199083917Y-170675222D01*
X199213807Y-170675136D01*
X199343884Y-170675050D01*
X199473878Y-170674965D01*
X199603888Y-170674878D01*
X199733870Y-170674792D01*
X199863924Y-170674706D01*
X199993933Y-170674618D01*
X200123926Y-170674533D01*
X200253872Y-170674447D01*
X200383950Y-170674360D01*
X200513928Y-170674274D01*
X200643897Y-170674189D01*
X200773805Y-170674103D01*
X200903982Y-170673985D01*
X201033944Y-170673881D01*
X201163998Y-170673823D01*
X201293995Y-170673815D01*
X201423956Y-170673852D01*
X201553863Y-170673939D01*
X201684018Y-170674070D01*
X201813905Y-170674251D01*
X201943844Y-170674484D01*
X202073820Y-170674771D01*
X202203980Y-170675117D01*
X202333875Y-170675526D01*
X202463974Y-170676009D01*
X202593812Y-170676577D01*
X202723937Y-170677254D01*
X202853801Y-170678069D01*
X202983899Y-170679098D01*
X203113914Y-170680523D01*
X203243854Y-170683109D01*
X203373764Y-170686030D01*
X203503822Y-170688836D01*
X203633795Y-170691547D01*
X203763671Y-170694168D01*
X203893823Y-170696699D01*
X204023748Y-170699114D01*
X204153696Y-170701383D01*
X204283543Y-170703655D01*
X204413675Y-170705633D01*
X204543633Y-170706495D01*
X204673588Y-170703721D01*
X204801985Y-170685838D01*
X204909443Y-170615364D01*
X204992541Y-170515950D01*
X205029553Y-170392249D01*
X205037459Y-170262476D01*
X205040068Y-170132467D01*
X205050047Y-170003117D01*
X205058513Y-170116491D01*
X205056741Y-170246735D01*
X205051666Y-170376562D01*
X205033520Y-170505122D01*
X204971025Y-170617578D01*
X204875101Y-170704878D01*
X204751420Y-170741180D01*
X204621745Y-170748922D01*
X204491870Y-170750486D01*
X204361748Y-170750268D01*
X204231690Y-170749513D01*
X204101709Y-170748171D01*
X203971716Y-170746503D01*
X203841736Y-170744604D01*
X203711828Y-170742505D01*
X203581889Y-170740208D01*
X203451931Y-170737697D01*
X203321936Y-170734930D01*
X203191955Y-170731808D01*
X203061836Y-170728917D01*
X202931888Y-170726830D01*
X202802062Y-170725085D01*
X202672049Y-170723540D01*
X202541984Y-170722135D01*
X202411953Y-170720836D01*
X202282125Y-170719624D01*
X202152003Y-170718479D01*
X202022024Y-170717399D01*
X201892004Y-170716373D01*
X201762046Y-170715395D01*
X201631919Y-170714462D01*
X201502008Y-170713573D01*
X201372072Y-170712723D01*
X201241991Y-170711912D01*
X201111981Y-170711139D01*
X200982047Y-170710402D01*
X200851988Y-170709704D01*
X200722002Y-170709040D01*
X200592031Y-170708384D01*
X200461959Y-170707719D01*
X200332034Y-170707048D01*
X200202103Y-170706361D01*
X200072141Y-170705654D01*
X199941965Y-170704916D01*
X199812159Y-170704141D01*
X199682109Y-170703303D01*
X199551994Y-170702377D01*
X199422005Y-170701317D01*
X199291950Y-170700043D01*
X199162169Y-170698398D01*
X199032058Y-170695991D01*
X198902184Y-170691463D01*
X198775033Y-170669053D01*
X198669228Y-170594465D01*
X198588742Y-170493020D01*
X198555677Y-170368430D01*
X198550312Y-170238562D01*
X198550547Y-170108434D01*
X198552805Y-169978481D01*
X198556031Y-169848605D01*
X198559794Y-169718705D01*
X198563885Y-169588626D01*
X198568165Y-169458875D01*
X198572489Y-169328772D01*
X198576801Y-169198850D01*
X198581129Y-169069050D01*
X198585490Y-168939145D01*
X198589891Y-168809208D01*
X198594354Y-168679238D01*
X198598916Y-168549347D01*
X198603380Y-168419380D01*
X198607719Y-168289401D01*
X198612358Y-168159656D01*
X198617342Y-168029720D01*
X198622904Y-167899740D01*
X198627745Y-167769838D01*
X198632261Y-167639832D01*
X198636613Y-167509960D01*
X198640851Y-167380020D01*
X198644985Y-167250118D01*
X198649094Y-167120250D01*
X198653277Y-166990214D01*
X198657465Y-166860254D01*
X198661666Y-166730398D01*
X198665898Y-166600487D01*
X198670178Y-166470545D01*
X198674538Y-166340615D01*
X198679033Y-166210751D01*
X198683793Y-166080802D01*
X198689115Y-165950855D01*
X198696108Y-165821156D01*
X198717929Y-165693532D01*
X198752535Y-165696918D01*
X206317619Y-165316231D02*
X206313686Y-165446172D01*
X206311572Y-165576110D01*
X206310221Y-165706201D01*
X206309288Y-165836073D01*
X206308608Y-165966206D01*
X206308100Y-166096273D01*
X206307711Y-166226142D01*
X206307406Y-166356181D01*
X206307164Y-166486264D01*
X206306972Y-166616239D01*
X206306810Y-166746234D01*
X206306623Y-166876208D01*
X206306476Y-167006296D01*
X206306373Y-167136056D01*
X206306310Y-167266278D01*
X206306289Y-167396156D01*
X206306309Y-167526148D01*
X206306376Y-167656141D01*
X206306494Y-167786096D01*
X206306669Y-167916117D01*
X206306924Y-168046101D01*
X206307300Y-168176070D01*
X206308073Y-168306077D01*
X206303768Y-168435829D01*
X206274660Y-168562402D01*
X206230570Y-168684681D01*
X206181206Y-168805065D01*
X206129119Y-168923964D01*
X206074547Y-169041969D01*
X206018789Y-169159404D01*
X205962223Y-169276518D01*
X205905054Y-169393345D01*
X205847442Y-169509779D01*
X205789323Y-169626037D01*
X205730707Y-169742090D01*
X205671476Y-169858038D01*
X205611709Y-169973434D01*
X205551022Y-170088326D01*
X205488473Y-170202371D01*
X205434753Y-170241374D01*
X205432679Y-170111412D01*
X205433282Y-169981354D01*
X205435292Y-169851285D01*
X205437350Y-169721383D01*
X205439315Y-169591234D01*
X205441189Y-169461487D01*
X205442991Y-169331401D01*
X205444723Y-169201345D01*
X205446387Y-169071404D01*
X205447990Y-168941387D01*
X205449535Y-168811492D01*
X205451025Y-168681446D01*
X205452460Y-168551400D01*
X205453841Y-168421505D01*
X205455167Y-168291464D01*
X205456442Y-168161444D01*
X205457659Y-168031420D01*
X205458820Y-167901401D01*
X205459922Y-167771459D01*
X205460961Y-167641527D01*
X205461932Y-167511458D01*
X205462828Y-167381458D01*
X205463642Y-167251546D01*
X205464357Y-167121507D01*
X205464958Y-166991452D01*
X205465417Y-166861563D01*
X205465685Y-166731503D01*
X205465759Y-166601410D01*
X205466046Y-166471417D01*
X205466665Y-166341564D01*
X205467696Y-166211544D01*
X205469291Y-166081500D01*
X205471820Y-165951489D01*
X205477143Y-165821572D01*
X205512018Y-165697187D01*
X205599475Y-165602389D01*
X205708279Y-165531236D01*
X205818048Y-165462027D01*
X205927219Y-165391222D01*
X206035768Y-165319503D01*
X206143477Y-165246823D01*
X206251581Y-165174790D01*
X206317619Y-165316231D01*
X200342451Y-164786122D02*
X200472260Y-164792089D01*
X200602055Y-164799595D01*
X200731856Y-164807849D01*
X201012091Y-164826874D01*
X201142047Y-164834868D01*
X201271688Y-164840935D01*
X201401764Y-164844924D01*
X201531581Y-164847292D01*
X201661694Y-164848642D01*
X201791797Y-164849391D01*
X201921768Y-164849787D01*
X202051595Y-164849980D01*
X202181705Y-164850053D01*
X202311673Y-164850049D01*
X202441690Y-164849820D01*
X202571694Y-164849331D01*
X202701726Y-164848581D01*
X202831798Y-164847557D01*
X202961700Y-164846229D01*
X203091697Y-164844527D01*
X203221645Y-164842282D01*
X203351714Y-164838887D01*
X203481367Y-164831946D01*
X203611420Y-164831843D01*
X203738890Y-164855025D01*
X203856307Y-164910361D01*
X203954266Y-164994910D01*
X204021742Y-165105325D01*
X204052210Y-165231197D01*
X204053593Y-165361227D01*
X204052356Y-165491288D01*
X204050883Y-165621252D01*
X204049283Y-165751183D01*
X204047596Y-165881196D01*
X204045840Y-166011242D01*
X204044030Y-166141087D01*
X204042164Y-166271093D01*
X204040239Y-166401064D01*
X204038252Y-166531168D01*
X204036192Y-166661076D01*
X204034024Y-166791113D01*
X204031670Y-166921048D01*
X204028668Y-167051146D01*
X204026517Y-167181018D01*
X204024966Y-167310962D01*
X204023713Y-167440971D01*
X204022694Y-167570949D01*
X204021893Y-167700965D01*
X204021364Y-167831041D01*
X204021134Y-167961071D01*
X204021105Y-168091084D01*
X204021668Y-168221050D01*
X204024738Y-168350921D01*
X204089684Y-168395593D01*
X204098453Y-168266003D01*
X204102070Y-168136185D01*
X204104758Y-168006104D01*
X204107047Y-167876137D01*
X204109126Y-167746018D01*
X204111074Y-167616046D01*
X204112938Y-167486256D01*
X204114747Y-167356220D01*
X204116519Y-167226135D01*
X204118263Y-167096172D01*
X204119987Y-166966214D01*
X204121695Y-166836251D01*
X204123397Y-166706250D01*
X204125090Y-166576241D01*
X204126784Y-166446328D01*
X204128644Y-166316212D01*
X204130542Y-166186261D01*
X204132494Y-166056252D01*
X204134509Y-165926288D01*
X204136617Y-165796303D01*
X204138861Y-165666218D01*
X204141341Y-165536298D01*
X204144462Y-165406411D01*
X204146711Y-165276422D01*
X204129471Y-165147743D01*
X204197666Y-165147293D01*
X204306650Y-165217871D01*
X204415866Y-165288495D01*
X204525156Y-165359095D01*
X204634371Y-165429565D01*
X204743519Y-165500196D01*
X204852271Y-165571207D01*
X204957170Y-165647715D01*
X205028329Y-165755627D01*
X205053865Y-165882044D01*
X205054337Y-166011939D01*
X205052781Y-166141959D01*
X205050468Y-166271970D01*
X205047735Y-166402025D01*
X205044735Y-166531984D01*
X205041548Y-166661852D01*
X205038213Y-166791943D01*
X205034777Y-166921797D01*
X205031251Y-167051672D01*
X205027654Y-167181634D01*
X205023995Y-167311732D01*
X205020291Y-167441607D01*
X205016544Y-167571558D01*
X205012757Y-167701592D01*
X205008945Y-167831461D01*
X205005102Y-167961403D01*
X205001237Y-168091369D01*
X204997473Y-168221255D01*
X204993805Y-168351108D01*
X204990214Y-168481105D01*
X204986694Y-168611106D01*
X204983243Y-168741029D01*
X204979851Y-168871003D01*
X204976519Y-169001040D01*
X204973248Y-169130915D01*
X204970035Y-169260901D01*
X204966889Y-169390760D01*
X204963812Y-169520766D01*
X204960826Y-169650819D01*
X204958037Y-169780697D01*
X204955463Y-169910680D01*
X204952888Y-170040748D01*
X204950315Y-170170677D01*
X204947740Y-170300687D01*
X204933055Y-170427709D01*
X204865846Y-170538337D01*
X204757145Y-170608532D01*
X204630352Y-170620244D01*
X204500320Y-170619596D01*
X204370219Y-170618191D01*
X204240217Y-170615746D01*
X204110339Y-170612110D01*
X203980367Y-170606755D01*
X203850619Y-170602521D01*
X203720638Y-170599110D01*
X203590476Y-170596259D01*
X203460479Y-170593831D01*
X203330699Y-170591741D01*
X203200521Y-170589920D01*
X203070584Y-170588339D01*
X202940617Y-170586965D01*
X202810656Y-170585772D01*
X202680545Y-170584743D01*
X202550647Y-170583869D01*
X202420548Y-170583134D01*
X202290664Y-170582532D01*
X202160644Y-170582054D01*
X202030553Y-170581695D01*
X201900673Y-170581447D01*
X201770749Y-170581310D01*
X201640740Y-170581278D01*
X201510583Y-170581349D01*
X201380723Y-170581520D01*
X201250662Y-170581789D01*
X201120682Y-170582156D01*
X200990657Y-170582619D01*
X200860716Y-170583177D01*
X200730568Y-170583830D01*
X200600591Y-170584545D01*
X200470593Y-170585193D01*
X200340679Y-170585824D01*
X200210655Y-170586436D01*
X200080626Y-170587019D01*
X199950602Y-170587563D01*
X199820663Y-170588051D01*
X199690644Y-170588464D01*
X199560596Y-170588764D01*
X199430645Y-170588890D01*
X199300730Y-170588736D01*
X199170601Y-170588068D01*
X199040781Y-170586244D01*
X198910796Y-170579679D01*
X198792199Y-170529994D01*
X198705628Y-170434670D01*
X198690053Y-170310112D01*
X198765711Y-170204993D01*
X198831864Y-170093088D01*
X198895252Y-169979480D01*
X198957071Y-169865158D01*
X199017823Y-169750299D01*
X199077808Y-169634855D01*
X199137008Y-169519114D01*
X199195438Y-169403157D01*
X199253326Y-169286519D01*
X199310347Y-169169742D01*
X199366456Y-169052662D01*
X199421591Y-168934912D01*
X199475343Y-168816426D01*
X199526795Y-168697095D01*
X199577509Y-168577303D01*
X199645766Y-168645637D01*
X199722918Y-168750027D01*
X199818846Y-168837286D01*
X199931346Y-168902135D01*
X200057738Y-168930149D01*
X200186791Y-168945021D01*
X200316019Y-168958550D01*
X200445466Y-168971386D01*
X200574964Y-168983704D01*
X200704388Y-168995553D01*
X200833931Y-169006954D01*
X200963465Y-169017840D01*
X201093000Y-169028078D01*
X201222740Y-169036734D01*
X201352529Y-169042706D01*
X201482559Y-169046948D01*
X201612441Y-169049935D01*
X201742308Y-169051939D01*
X201872515Y-169053109D01*
X202002356Y-169053530D01*
X202132503Y-169053251D01*
X202262368Y-169052283D01*
X202392500Y-169050598D01*
X202522393Y-169048136D01*
X202652289Y-169044764D01*
X202782196Y-169040236D01*
X202912087Y-169034029D01*
X203041804Y-169024699D01*
X203161028Y-168990009D01*
X203069333Y-168932959D01*
X202939785Y-168941304D01*
X202809862Y-168948614D01*
X202679917Y-168952429D01*
X202550041Y-168954848D01*
X202419951Y-168956434D01*
X202290048Y-168957423D01*
X202159944Y-168957940D01*
X202029921Y-168958061D01*
X201899871Y-168957842D01*
X201769933Y-168957169D01*
X201640020Y-168955816D01*
X201510073Y-168953484D01*
X201380167Y-168949815D01*
X201250273Y-168944475D01*
X201120423Y-168937275D01*
X200990680Y-168928270D01*
X200861091Y-168917741D01*
X200731719Y-168906075D01*
X200602257Y-168893599D01*
X200472882Y-168880614D01*
X200343659Y-168867193D01*
X200214299Y-168852870D01*
X200085427Y-168835988D01*
X199958771Y-168807801D01*
X199848336Y-168741026D01*
X199760209Y-168645820D01*
X199694660Y-168533693D01*
X199674227Y-168408354D01*
X199674227Y-168278373D01*
X199674230Y-168148437D01*
X199674700Y-168018393D01*
X199676042Y-167888528D01*
X199678163Y-167758480D01*
X199680866Y-167628480D01*
X199683972Y-167498530D01*
X199687361Y-167368457D01*
X199690939Y-167238558D01*
X199694654Y-167108709D01*
X199698477Y-166978582D01*
X199702365Y-166848739D01*
X199706311Y-166718775D01*
X199710295Y-166589002D01*
X199714318Y-166459009D01*
X199718367Y-166328971D01*
X199722429Y-166199139D01*
X199726511Y-166069095D01*
X199730599Y-165939304D01*
X199734515Y-165809321D01*
X199738445Y-165679315D01*
X199742582Y-165549272D01*
X199746837Y-165419458D01*
X199751043Y-165289581D01*
X199760728Y-165160027D01*
X199795314Y-165035055D01*
X199862614Y-164924139D01*
X199962321Y-164842206D01*
X200083303Y-164795545D01*
X200212596Y-164783982D01*
X200342451Y-164786122D01*
X199873875Y-169168953D02*
X199801496Y-169276668D01*
X199726138Y-169382686D01*
X199649841Y-169487882D01*
X199572994Y-169592860D01*
X199496051Y-169697489D01*
X199419152Y-169802292D01*
X199342061Y-169907206D01*
X199265051Y-170011695D01*
X199187691Y-170116254D01*
X199110105Y-170220467D01*
X199031078Y-170323989D01*
X198976776Y-170254070D01*
X199050894Y-170147274D01*
X199128436Y-170042930D01*
X199205573Y-169938290D01*
X199282444Y-169833478D01*
X199359223Y-169728620D01*
X199435994Y-169623892D01*
X199512988Y-169519041D01*
X199590178Y-169414250D01*
X199667437Y-169310001D01*
X199814483Y-169117313D01*
X199914074Y-169052843D01*
X199873875Y-169168953D01*
X217698838Y-168689609D02*
X217741487Y-168812321D01*
X217789936Y-168933186D01*
X217841391Y-169052444D01*
X217894921Y-169170870D01*
X217949934Y-169288649D01*
X218006094Y-169405948D01*
X218063076Y-169522675D01*
X218120825Y-169639119D01*
X218179214Y-169755308D01*
X218237735Y-169871494D01*
X218295644Y-169987991D01*
X218351661Y-170105063D01*
X218382613Y-170225229D01*
X218288462Y-170174898D01*
X218226854Y-170060371D01*
X218167883Y-169944403D01*
X218109773Y-169828323D01*
X218051661Y-169712071D01*
X217994066Y-169595426D01*
X217937238Y-169478470D01*
X217881329Y-169361215D01*
X217826368Y-169243261D01*
X217772819Y-169124863D01*
X217721126Y-169005640D01*
X217672351Y-168884945D01*
X217628805Y-168762563D01*
X217550862Y-168780106D01*
X217454289Y-168866914D01*
X217343255Y-168934010D01*
X217231462Y-168923938D01*
X217313000Y-168840884D01*
X217423865Y-168773821D01*
X217513061Y-168679781D01*
X217672743Y-168562555D01*
X217698838Y-168689609D01*
X210384856Y-164833500D02*
X210508526Y-164871942D01*
X210614957Y-164945664D01*
X210697917Y-165045500D01*
X210747813Y-165164703D01*
X210751757Y-165294411D01*
X210754050Y-165424542D01*
X210755936Y-165554398D01*
X210757577Y-165684513D01*
X210759030Y-165814454D01*
X210760323Y-165944561D01*
X210761471Y-166074557D01*
X210762481Y-166204426D01*
X210763356Y-166334472D01*
X210764185Y-166464525D01*
X210765038Y-166594483D01*
X210765920Y-166724329D01*
X210766836Y-166854455D01*
X210767794Y-166984323D01*
X210768803Y-167114472D01*
X210769872Y-167244473D01*
X210771018Y-167374518D01*
X210772259Y-167504373D01*
X210773627Y-167634381D01*
X210775162Y-167764324D01*
X210776932Y-167894254D01*
X210779059Y-168024379D01*
X210781766Y-168154330D01*
X210785644Y-168284232D01*
X210793869Y-168413853D01*
X210856910Y-168377026D01*
X210861430Y-168247140D01*
X210863061Y-168117167D01*
X210863841Y-167987211D01*
X210864217Y-167857206D01*
X210864365Y-167727277D01*
X210864371Y-167597041D01*
X210864284Y-167467159D01*
X210864133Y-167337180D01*
X210863936Y-167207185D01*
X210863709Y-167077200D01*
X210863461Y-166947199D01*
X210863121Y-166817090D01*
X210862650Y-166687082D01*
X210862108Y-166557059D01*
X210861496Y-166427124D01*
X210860806Y-166297236D01*
X210860029Y-166167040D01*
X210859158Y-166037047D01*
X210858178Y-165907194D01*
X210857062Y-165777053D01*
X210855775Y-165647232D01*
X210854236Y-165517144D01*
X210852270Y-165387227D01*
X210849029Y-165257298D01*
X210839375Y-165127673D01*
X210935057Y-165165298D01*
X211043862Y-165236377D01*
X211152924Y-165306872D01*
X211262451Y-165377269D01*
X211371944Y-165447267D01*
X211481809Y-165516890D01*
X211590396Y-165587962D01*
X211679842Y-165681667D01*
X211725227Y-165799477D01*
X211725227Y-165929538D01*
X211725227Y-166059593D01*
X211725226Y-166189675D01*
X211725226Y-166319700D01*
X211725227Y-166449626D01*
X211725227Y-166579471D01*
X211725226Y-166709711D01*
X211725226Y-166839484D01*
X211725227Y-166969472D01*
X211725227Y-167099641D01*
X211725407Y-167229561D01*
X211725694Y-167359507D01*
X211726033Y-167489708D01*
X211726426Y-167619705D01*
X211726873Y-167749500D01*
X211727381Y-167879471D01*
X211727959Y-168009489D01*
X211728615Y-168139567D01*
X211729365Y-168269616D01*
X211730235Y-168399684D01*
X211731267Y-168529625D01*
X211732555Y-168659639D01*
X211734351Y-168789491D01*
X211737477Y-168919427D01*
X211740643Y-169049481D01*
X211743502Y-169179500D01*
X211746061Y-169309334D01*
X211748324Y-169439415D01*
X211750273Y-169569292D01*
X211751894Y-169699273D01*
X211753149Y-169829378D01*
X211753975Y-169959370D01*
X211754259Y-170089443D01*
X211753780Y-170219403D01*
X211751959Y-170349345D01*
X211744083Y-170478938D01*
X211681247Y-170591390D01*
X211577131Y-170667370D01*
X211448604Y-170682764D01*
X211318685Y-170684912D01*
X211188588Y-170685234D01*
X211058676Y-170684914D01*
X210928528Y-170684297D01*
X210798685Y-170683533D01*
X210668474Y-170682684D01*
X210538597Y-170681799D01*
X210408621Y-170680969D01*
X210278515Y-170680211D01*
X210148484Y-170679522D01*
X210018594Y-170678902D01*
X209888630Y-170678355D01*
X209758660Y-170677877D01*
X209628488Y-170677471D01*
X209498605Y-170677138D01*
X209368680Y-170676880D01*
X209238669Y-170676698D01*
X209108535Y-170676591D01*
X208978645Y-170676565D01*
X208848578Y-170676619D01*
X208718714Y-170676757D01*
X208588661Y-170676980D01*
X208458567Y-170677293D01*
X208328577Y-170677698D01*
X208198609Y-170678200D01*
X208068602Y-170678801D01*
X207938521Y-170679510D01*
X207808589Y-170680329D01*
X207678597Y-170681267D01*
X207548605Y-170682333D01*
X207418712Y-170683532D01*
X207288650Y-170684883D01*
X207158648Y-170686392D01*
X207028601Y-170688080D01*
X206898714Y-170689962D01*
X206768580Y-170692071D01*
X206638730Y-170694427D01*
X206508714Y-170696938D01*
X206378724Y-170699396D01*
X206248759Y-170701701D01*
X206118794Y-170703666D01*
X205988855Y-170704880D01*
X205858886Y-170704306D01*
X205729048Y-170698294D01*
X205604538Y-170664825D01*
X205510533Y-170576644D01*
X205453498Y-170460779D01*
X205509326Y-170345128D01*
X205575447Y-170233313D01*
X205638461Y-170119555D01*
X205699845Y-170004863D01*
X205760084Y-169889697D01*
X205819450Y-169774180D01*
X205878241Y-169658057D01*
X205936277Y-169541856D01*
X205993736Y-169425292D01*
X206050634Y-169308291D01*
X206106804Y-169191050D01*
X206162102Y-169073580D01*
X206216488Y-168955355D01*
X206269286Y-168836502D01*
X206318925Y-168716534D01*
X206372923Y-168630129D01*
X206431587Y-168745806D01*
X206514866Y-168845329D01*
X206614732Y-168928273D01*
X206732246Y-168982283D01*
X206859862Y-169006458D01*
X206988880Y-169021637D01*
X207118341Y-169033907D01*
X207247947Y-169044933D01*
X207377446Y-169055458D01*
X207507070Y-169065499D01*
X207636668Y-169074657D01*
X207766646Y-169082607D01*
X207896367Y-169089011D01*
X208026390Y-169093799D01*
X208156159Y-169097079D01*
X208286201Y-169099158D01*
X208416189Y-169100343D01*
X208546274Y-169100909D01*
X208676270Y-169101065D01*
X208806235Y-169100884D01*
X208936198Y-169100254D01*
X209066289Y-169098995D01*
X209196216Y-169096857D01*
X209326249Y-169093455D01*
X209456045Y-169088273D01*
X209585921Y-169080686D01*
X209715489Y-169070795D01*
X209844820Y-169059180D01*
X209921519Y-168992552D01*
X209803958Y-168971737D01*
X209674160Y-168981061D01*
X209544493Y-168989315D01*
X209414665Y-168995896D01*
X209284733Y-169001186D01*
X209154714Y-169005388D01*
X209024948Y-169008612D01*
X208894955Y-169010921D01*
X208764866Y-169012320D01*
X208634831Y-169012773D01*
X208504807Y-169012199D01*
X208374833Y-169010440D01*
X208244915Y-169007236D01*
X208115071Y-169002427D01*
X207985155Y-168996745D01*
X207855181Y-168990318D01*
X207725552Y-168983213D01*
X207595647Y-168975407D01*
X207465978Y-168966904D01*
X207336337Y-168957624D01*
X207206803Y-168947435D01*
X207077267Y-168936053D01*
X206947942Y-168922862D01*
X206819075Y-168905632D01*
X206696437Y-168864614D01*
X206592189Y-168787537D01*
X206509996Y-168687225D01*
X206451846Y-168571313D01*
X206426095Y-168444334D01*
X206422713Y-168314444D01*
X206422396Y-168184352D01*
X206422502Y-168054291D01*
X206422875Y-167924320D01*
X206423402Y-167794375D01*
X206424040Y-167664403D01*
X206424762Y-167534398D01*
X206425558Y-167404385D01*
X206426417Y-167274463D01*
X206427335Y-167144381D01*
X206428307Y-167014384D01*
X206429332Y-166884361D01*
X206430411Y-166754406D01*
X206431544Y-166624550D01*
X206432733Y-166494433D01*
X206433981Y-166364401D01*
X206435292Y-166234492D01*
X206436672Y-166104488D01*
X206438133Y-165974487D01*
X206439659Y-165844356D01*
X206441103Y-165714553D01*
X206442549Y-165584385D01*
X206443992Y-165454470D01*
X206445438Y-165324418D01*
X206446882Y-165194435D01*
X206490903Y-165074697D01*
X206563629Y-164967640D01*
X206668126Y-164891298D01*
X206788194Y-164841883D01*
X206917164Y-164827199D01*
X207047063Y-164827958D01*
X207176960Y-164832941D01*
X207306838Y-164839409D01*
X207525979Y-164850976D01*
X207656014Y-164855424D01*
X207785947Y-164858483D01*
X207915974Y-164860688D01*
X208045852Y-164862270D01*
X208175831Y-164863371D01*
X208305880Y-164864064D01*
X208435908Y-164864400D01*
X208565826Y-164864405D01*
X208695756Y-164864102D01*
X208825728Y-164863497D01*
X208955780Y-164862580D01*
X209085860Y-164861341D01*
X209215736Y-164859756D01*
X209345865Y-164857772D01*
X209475773Y-164855327D01*
X209605840Y-164852293D01*
X209735795Y-164848455D01*
X209865578Y-164843356D01*
X209995313Y-164836480D01*
X210125212Y-164830204D01*
X210255160Y-164826706D01*
X210384856Y-164833500D01*
X204085815Y-168685833D02*
X204128748Y-168808331D01*
X204175891Y-168929579D01*
X204225211Y-169049760D01*
X204276203Y-169169545D01*
X204328317Y-169288537D01*
X204381495Y-169407075D01*
X204435692Y-169525312D01*
X204490833Y-169643199D01*
X204546788Y-169760491D01*
X204603631Y-169877293D01*
X204661300Y-169993799D01*
X204717958Y-170110985D01*
X204764790Y-170231883D01*
X204684907Y-170236527D01*
X204622893Y-170122306D01*
X204564558Y-170006218D01*
X204506966Y-169889708D01*
X204450206Y-169772625D01*
X204394393Y-169655476D01*
X204339197Y-169537794D01*
X204284623Y-169419628D01*
X204230812Y-169301195D01*
X204177935Y-169182553D01*
X204126168Y-169063292D01*
X204076522Y-168943310D01*
X204031372Y-168821275D01*
X203973922Y-168754143D01*
X203881284Y-168845358D01*
X203774781Y-168919794D01*
X203655731Y-168969905D01*
X203635557Y-168883850D01*
X203751890Y-168826141D01*
X203854366Y-168746591D01*
X203929936Y-168641260D01*
X203989683Y-168526005D01*
X204085815Y-168685833D01*
D11*
%TO.P,REF\u002A\u002A,1*%
%TO.N,oled1*%
X273500000Y-148500000D03*
%TO.P,REF\u002A\u002A,2*%
%TO.N,oled2*%
X276040001Y-148500001D03*
%TO.P,REF\u002A\u002A,3*%
%TO.N,oled3*%
X278580000Y-148500000D03*
%TO.P,REF\u002A\u002A,4*%
%TO.N,oled4*%
X281120000Y-148500000D03*
%TD*%
D12*
%TO.P,REF\u002A\u002A,1*%
%TO.N,oled1*%
X273500000Y-146225000D03*
D13*
%TO.P,REF\u002A\u002A,2*%
%TO.N,sda*%
X273500000Y-144775000D03*
%TD*%
D12*
%TO.P,REF\u002A\u002A,1*%
%TO.N,oled2*%
X276000000Y-146225000D03*
D13*
%TO.P,REF\u002A\u002A,2*%
%TO.N,scl*%
X276000000Y-144775000D03*
%TD*%
D12*
%TO.P,REF\u002A\u002A,1*%
%TO.N,oled3*%
X278500000Y-146225000D03*
D13*
%TO.P,REF\u002A\u002A,2*%
%TO.N,5V*%
X278500000Y-144775000D03*
%TD*%
D12*
%TO.P,REF\u002A\u002A,1*%
%TO.N,oled4*%
X281000000Y-146225000D03*
D13*
%TO.P,REF\u002A\u002A,2*%
%TO.N,GND*%
X281000000Y-144775000D03*
%TD*%
D14*
%TO.P,S12,1*%
%TO.N,cindex*%
X242691726Y-147585864D03*
%TO.P,S12,2*%
%TO.N,index_bottom*%
X231141726Y-149785864D03*
%TD*%
D15*
%TO.P,S20,1*%
%TO.N,cinner*%
X279478328Y-177910684D03*
%TO.P,S20,2*%
%TO.N,right_cluster*%
X268375733Y-174040940D03*
%TD*%
D14*
%TO.P,S15,1*%
%TO.N,cinner*%
X260691727Y-147585865D03*
%TO.P,S15,2*%
%TO.N,inner_bottom*%
X249141727Y-149785865D03*
%TD*%
%TO.P,S14,1*%
%TO.N,cindex*%
X242691727Y-113585864D03*
%TO.P,S14,2*%
%TO.N,index_top*%
X231141727Y-115785864D03*
%TD*%
D16*
%TO.P,H6,*%
%TO.N,*%
X268416727Y-166535865D03*
%TD*%
%TO.P,H3,*%
%TO.N,*%
X212716727Y-121035865D03*
%TD*%
D14*
%TO.P,S2,1*%
%TO.N,cpinky*%
X170691727Y-128585865D03*
%TO.P,S2,2*%
%TO.N,outer_top*%
X159141727Y-130785865D03*
%TD*%
D17*
%TO.P,PAD1,1*%
%TO.N,BAT+*%
X276166727Y-136535865D03*
%TO.P,PAD1,2*%
%TO.N,GND*%
X278666727Y-136535865D03*
%TD*%
D16*
%TO.P,H2,*%
%TO.N,*%
X176716727Y-155035865D03*
%TD*%
D14*
%TO.P,S17,1*%
%TO.N,cinner*%
X260691727Y-113585864D03*
%TO.P,S17,2*%
%TO.N,inner_top*%
X249141727Y-115785864D03*
%TD*%
%TO.P,S13,1*%
%TO.N,cindex*%
X242691727Y-130585864D03*
%TO.P,S13,2*%
%TO.N,index_home*%
X231141727Y-132785864D03*
%TD*%
D18*
%TO.P,MCU1,1*%
%TO.N,rtop*%
X269321766Y-111915865D03*
%TO.P,MCU1,2*%
%TO.N,rhome*%
X269321766Y-114455865D03*
%TO.P,MCU1,3*%
%TO.N,rbottom*%
X269321766Y-116995865D03*
%TO.P,MCU1,4*%
%TO.N,rthumbs*%
X269321766Y-119535865D03*
%TO.P,MCU1,5*%
%TO.N,sda*%
X269321766Y-122075865D03*
%TO.P,MCU1,6*%
%TO.N,scl*%
X269321766Y-124615865D03*
%TO.P,MCU1,7*%
%TO.N,cinner*%
X269321765Y-127155865D03*
%TO.P,MCU1,8*%
%TO.N,cindex*%
X285511686Y-127155865D03*
%TO.P,MCU1,9*%
%TO.N,cmiddle*%
X285511686Y-124615865D03*
%TO.P,MCU1,10*%
%TO.N,cring*%
X285511686Y-122075865D03*
%TO.P,MCU1,11*%
%TO.N,cpinky*%
X285511686Y-119535865D03*
%TO.P,MCU1,12*%
%TO.N,3V3*%
X285511686Y-116995865D03*
%TO.P,MCU1,13*%
%TO.N,GND*%
X285511686Y-114455865D03*
%TO.P,MCU1,14*%
%TO.N,5V*%
X285511687Y-111915865D03*
D19*
%TO.P,MCU1,19*%
%TO.N,BAT+*%
X272971726Y-119218865D03*
X281861726Y-119218865D03*
%TD*%
D20*
%TO.P,S19,1*%
%TO.N,cindex*%
X259343650Y-168534017D03*
%TO.P,S19,2*%
%TO.N,middle_cluster*%
X247617805Y-167669694D03*
%TD*%
D14*
%TO.P,S3,1*%
%TO.N,cpinky*%
X188691727Y-157585865D03*
%TO.P,S3,2*%
%TO.N,pinky_bottom*%
X177141727Y-159785865D03*
%TD*%
D16*
%TO.P,H4,*%
%TO.N,*%
X227416727Y-158535865D03*
%TD*%
D14*
%TO.P,S10,1*%
%TO.N,cmiddle*%
X224691726Y-123585864D03*
%TO.P,S10,2*%
%TO.N,middle_home*%
X213141726Y-125785864D03*
%TD*%
%TO.P,S1,1*%
%TO.N,cring*%
X170691727Y-145585865D03*
%TO.P,S1,2*%
%TO.N,outer_home*%
X159141727Y-147785865D03*
%TD*%
%TO.P,S11,1*%
%TO.N,cmiddle*%
X224691727Y-106585865D03*
%TO.P,S11,2*%
%TO.N,middle_top*%
X213141727Y-108785865D03*
%TD*%
D16*
%TO.P,H5,*%
%TO.N,*%
X248416727Y-128035864D03*
%TD*%
D14*
%TO.P,S9,1*%
%TO.N,cmiddle*%
X224691727Y-140585864D03*
%TO.P,S9,2*%
%TO.N,middle_bottom*%
X213141727Y-142785864D03*
%TD*%
%TO.P,S16,1*%
%TO.N,cinner*%
X260691726Y-130585865D03*
%TO.P,S16,2*%
%TO.N,inner_home*%
X249141726Y-132785865D03*
%TD*%
%TO.P,S6,1*%
%TO.N,cring*%
X206691727Y-147585865D03*
%TO.P,S6,2*%
%TO.N,ring_bottom*%
X195141727Y-149785865D03*
%TD*%
%TO.P,S8,1*%
%TO.N,cring*%
X206691727Y-113585865D03*
%TO.P,S8,2*%
%TO.N,ring_top*%
X195141727Y-115785865D03*
%TD*%
%TO.P,S7,1*%
%TO.N,cring*%
X206691727Y-130585865D03*
%TO.P,S7,2*%
%TO.N,ring_home*%
X195141727Y-132785865D03*
%TD*%
%TO.P,S4,1*%
%TO.N,cpinky*%
X188691726Y-140585865D03*
%TO.P,S4,2*%
%TO.N,pinky_home*%
X177141726Y-142785865D03*
%TD*%
D16*
%TO.P,H1,*%
%TO.N,*%
X176716727Y-138035865D03*
%TD*%
D14*
%TO.P,S5,1*%
%TO.N,cpinky*%
X188691727Y-123585865D03*
%TO.P,S5,2*%
%TO.N,pinky_top*%
X177141727Y-125785865D03*
%TD*%
%TO.P,S18,1*%
%TO.N,cmiddle*%
X236691727Y-164585865D03*
%TO.P,S18,2*%
%TO.N,left_cluster*%
X225141727Y-166785865D03*
%TD*%
D21*
%TO.P,Di14,1*%
%TO.N,rtop*%
X237316727Y-124535864D03*
D22*
X237766727Y-124535863D03*
%TO.P,Di14,2*%
%TO.N,index_top*%
X241066727Y-124535865D03*
D21*
X241516727Y-124535864D03*
%TD*%
%TO.P,Di7,1*%
%TO.N,rhome*%
X201316727Y-141535865D03*
D22*
X201766727Y-141535864D03*
%TO.P,Di7,2*%
%TO.N,ring_home*%
X205066727Y-141535866D03*
D21*
X205516727Y-141535865D03*
%TD*%
%TO.P,Di1,1*%
%TO.N,rthumbs*%
X165316727Y-156535865D03*
D22*
X165766727Y-156535864D03*
%TO.P,Di1,2*%
%TO.N,outer_home*%
X169066727Y-156535866D03*
D21*
X169516727Y-156535865D03*
%TD*%
%TO.P,Di6,1*%
%TO.N,rbottom*%
X201316727Y-158535865D03*
D22*
X201766727Y-158535864D03*
%TO.P,Di6,2*%
%TO.N,ring_bottom*%
X205066727Y-158535866D03*
D21*
X205516727Y-158535865D03*
%TD*%
%TO.P,Di11,1*%
%TO.N,rtop*%
X219316727Y-117535864D03*
D22*
X219766727Y-117535863D03*
%TO.P,Di11,2*%
%TO.N,middle_top*%
X223066727Y-117535865D03*
D21*
X223516727Y-117535864D03*
%TD*%
%TO.P,Di20,1*%
%TO.N,rthumbs*%
X269348441Y-184706162D03*
D23*
X269738152Y-184931163D03*
%TO.P,Di20,2*%
%TO.N,right_cluster*%
X272596036Y-186581161D03*
D21*
X272985747Y-186806162D03*
%TD*%
%TO.P,Di19,1*%
%TO.N,rthumbs*%
X251317731Y-177719753D03*
D24*
X251752397Y-177836223D03*
%TO.P,Di19,2*%
%TO.N,middle_cluster*%
X254939953Y-178690323D03*
D21*
X255374619Y-178806793D03*
%TD*%
%TO.P,Di18,1*%
%TO.N,rthumbs*%
X231316726Y-175535865D03*
D22*
X231766726Y-175535864D03*
%TO.P,Di18,2*%
%TO.N,left_cluster*%
X235066726Y-175535866D03*
D21*
X235516726Y-175535865D03*
%TD*%
%TO.P,Di17,1*%
%TO.N,rtop*%
X255316727Y-124535865D03*
D22*
X255766727Y-124535864D03*
%TO.P,Di17,2*%
%TO.N,inner_top*%
X259066727Y-124535866D03*
D21*
X259516727Y-124535865D03*
%TD*%
%TO.P,Di10,1*%
%TO.N,rhome*%
X219316727Y-134535864D03*
D22*
X219766727Y-134535863D03*
%TO.P,Di10,2*%
%TO.N,middle_home*%
X223066727Y-134535865D03*
D21*
X223516727Y-134535864D03*
%TD*%
%TO.P,Di8,1*%
%TO.N,rtop*%
X201316727Y-124535865D03*
D22*
X201766727Y-124535864D03*
%TO.P,Di8,2*%
%TO.N,ring_top*%
X205066727Y-124535866D03*
D21*
X205516727Y-124535865D03*
%TD*%
%TO.P,Di12,1*%
%TO.N,rbottom*%
X237316726Y-158535864D03*
D22*
X237766726Y-158535863D03*
%TO.P,Di12,2*%
%TO.N,index_bottom*%
X241066726Y-158535865D03*
D21*
X241516726Y-158535864D03*
%TD*%
%TO.P,Di3,1*%
%TO.N,rbottom*%
X183316726Y-168535864D03*
D22*
X183766726Y-168535863D03*
%TO.P,Di3,2*%
%TO.N,pinky_bottom*%
X187066726Y-168535865D03*
D21*
X187516726Y-168535864D03*
%TD*%
%TO.P,Di4,1*%
%TO.N,rhome*%
X183316727Y-151535865D03*
D22*
X183766727Y-151535864D03*
%TO.P,Di4,2*%
%TO.N,pinky_home*%
X187066727Y-151535866D03*
D21*
X187516727Y-151535865D03*
%TD*%
%TO.P,Di16,1*%
%TO.N,rhome*%
X255316727Y-141535865D03*
D22*
X255766727Y-141535864D03*
%TO.P,Di16,2*%
%TO.N,inner_home*%
X259066727Y-141535866D03*
D21*
X259516727Y-141535865D03*
%TD*%
%TO.P,Di2,1*%
%TO.N,rthumbs*%
X165316727Y-139535865D03*
D22*
X165766727Y-139535864D03*
%TO.P,Di2,2*%
%TO.N,outer_top*%
X169066727Y-139535866D03*
D21*
X169516727Y-139535865D03*
%TD*%
%TO.P,Di13,1*%
%TO.N,rhome*%
X237316727Y-141535865D03*
D22*
X237766727Y-141535864D03*
%TO.P,Di13,2*%
%TO.N,index_home*%
X241066727Y-141535866D03*
D21*
X241516727Y-141535865D03*
%TD*%
%TO.P,Di15,1*%
%TO.N,rbottom*%
X255316726Y-158535865D03*
D22*
X255766726Y-158535864D03*
%TO.P,Di15,2*%
%TO.N,inner_bottom*%
X259066726Y-158535866D03*
D21*
X259516726Y-158535865D03*
%TD*%
%TO.P,Di9,1*%
%TO.N,rbottom*%
X219316726Y-151535865D03*
D22*
X219766726Y-151535864D03*
%TO.P,Di9,2*%
%TO.N,middle_bottom*%
X223066726Y-151535866D03*
D21*
X223516726Y-151535865D03*
%TD*%
%TO.P,Di5,1*%
%TO.N,rtop*%
X183316727Y-134535865D03*
D22*
X183766727Y-134535864D03*
%TO.P,Di5,2*%
%TO.N,pinky_top*%
X187066727Y-134535866D03*
D21*
X187516727Y-134535865D03*
%TD*%
D25*
%TO.N,BAT+*%
X282225000Y-137500000D03*
X280775000Y-137500000D03*
%TO.N,scl*%
X276500000Y-143500000D03*
%TO.N,GND*%
X280012653Y-139012653D03*
%TO.N,5V*%
X278000000Y-140000000D03*
%TO.N,cring*%
X253500000Y-122500000D03*
X203416727Y-145435865D03*
X203416727Y-111435865D03*
X277422427Y-123060804D03*
X203416726Y-128435865D03*
X167502492Y-143437576D03*
X255017726Y-122500000D03*
%TO.N,outer_home*%
X164416727Y-152035865D03*
%TO.N,cpinky*%
X185416726Y-121435865D03*
X185416726Y-138435866D03*
X185416727Y-155435865D03*
X170416727Y-126709865D03*
X277416726Y-121061171D03*
%TO.N,pinky_bottom*%
X182416727Y-164035865D03*
%TO.N,pinky_home*%
X183916727Y-148535865D03*
%TO.N,pinky_top*%
X184416726Y-132035865D03*
%TO.N,ring_bottom*%
X200916727Y-155035865D03*
%TO.N,ring_home*%
X201916727Y-138535864D03*
%TO.N,ring_top*%
X202843250Y-121829768D03*
%TO.N,cmiddle*%
X233416727Y-162435865D03*
X277416580Y-125086095D03*
X221416727Y-138435865D03*
X221416727Y-121435865D03*
X262000000Y-125500000D03*
X221416726Y-104435865D03*
%TO.N,middle_bottom*%
X227587949Y-147878311D03*
%TO.N,cindex*%
X239416726Y-111435865D03*
X239416726Y-128435864D03*
X239416727Y-145435865D03*
X277416727Y-127561170D03*
X257056340Y-165722979D03*
X262000000Y-126500000D03*
%TO.N,index_bottom*%
X245916727Y-155035864D03*
%TO.N,cinner*%
X257416727Y-145435864D03*
X277416726Y-126535864D03*
X257416727Y-128435864D03*
X257416726Y-111435864D03*
X268846765Y-129153235D03*
X277517642Y-174309535D03*
X263000000Y-130500000D03*
%TO.N,inner_bottom*%
X254916727Y-154535865D03*
X263916727Y-155035864D03*
%TO.N,inner_home*%
X256416726Y-139035865D03*
%TO.N,inner_top*%
X256916726Y-122035865D03*
%TO.N,middle_cluster*%
X252943693Y-175080606D03*
%TO.N,rthumbs*%
X277416727Y-120035864D03*
%TO.N,rbottom*%
X277416727Y-116535865D03*
%TO.N,rhome*%
X277416726Y-114035865D03*
%TO.N,rtop*%
X277416727Y-111535865D03*
%TO.N,sda*%
X277400501Y-122061042D03*
%TO.N,scl*%
X277416581Y-124060789D03*
%TO.N,3V3*%
X277418664Y-117557829D03*
%TO.N,GND*%
X277416727Y-135535865D03*
X277418443Y-115048034D03*
%TO.N,5V*%
X277416727Y-112535865D03*
%TO.N,BAT+*%
X277416727Y-119035865D03*
X277416727Y-137535864D03*
%TD*%
D26*
%TO.N,BAT+*%
X280775000Y-137500000D02*
X282225000Y-137500000D01*
%TO.N,5V*%
X278000000Y-140000000D02*
X280000000Y-138000000D01*
X287663686Y-113592864D02*
X285986687Y-111915865D01*
X280000000Y-138000000D02*
X280000000Y-137137810D01*
X280000000Y-137137810D02*
X287663686Y-129474124D01*
X287663686Y-129474124D02*
X287663686Y-113592864D01*
%TO.N,GND*%
X278666727Y-136535865D02*
X279202592Y-136000000D01*
X287212686Y-129287314D02*
X287212686Y-127500000D01*
X279202592Y-136000000D02*
X280500000Y-136000000D01*
X280500000Y-136000000D02*
X287212686Y-129287314D01*
%TO.N,scl*%
X276000000Y-144775000D02*
X276225000Y-144775000D01*
X276225000Y-144775000D02*
X276500000Y-144500000D01*
X276500000Y-144500000D02*
X276500000Y-143500000D01*
X266500000Y-125500000D02*
X267384135Y-124615865D01*
X276500000Y-143500000D02*
X266500000Y-133500000D01*
X267384135Y-124615865D02*
X268846766Y-124615865D01*
X266500000Y-133500000D02*
X266500000Y-125500000D01*
%TO.N,GND*%
X280500000Y-140500000D02*
X280500000Y-139500000D01*
X280500000Y-139500000D02*
X280012653Y-139012653D01*
X280500000Y-140500000D02*
X280500000Y-144500000D01*
X280500000Y-144500000D02*
X280775000Y-144775000D01*
X280775000Y-144775000D02*
X281000000Y-144775000D01*
%TO.N,5V*%
X278275000Y-144775000D02*
X278000000Y-144500000D01*
X278000000Y-144500000D02*
X278000000Y-140000000D01*
X278500000Y-144775000D02*
X278275000Y-144775000D01*
%TO.N,sda*%
X273500000Y-144775000D02*
X273275000Y-144775000D01*
X273275000Y-144775000D02*
X272931095Y-144431095D01*
X272931095Y-144431095D02*
X272931095Y-140568905D01*
X266000000Y-133637810D02*
X266000000Y-123000000D01*
X272931095Y-140568905D02*
X266000000Y-133637810D01*
X266000000Y-123000000D02*
X266924135Y-122075865D01*
X266924135Y-122075865D02*
X268846766Y-122075865D01*
%TO.N,GND*%
X287212687Y-115681864D02*
X287212686Y-127500000D01*
%TO.N,cinner*%
X268846765Y-129153235D02*
X268846765Y-127155865D01*
%TO.N,cring*%
X277427459Y-123060804D02*
X278416727Y-122071536D01*
X182990729Y-152461866D02*
X189213726Y-152461866D01*
X278416727Y-122071536D02*
X285982357Y-122071535D01*
X204541727Y-128435864D02*
X206691728Y-130585865D01*
X176114728Y-145585865D02*
X182990729Y-152461866D01*
X277422427Y-123060804D02*
X277427459Y-123060804D01*
X285982357Y-122071535D02*
X285986686Y-122075864D01*
X203416726Y-128435865D02*
X204541727Y-128435864D01*
X168543438Y-143437576D02*
X170691727Y-145585865D01*
X204541727Y-145435864D02*
X206691726Y-147585865D01*
X204541726Y-111435864D02*
X206691727Y-113585865D01*
X167502492Y-143437576D02*
X168543438Y-143437576D01*
X255017726Y-122500000D02*
X253500000Y-122500000D01*
X170691727Y-145585865D02*
X176114728Y-145585865D01*
X203416727Y-111435865D02*
X204541726Y-111435864D01*
X203416727Y-145435865D02*
X204541727Y-145435864D01*
X189213726Y-152461866D02*
X196239727Y-145435865D01*
X196239727Y-145435865D02*
X203416727Y-145435865D01*
%TO.N,outer_home*%
X164416727Y-152035865D02*
X162689827Y-150308964D01*
X161664827Y-150308965D02*
X159141727Y-147785865D01*
X162689827Y-150308964D02*
X161664827Y-150308965D01*
%TO.N,cpinky*%
X185416726Y-138435866D02*
X186541727Y-138435864D01*
X277442032Y-121035865D02*
X282416727Y-121035865D01*
X186541726Y-155435864D02*
X188691727Y-157585865D01*
X185416726Y-121435865D02*
X186541727Y-121435864D01*
X277416726Y-121061171D02*
X277442032Y-121035865D01*
X282416727Y-121035865D02*
X283916727Y-119535865D01*
X170416727Y-126709865D02*
X170416726Y-128310866D01*
X186541727Y-121435864D02*
X188691726Y-123585865D01*
X186541727Y-138435864D02*
X188691727Y-140585865D01*
X170416726Y-128310866D02*
X170691727Y-128585865D01*
X283916727Y-119535865D02*
X285986686Y-119535866D01*
X185416727Y-155435865D02*
X186541726Y-155435864D01*
%TO.N,outer_top*%
X162416726Y-132885865D02*
X161241727Y-132885865D01*
X169066727Y-139535866D02*
X162416726Y-132885865D01*
X161241727Y-132885865D02*
X159141726Y-130785865D01*
%TO.N,pinky_bottom*%
X182416727Y-164035865D02*
X180689827Y-162308964D01*
X179664826Y-162308966D02*
X177141726Y-159785865D01*
X180689827Y-162308964D02*
X179664826Y-162308966D01*
%TO.N,pinky_home*%
X179017727Y-144661865D02*
X177141727Y-142785865D01*
X180042726Y-144661865D02*
X179017727Y-144661865D01*
X183916727Y-148535865D02*
X180042726Y-144661865D01*
%TO.N,pinky_top*%
X179017728Y-127661865D02*
X176940042Y-125584179D01*
X184416726Y-132035865D02*
X180042726Y-127661865D01*
X180042726Y-127661865D02*
X179017728Y-127661865D01*
%TO.N,ring_bottom*%
X200916726Y-154800765D02*
X197777826Y-151661865D01*
X197017726Y-151661865D02*
X195141727Y-149785865D01*
X200916727Y-155035865D02*
X200916726Y-154800765D01*
X197777826Y-151661865D02*
X197017726Y-151661865D01*
%TO.N,ring_home*%
X198042726Y-134661864D02*
X197017727Y-134661865D01*
X201916727Y-138535864D02*
X198042726Y-134661864D01*
X197017727Y-134661865D02*
X195141727Y-132785865D01*
%TO.N,ring_top*%
X197017727Y-117661866D02*
X195141726Y-115785865D01*
X202710629Y-121829767D02*
X198542727Y-117661865D01*
X198542727Y-117661865D02*
X197017727Y-117661866D01*
X202843250Y-121829768D02*
X202710629Y-121829767D01*
%TO.N,cmiddle*%
X254528863Y-125000000D02*
X255028863Y-125500000D01*
X247314602Y-125000000D02*
X254528863Y-125000000D01*
X285986687Y-124615865D02*
X277886811Y-124615865D01*
X222541727Y-121435865D02*
X224691727Y-123585864D01*
X233828916Y-123585864D02*
X236229917Y-125986865D01*
X246327737Y-125986865D02*
X247314602Y-125000000D01*
X255028863Y-125500000D02*
X262000000Y-125500000D01*
X221416727Y-121435865D02*
X222541727Y-121435865D01*
X277886811Y-124615865D02*
X277416580Y-125086095D01*
X236229917Y-125986865D02*
X246327737Y-125986865D01*
X224691726Y-123585864D02*
X233828916Y-123585864D01*
X222541726Y-138435865D02*
X224691727Y-140585864D01*
X234541726Y-162435865D02*
X236691727Y-164585865D01*
X222541727Y-104435865D02*
X224691726Y-106585864D01*
X221416727Y-138435865D02*
X222541726Y-138435865D01*
X221416726Y-104435865D02*
X222541727Y-104435865D01*
X233416727Y-162435865D02*
X234541726Y-162435865D01*
%TO.N,middle_bottom*%
X227587949Y-147878311D02*
X223930396Y-151535865D01*
X223930396Y-151535865D02*
X223066727Y-151535865D01*
X215241727Y-144885864D02*
X213141726Y-142785864D01*
X223066727Y-151535865D02*
X216416728Y-144885865D01*
X216416728Y-144885865D02*
X215241727Y-144885864D01*
%TO.N,middle_home*%
X215664826Y-128308964D02*
X213141727Y-125785865D01*
X223066727Y-134535865D02*
X216839826Y-128308965D01*
X216839826Y-128308965D02*
X215664826Y-128308964D01*
%TO.N,middle_top*%
X216839827Y-111308965D02*
X215664827Y-111308966D01*
X223066726Y-117535866D02*
X216839827Y-111308965D01*
X215664827Y-111308966D02*
X213141727Y-108785865D01*
%TO.N,cindex*%
X239416727Y-145435865D02*
X240541727Y-145435865D01*
X277822032Y-127155865D02*
X277416727Y-127561170D01*
X240541727Y-111435865D02*
X242691727Y-113585865D01*
X240541727Y-128435865D02*
X242691726Y-130585864D01*
X242691727Y-130585864D02*
X246828738Y-130585864D01*
X256049525Y-126500000D02*
X262000000Y-126500000D01*
X251549525Y-131000000D02*
X256049525Y-126500000D01*
X259343649Y-168010288D02*
X259343649Y-168534018D01*
X239416726Y-111435865D02*
X240541727Y-111435865D01*
X239416726Y-128435864D02*
X240541727Y-128435865D01*
X285986687Y-127155864D02*
X277822032Y-127155865D01*
X257056340Y-165722979D02*
X259343649Y-168010288D01*
X247242874Y-131000000D02*
X251549525Y-131000000D01*
X240541727Y-145435865D02*
X242691726Y-147585864D01*
X246828738Y-130585864D02*
X247242874Y-131000000D01*
%TO.N,index_bottom*%
X234566726Y-152035865D02*
X233391728Y-152035865D01*
X233391728Y-152035865D02*
X231141726Y-149785864D01*
X241066727Y-158535865D02*
X234566726Y-152035865D01*
X245916727Y-155035864D02*
X242416726Y-158535864D01*
X242416726Y-158535864D02*
X241066727Y-158535865D01*
%TO.N,index_home*%
X241066726Y-141535865D02*
X234839827Y-135308965D01*
X234839827Y-135308965D02*
X233664827Y-135308965D01*
X233664827Y-135308965D02*
X231141727Y-132785865D01*
%TO.N,index_top*%
X233664827Y-118308966D02*
X231141727Y-115785865D01*
X234839827Y-118308965D02*
X233664827Y-118308966D01*
X241066727Y-124535865D02*
X234839827Y-118308965D01*
%TO.N,cinner*%
X277517642Y-174309535D02*
X279478327Y-176270220D01*
X257416727Y-128435864D02*
X258541728Y-128435865D01*
X258541727Y-111435865D02*
X257416726Y-111435864D01*
X258541728Y-128435865D02*
X260691726Y-130585865D01*
X279478327Y-176270220D02*
X279478327Y-177910685D01*
X257416727Y-145435864D02*
X258541726Y-145435865D01*
X260691726Y-130585865D02*
X262914135Y-130585865D01*
X276796726Y-127155864D02*
X277416726Y-126535864D01*
X268846767Y-127155866D02*
X276796726Y-127155864D01*
X262914135Y-130585865D02*
X263000000Y-130500000D01*
X258541726Y-145435865D02*
X260691727Y-147585865D01*
X260691726Y-113585864D02*
X258541727Y-111435865D01*
%TO.N,inner_bottom*%
X251017727Y-151661865D02*
X249141727Y-149785865D01*
X252042727Y-151661865D02*
X251017727Y-151661865D01*
X260416727Y-158535865D02*
X259066727Y-158535864D01*
X263916727Y-155035864D02*
X260416727Y-158535865D01*
X254916727Y-154535865D02*
X252042727Y-151661865D01*
%TO.N,inner_home*%
X256416726Y-139035865D02*
X252042727Y-134661865D01*
X252042727Y-134661865D02*
X251017726Y-134661865D01*
X251017726Y-134661865D02*
X249141727Y-132785865D01*
%TO.N,inner_top*%
X256916726Y-122035865D02*
X253189827Y-118308964D01*
X251664827Y-118308964D02*
X249141727Y-115785864D01*
X253189827Y-118308964D02*
X251664827Y-118308964D01*
%TO.N,left_cluster*%
X227091727Y-168735865D02*
X225141726Y-166785864D01*
X235066727Y-175535864D02*
X228266727Y-168735864D01*
X228266727Y-168735864D02*
X227091727Y-168735865D01*
%TO.N,middle_cluster*%
X250183183Y-170299262D02*
X248944337Y-169967314D01*
X252943693Y-175080606D02*
X250183183Y-170299262D01*
X248944337Y-169967314D02*
X247617805Y-167669693D01*
%TO.N,right_cluster*%
X270316833Y-178075059D02*
X269299254Y-177487559D01*
X269299254Y-177487559D02*
X268375735Y-174040940D01*
X272596037Y-186581161D02*
X270316833Y-178075059D01*
%TO.N,rthumbs*%
X271132470Y-119535865D02*
X268846766Y-119535864D01*
X228412865Y-152912865D02*
X251752397Y-176252397D01*
X251752397Y-176252397D02*
X251752397Y-177836223D01*
X276391421Y-121061171D02*
X277416727Y-120035864D01*
X197637810Y-159500000D02*
X206000000Y-159500000D01*
X171028864Y-157500000D02*
X172014432Y-158485568D01*
X187675945Y-169461865D02*
X197637810Y-159500000D01*
X165326226Y-156095365D02*
X165766726Y-156535865D01*
X231766727Y-175535865D02*
X233950613Y-177719752D01*
X251752397Y-177836221D02*
X252552754Y-177035864D01*
X182990728Y-169461865D02*
X187675945Y-169461865D01*
X272657776Y-121061171D02*
X271132470Y-119535865D01*
X252552754Y-177035864D02*
X265416726Y-177035864D01*
X272657776Y-121061171D02*
X276391421Y-121061171D01*
X165766727Y-139535864D02*
X165326227Y-139976365D01*
X166730863Y-157500000D02*
X171028864Y-157500000D01*
X219587135Y-152912865D02*
X228412865Y-152912865D01*
X216250000Y-156250000D02*
X219587135Y-152912865D01*
X265416726Y-120535865D02*
X265416726Y-177035864D01*
X268846766Y-119535864D02*
X266416727Y-119535865D01*
X172014432Y-158485568D02*
X182990728Y-169461865D01*
X265416726Y-177035864D02*
X265416727Y-180774448D01*
X265416727Y-180774448D02*
X269348442Y-184706162D01*
X206000000Y-159500000D02*
X209250000Y-156250000D01*
X209250000Y-156250000D02*
X216250000Y-156250000D01*
X165326227Y-139976365D02*
X165326226Y-156095365D01*
X266416727Y-119535865D02*
X265416726Y-120535865D01*
X233950613Y-177719752D02*
X251317730Y-177719753D01*
X165766727Y-156535864D02*
X166730863Y-157500000D01*
%TO.N,rbottom*%
X264916727Y-150035864D02*
X262643627Y-152308965D01*
X276956727Y-116995865D02*
X277416727Y-116535865D01*
X254916727Y-159535865D02*
X238766727Y-159535865D01*
X183766727Y-168535865D02*
X185766726Y-166535865D01*
X185766726Y-166535865D02*
X189500000Y-166535865D01*
X237766727Y-158535865D02*
X237066727Y-158535864D01*
X255766727Y-158685865D02*
X254916727Y-159535865D01*
X261993627Y-152308964D02*
X255766727Y-158535865D01*
X268846767Y-116995865D02*
X265956727Y-116995865D01*
X262643627Y-152308965D02*
X261993627Y-152308964D01*
X220692726Y-152461865D02*
X219766727Y-151535865D01*
X265956727Y-116995865D02*
X264916727Y-118035865D01*
X201766727Y-158535864D02*
X197964136Y-158535864D01*
X230992726Y-152461865D02*
X220692726Y-152461865D01*
X237066727Y-158535864D02*
X230992726Y-152461865D01*
X219766727Y-151535865D02*
X215766727Y-155535864D01*
X204766726Y-155535865D02*
X201766726Y-158535865D01*
X197964136Y-158535864D02*
X189964135Y-166535865D01*
X255766727Y-158535865D02*
X255766727Y-158685865D01*
X268846767Y-116995865D02*
X276956727Y-116995865D01*
X189964135Y-166535865D02*
X189500000Y-166535865D01*
X238766727Y-159535865D02*
X237766727Y-158535865D01*
X215766727Y-155535864D02*
X204766726Y-155535865D01*
X264916727Y-118035865D02*
X264916727Y-150035864D01*
%TO.N,rhome*%
X263193792Y-134661865D02*
X264416726Y-133438930D01*
X208790727Y-134661864D02*
X201916726Y-141535866D01*
X237316726Y-141535864D02*
X235416726Y-141535865D01*
X264416726Y-133438930D02*
X264416726Y-117535864D01*
X255766727Y-141535865D02*
X262640727Y-134661865D01*
X255766727Y-141535865D02*
X255766727Y-141685865D01*
X232916726Y-139035865D02*
X228916727Y-139035865D01*
X264416726Y-117535864D02*
X267496727Y-114455864D01*
X187266727Y-148035865D02*
X183766726Y-151535866D01*
X219766727Y-134535865D02*
X219640726Y-134661865D01*
X228916727Y-139035865D02*
X225416727Y-135535866D01*
X192416727Y-148035864D02*
X187266727Y-148035865D01*
X198916727Y-141535865D02*
X192416727Y-148035864D01*
X254916727Y-142535865D02*
X238766727Y-142535865D01*
X201766726Y-141535864D02*
X198916727Y-141535865D01*
X276996727Y-114455864D02*
X277416726Y-114035865D01*
X220766727Y-135535865D02*
X219766727Y-134535865D01*
X201916726Y-141535866D02*
X201766726Y-141535864D01*
X238766727Y-142535865D02*
X237766727Y-141535865D01*
X225416727Y-135535866D02*
X220766727Y-135535865D01*
X268846767Y-114455865D02*
X276996727Y-114455864D01*
X267496727Y-114455864D02*
X268846767Y-114455865D01*
X219640726Y-134661865D02*
X208790727Y-134661864D01*
X262640727Y-134661865D02*
X263193792Y-134661865D01*
X235416726Y-141535865D02*
X232916726Y-139035865D01*
X255766727Y-141685865D02*
X254916727Y-142535865D01*
%TO.N,rtop*%
X237916726Y-124535865D02*
X237766726Y-124535866D01*
X220766727Y-118535865D02*
X219766726Y-117535865D01*
X268846766Y-111915865D02*
X268846767Y-112008890D01*
X232416727Y-121535864D02*
X227916727Y-121535865D01*
X188916726Y-133535865D02*
X184766727Y-133535865D01*
X202181627Y-124535864D02*
X201766727Y-124535864D01*
X261993626Y-118308964D02*
X255766726Y-124535865D01*
X201766727Y-124535864D02*
X197916726Y-124535866D01*
X219766726Y-117535865D02*
X209181628Y-117535865D01*
X209181628Y-117535865D02*
X202181627Y-124535864D01*
X238916727Y-125535865D02*
X237916726Y-124535865D01*
X262546692Y-118308964D02*
X261993626Y-118308964D01*
X197916726Y-124535866D02*
X188916726Y-133535865D01*
X277036726Y-111915865D02*
X277416727Y-111535865D01*
X235416727Y-124535865D02*
X232416727Y-121535864D01*
X243535865Y-124000000D02*
X242000000Y-125535865D01*
X255230863Y-124000000D02*
X243535865Y-124000000D01*
X268846767Y-112008890D02*
X262546692Y-118308964D01*
X242000000Y-125535865D02*
X238916727Y-125535865D01*
X268846766Y-111915865D02*
X277036726Y-111915865D01*
X224916726Y-118535865D02*
X220766727Y-118535865D01*
X184766727Y-133535865D02*
X183766726Y-134535865D01*
X255766727Y-124535864D02*
X255230863Y-124000000D01*
X227916727Y-121535865D02*
X224916726Y-118535865D01*
X237316727Y-124535864D02*
X235416727Y-124535865D01*
%TO.N,sda*%
X277385677Y-122075864D02*
X277400501Y-122061042D01*
X268846767Y-122075865D02*
X277385677Y-122075864D01*
%TO.N,scl*%
X268846766Y-124615865D02*
X276861506Y-124615865D01*
X276861506Y-124615865D02*
X277416581Y-124060789D01*
%TO.N,3V3*%
X285986686Y-116995864D02*
X277983446Y-116995865D01*
X285986686Y-116995864D02*
X285424723Y-117557829D01*
X277421483Y-117557829D02*
X277418664Y-117557829D01*
X277983446Y-116995865D02*
X277421483Y-117557829D01*
%TO.N,GND*%
X285986687Y-114455864D02*
X278023447Y-114455865D01*
X278023447Y-114455865D02*
X277431277Y-115048035D01*
X277431277Y-115048035D02*
X277418443Y-115048034D01*
X285986687Y-114455864D02*
X285394517Y-115048033D01*
X285986687Y-114455864D02*
X287212687Y-115681864D01*
X278916727Y-135535865D02*
X277416727Y-135535865D01*
%TO.N,5V*%
X285986687Y-111915865D02*
X285366687Y-112535866D01*
X278063447Y-111915864D02*
X277443447Y-112535865D01*
X277443447Y-112535865D02*
X277416727Y-112535865D01*
X285986687Y-111915865D02*
X278063447Y-111915864D01*
%TO.N,BAT+*%
X277416727Y-119035865D02*
X273154727Y-119035864D01*
X281678726Y-119035865D02*
X281861727Y-119218864D01*
X273154727Y-119035864D02*
X272971726Y-119218866D01*
X276416727Y-137535864D02*
X277416727Y-137535864D01*
%TO.N,oled1*%
X273500000Y-146225000D02*
X273500000Y-148500000D01*
%TO.N,oled2*%
X276000000Y-148460000D02*
X276040001Y-148500001D01*
X276000000Y-146225000D02*
X276000000Y-148460000D01*
%TO.N,oled3*%
X278500000Y-146225000D02*
X278500000Y-148420000D01*
X278500000Y-148420000D02*
X278580000Y-148500000D01*
%TO.N,oled4*%
X281000000Y-146225000D02*
X281000000Y-148380000D01*
X281000000Y-148380000D02*
X281120000Y-148500000D01*
%TD*%
M02*
