<svg xmlns="http://www.w3.org/2000/svg" width="2730.667" height="2730.667" version="1.0" viewBox="0 0 2048 2048"><path d="M726 1038.9V1402h124v-267h232v267h123V1078.3l-33.2-.6c-43.8-.8-56.9-2.6-84.8-11.9-27.3-9.2-54.2-25.9-78-48.6l-8.5-8.1-75.2-.2-75.3-.1V795.3l-8.2-7.9c-16.3-15.5-76.6-74.2-93.9-91.2-9.6-9.5-18.5-18-19.7-18.8l-2.2-1.5v363zM529.8 677.7c-.2.5-.3 29.1-.3 63.8v63l62.3.3 62.2.2V677h-61.9c-34.1 0-62.1.3-62.3.7z"/><path d="M1134.7 678.6c-49.7 6-94.9 32.8-123.9 73.5-7.9 11.1-19.4 32.9-23.6 45-8.4 24-12.2 58.2-9.2 82.9 5.4 43.1 21.3 76.7 50.5 106.9 23.4 24.1 47.8 39.2 78.6 48.5 23.9 7.2 19.5 7 145.7 7.3l113.2.4V929h-100.7c-61 0-105.1-.4-111.6-1-17.9-1.7-31.3-7.8-42.7-19.3-10.9-10.9-16.5-23-18.9-40.1-2-14.4 1.4-32.4 8.3-43.8 7.7-12.8 16.8-21.1 29.9-27.4 14-6.6 9.7-6.4 147.2-6.2l124 .3.3 247 .2 247.1 18.8 18.5c41.4 40.9 100.4 98.4 101.3 98.7.5.2.9-145.6.9-362.7V677l-188.2.1c-155.8.1-190.3.4-200.1 1.5zM529.2 1136l-.3 266H654V870H529.5l-.3 266z"/></svg>